<svg width="120" height="30" viewBox="0 0 120 30" fill="none" xmlns="http://www.w3.org/2000/svg">
<path d="M0.110981 29.4687L0 13.6616C0.970126 12.8847 1.88668 12.0255 2.73625 11.0822C3.34856 10.4374 3.91495 9.74853 4.41627 9.00993C4.42393 8.99845 4.4335 8.98505 4.44115 8.97166C4.54065 8.82432 4.63824 8.67507 4.732 8.52582C4.90995 8.26177 5.08407 7.99579 5.25246 7.72217C6.21684 6.1627 6.97458 4.53434 7.53331 2.86771L8.15518 2.84092L8.15136 14.9053C7.38597 15.1215 6.7086 15.6611 6.35079 16.4782C5.85903 17.6052 6.18814 18.9523 7.14296 19.7272C8.56084 20.8772 10.6523 20.3931 11.4253 18.7475C11.9324 17.6664 11.676 16.3538 10.7977 15.5444C10.3423 15.1234 9.8065 14.8938 9.26117 14.8249L9.31666 0.531372L11.3794 0.540939C12.3495 4.68933 14.4524 8.57175 17.5694 11.685C17.69 11.8629 17.7455 12.0638 17.7455 12.2839L17.69 25.9651L17.6441 29.4668H12.9408C12.6136 29.1817 12.4299 28.2709 12.3151 27.6643L11.8061 25.127H6.30678L6.06568 25.4734L5.62558 27.6643C5.51078 28.2709 5.32708 29.1817 4.99988 29.4668H0.110981V29.4687Z" fill="#C33400"/>
<path fill-rule="evenodd" clip-rule="evenodd" d="M67.0366 12.8093C67.0341 13.9407 67.9396 14.8438 69.0735 14.8438L69.071 14.8463C70.1923 14.8438 71.0879 13.9507 71.0954 12.8294C71.1029 11.7231 70.1898 10.805 69.076 10.805C67.9597 10.805 67.0391 11.7081 67.0366 12.8093ZM59.1241 22.6284C59.1244 23.0245 59.1247 23.4207 59.1247 23.8171H59.1197L59.1199 24.7792C59.1203 26.0622 59.1207 27.3461 59.1147 28.6284C59.1121 28.8342 59.1473 28.9119 59.3781 28.9069C60.2435 28.8918 61.1115 28.8918 61.9794 28.9069C62.2227 28.9119 62.2629 28.8291 62.2629 28.6109C62.2579 25.4602 62.2579 22.3119 62.2579 19.1612C62.2579 19.1386 62.2587 19.116 62.2595 19.0935C62.2612 19.0483 62.2629 19.0032 62.2579 18.958C62.2428 18.825 62.308 18.7975 62.4284 18.7975C63.1085 18.7997 63.7886 18.7999 64.4687 18.8002C65.3189 18.8005 66.169 18.8008 67.0191 18.805C67.2975 18.8075 67.4756 18.9605 67.5057 19.249C67.5208 19.3744 67.5233 19.5024 67.5233 19.6278V27.2387C67.5233 28.4227 67.9999 28.8944 69.1915 28.8994C69.5601 28.9014 69.9291 28.9005 70.2982 28.8996H70.2983H70.2984H70.2984H70.2985H70.2986H70.2987C70.8262 28.8983 71.3538 28.897 71.8806 28.9044C72.0989 28.9069 72.1842 28.8668 72.1741 28.6259C72.1591 28.29 72.1619 27.954 72.1647 27.6173V27.6171V27.6166V27.6161V27.6156V27.6151V27.6146V27.614C72.1661 27.4465 72.1675 27.2788 72.1666 27.1108C72.1666 27.0326 72.1746 26.9468 72.1825 26.8607C72.2022 26.6484 72.2221 26.4337 72.124 26.3231C72.0139 26.1973 71.8003 26.2224 71.5867 26.2475C71.4937 26.2585 71.4007 26.2694 71.3162 26.2679C70.812 26.2579 70.654 26.1074 70.654 25.6031V18.1653V18.165C70.654 18.0271 70.654 17.8918 70.649 17.7564C70.6138 16.906 70.1824 16.4344 69.3345 16.3341C69.1714 16.314 69.0059 16.304 68.8403 16.304C67.9984 16.303 67.1566 16.3028 66.3147 16.3025H66.314C65.0514 16.3022 63.7889 16.3019 62.5263 16.2989C62.5057 16.2984 62.4827 16.3019 62.4589 16.3055C62.3756 16.3182 62.2838 16.3322 62.2604 16.176C62.145 15.4134 62.5764 14.5731 63.2713 14.2294C63.8633 13.9384 64.493 13.9208 65.1276 13.981C65.3158 14.0011 65.3333 13.9509 65.3333 13.7929C65.3283 13.0454 65.3233 12.2953 65.3358 11.5477C65.3384 11.3621 65.2706 11.3295 65.1076 11.3119C64.069 11.2016 63.043 11.2718 62.0497 11.5954C60.7653 12.0118 59.8346 12.8171 59.3931 14.124C59.1799 14.7562 59.1021 15.4109 59.1272 16.0757C59.1347 16.2538 59.0845 16.314 58.9014 16.3065C58.7069 16.2999 58.5124 16.3009 58.3182 16.3019C58.1418 16.3028 57.9657 16.3037 57.7901 16.2989C57.6171 16.2939 57.5518 16.3391 57.5543 16.5247C57.5644 17.2146 57.5644 17.9044 57.5543 18.5943C57.5518 18.7673 57.612 18.8075 57.7726 18.8025C57.9231 18.7993 58.0737 18.8006 58.224 18.8018H58.2241C58.4345 18.8035 58.6446 18.8052 58.8538 18.7949C59.0695 18.7849 59.1297 18.8401 59.1297 19.0634C59.1222 20.2524 59.1231 21.44 59.1241 22.6284ZM90.6997 16.3363C89.601 16.7703 88.7982 17.5529 88.1987 18.6542H88.1962C88.1962 18.5292 88.1965 18.4137 88.1968 18.3044V18.3037V18.303V18.3023V18.3017V18.3011V18.3005C88.1973 18.0999 88.1978 17.9197 88.1962 17.7386C88.1862 16.9107 87.7672 16.4266 86.9394 16.3463C86.2746 16.2813 85.6088 16.2905 84.9432 16.2997C84.5565 16.305 84.1699 16.3104 83.7837 16.3012C83.6382 16.2987 83.6331 16.3764 83.6331 16.4843L83.6343 16.7887C83.6368 17.3971 83.6392 18.0056 83.6306 18.614C83.6281 18.7746 83.6833 18.8122 83.8313 18.8047C83.9947 18.7977 84.1593 18.7993 84.3235 18.8008C84.3937 18.8015 84.4638 18.8022 84.5337 18.8022C84.905 18.8047 85.1107 18.9828 85.1558 19.3516C85.1666 19.4503 85.1663 19.5509 85.166 19.6502V19.6503V19.6503V19.6504V19.6505V19.6506V19.6507L85.1659 19.7002V28.5078C85.1659 28.7703 85.3022 28.9016 85.5748 28.9016C85.794 28.9016 86.013 28.9006 86.232 28.8997L86.233 28.8997H86.2331H86.2332H86.2332H86.2333H86.2334H86.2334C86.8032 28.8971 87.3724 28.8946 87.9428 28.9091C88.2138 28.9141 88.3015 28.8589 88.299 28.5655C88.2815 26.8747 88.2865 25.1814 88.2915 23.4907C88.2965 22.2414 88.5349 21.0549 89.3075 20.0339C89.8518 19.3114 90.5768 18.8975 91.4949 18.8699C92.4306 18.8423 93.0001 19.3164 93.1656 20.2321C93.2359 20.6159 93.2484 21.0047 93.2484 21.3935C93.2509 23.8042 93.2534 26.2149 93.2459 28.6257C93.2459 28.8364 93.286 28.9116 93.5143 28.9066C94.3798 28.8916 95.2477 28.8891 96.1157 28.9066C96.359 28.9116 96.3941 28.8288 96.3941 28.6131C96.393 28.1974 96.391 27.7815 96.3889 27.3656V27.3651V27.3646V27.3642V27.3637V27.3632V27.3628C96.382 25.9325 96.375 24.5014 96.4042 23.0717C96.4292 21.9078 96.7253 20.804 97.5029 19.8859C98.0523 19.2362 98.7572 18.8799 99.6151 18.8674C100.408 18.8549 100.935 19.2086 101.168 19.8984C101.233 20.0916 101.273 20.2948 101.298 20.4955C101.378 21.1207 101.369 21.7497 101.359 22.378V22.3781C101.355 22.6346 101.351 22.891 101.354 23.147C101.359 23.8934 101.358 24.6398 101.357 25.3862C101.356 26.0496 101.355 26.713 101.359 27.3764C101.361 28.144 101.655 28.6006 102.242 28.7987C102.465 28.874 102.696 28.9016 102.931 28.9016C103.174 28.9016 103.416 28.901 103.658 28.9005C104.304 28.899 104.949 28.8975 105.593 28.9066C105.806 28.9091 105.851 28.8364 105.846 28.6407C105.837 28.223 105.839 27.8066 105.84 27.3896C105.841 27.2331 105.841 27.0766 105.841 26.9198C105.841 26.4834 105.627 26.2651 105.199 26.2651C104.632 26.2651 104.497 26.1322 104.497 25.5602C104.497 25.0283 104.497 24.4967 104.498 23.9651V23.9649V23.9646V23.9643V23.964V23.9638V23.9635C104.499 22.9012 104.5 21.8394 104.497 20.7764C104.494 20.1443 104.444 19.5146 104.286 18.9C103.998 17.7762 103.426 16.8631 102.317 16.3814C100.566 15.6188 98.3357 16.0403 96.9711 17.3723C96.5998 17.7335 96.3013 18.1449 96.0254 18.6291C95.999 18.5653 95.9756 18.5093 95.954 18.4577L95.9538 18.4574L95.9536 18.4567L95.9526 18.4545C95.9213 18.3797 95.8939 18.3142 95.8673 18.2478C95.5763 17.5253 95.1348 16.9132 94.4425 16.5345C93.2334 15.8722 91.969 15.8346 90.6997 16.3363ZM112.87 29.0322C114.005 28.7478 114.838 28.044 115.449 26.9629V27.2286C115.414 28.3725 115.916 28.8917 117.072 28.8942C117.358 28.8951 117.644 28.8944 117.93 28.8937C118.444 28.8925 118.958 28.8912 119.47 28.8992C119.684 28.9018 119.726 28.8365 119.721 28.6384C119.712 28.2211 119.714 27.8052 119.715 27.3887V27.3884V27.3882V27.3879V27.3877V27.3874C119.716 27.2309 119.716 27.0743 119.716 26.9175C119.716 26.4777 119.497 26.2577 119.059 26.2577C118.477 26.2552 118.336 26.1198 118.336 25.5353V21.3937V21.3474C118.337 20.8385 118.337 20.3297 118.259 19.8233C117.988 18.0749 117.067 16.8708 115.339 16.3314C114.569 16.0906 113.778 16.0028 112.978 16.0028C111.864 16.0053 110.761 16.1082 109.725 16.5722C108.751 17.0087 108.212 17.7262 108.257 18.8249C108.272 19.1159 108.272 19.4094 108.257 19.7004C108.247 19.886 108.312 19.9287 108.488 19.9287C109.038 19.9233 109.588 19.9243 110.138 19.9254C110.358 19.9258 110.578 19.9262 110.798 19.9262C111.056 19.9262 111.185 19.7991 111.185 19.5449C111.185 18.9177 111.325 18.7271 111.94 18.5515C112.552 18.3759 113.174 18.3809 113.788 18.5214C114.491 18.6819 114.92 19.136 115.093 19.8283C115.165 20.1192 115.189 20.4147 115.213 20.7126L115.216 20.7515C115.233 20.9597 115.163 21.0149 114.957 21.0099C114.039 20.9848 113.129 21.045 112.221 21.1855C111.139 21.3535 110.096 21.6345 109.135 22.1814C106.589 23.6288 106.923 26.9275 108.716 28.2596C109.97 29.1927 111.378 29.4035 112.87 29.0322ZM112.323 26.772C112.38 26.7654 112.437 26.7598 112.494 26.7543C112.631 26.741 112.767 26.7276 112.9 26.6993C114.308 26.3882 115.299 24.8053 115.268 23.3052C115.266 23.1475 115.174 23.1506 115.075 23.1539L115.05 23.1547C114.903 23.1576 114.756 23.1589 114.609 23.1601H114.609C114.26 23.1629 113.91 23.1658 113.563 23.1923C112.798 23.255 112.04 23.3704 111.348 23.7492C110.62 24.1481 110.309 24.858 110.542 25.6105C110.763 26.323 111.405 26.7369 112.321 26.7745L112.323 26.772ZM51.2578 29.0973C54.6236 28.553 56.7356 26.0077 56.7364 21.7146C56.7239 20.5256 55.9939 18.752 54.3282 17.425C53.2119 16.537 51.9125 16.1055 50.4977 16.0302C48.4708 15.9224 46.6596 16.4692 45.1946 17.9192C44.0407 19.0606 43.4612 20.4804 43.3584 22.0884C43.2329 24.0576 43.7422 25.8336 45.1595 27.261C46.8477 28.9618 48.9549 29.4685 51.2578 29.0973ZM53.2169 20.7614C53.4728 21.3584 53.5882 21.983 53.5782 22.6327C53.5606 23.8594 53.2144 24.9531 52.2436 25.7684C50.6106 27.1431 47.4749 26.8095 46.6797 23.9096C46.3009 22.5274 46.4414 21.1778 47.3219 19.9988C48.8772 17.9167 52.1809 18.3532 53.2169 20.7614ZM77.8409 19.2061C77.8793 19.1325 77.917 19.0588 77.9545 18.9854C78.1305 18.6413 78.3038 18.3026 78.5333 17.9945C79.4464 16.7754 80.6455 16.1758 82.1857 16.2762C82.3839 16.2887 82.4215 16.3615 82.419 16.5396C82.409 17.2194 82.409 17.8992 82.419 18.5815C82.4215 18.7646 82.3588 18.7847 82.1933 18.8123C80.4323 19.1183 79.0425 19.9637 78.2975 21.647C77.9714 22.382 77.9413 23.1922 77.9413 23.9925C77.9413 24.3788 77.941 24.7652 77.9407 25.1516C77.9397 26.3105 77.9388 27.4694 77.9463 28.6283C77.9463 28.8415 77.8986 28.9092 77.6754 28.9067C76.8175 28.8916 75.9595 28.8891 75.1041 28.9067C74.8382 28.9117 74.8131 28.8139 74.8131 28.5906C74.8191 26.2195 74.8187 23.85 74.8183 21.4795V21.4793V21.4791V21.479L74.8181 19.6978C74.8181 19.0782 74.7153 18.9754 74.0881 18.9754C74.0248 18.9754 73.9617 18.9744 73.8987 18.9735L73.8986 18.9735C73.757 18.9713 73.6159 18.9692 73.4736 18.9779C73.313 18.9879 73.2804 18.9277 73.2829 18.7797C73.2892 18.1487 73.2867 17.5177 73.2843 16.8852L73.2829 16.5044L73.2828 16.4864C73.2823 16.3816 73.2819 16.2964 73.4409 16.2987C73.8279 16.3081 74.2151 16.3028 74.6024 16.2976C75.2573 16.2888 75.9125 16.2799 76.5666 16.3414C77.3819 16.4191 77.8083 16.8807 77.8384 17.696C77.8521 18.0381 77.8483 18.3814 77.8445 18.7243V18.7244V18.7247V18.725V18.7252C77.8427 18.8849 77.8409 19.0444 77.8409 19.2036V19.2061ZM77.8092 19.2889L77.8129 19.2755L77.8215 19.282C77.8302 19.2884 77.8381 19.2943 77.8434 19.3015C77.8466 19.3046 77.8439 19.3097 77.8408 19.3154C77.8389 19.319 77.8369 19.3228 77.8359 19.3266C77.8234 19.3592 77.8108 19.3592 77.8033 19.3266C77.8014 19.3154 77.8051 19.3029 77.8092 19.2889ZM21.3057 19.3542C21.3057 18.978 21.105 18.7999 20.7513 18.7999H19.7454V16.3314H22.7907C23.9748 16.3314 24.4765 16.8608 24.4765 18.0172V23.9323C24.4765 25.4927 24.8804 26.5488 26.4658 26.5488C28.7811 26.5488 30.0655 24.5093 30.0655 22.219V16.3289H33.2614V25.9191C33.2614 26.2728 33.4621 26.4735 33.8158 26.4735H34.8217V29.1677H31.8767C30.7679 29.1677 30.191 28.6384 30.191 27.7328V27.3791C30.191 27.0781 30.216 26.7996 30.216 26.7996H30.1659C29.5613 28.1342 27.9508 29.4687 25.7358 29.4687C22.9914 29.4687 21.3057 28.084 21.3057 24.5871V19.3542ZM35.1204 18.8774H36.7836V24.4764C36.7836 28.7886 40.3407 29.3179 42.1318 29.3179C42.7113 29.3179 43.1152 29.2427 43.1152 29.2427V26.4431C43.1152 26.4431 42.8894 26.4933 42.5357 26.4933C41.6527 26.4933 39.9895 26.1898 39.9895 24.0726V18.8774H42.9145V16.3312H39.9895V12.8242H36.8614V16.3312H35.1204V18.8774Z" fill="#C33400"/>
<path d="M77.8459 19.2888C77.8459 19.2888 77.871 19.3064 77.8785 19.3164C77.881 19.3214 77.8735 19.334 77.871 19.3415C77.8585 19.3716 77.8434 19.3716 77.8384 19.3415C77.8359 19.3264 77.8434 19.3089 77.8484 19.2888H77.8459Z" fill="#C33400"/>
</svg>
