<svg width="41" height="40" viewBox="0 0 41 40" fill="none" xmlns="http://www.w3.org/2000/svg">
<rect x="0.25" width="40" height="40" rx="20" fill="#E0E6EB"/>
<g clip-path="url(#clip0_3_3087)">
<path d="M20.25 23C21.9069 23 23.25 21.6569 23.25 20C23.25 18.3431 21.9069 17 20.25 17C18.5931 17 17.25 18.3431 17.25 20C17.25 21.6569 18.5931 23 20.25 23Z" stroke="#0E202F" stroke-width="2" stroke-linecap="round" stroke-linejoin="round"/>
<path d="M27.65 23C27.5169 23.3016 27.4772 23.6362 27.536 23.9606C27.5948 24.285 27.7495 24.5843 27.98 24.82L28.04 24.88C28.226 25.0657 28.3735 25.2863 28.4741 25.5291C28.5748 25.7719 28.6266 26.0321 28.6266 26.295C28.6266 26.5578 28.5748 26.8181 28.4741 27.0609C28.3735 27.3036 28.226 27.5242 28.04 27.71C27.8543 27.8959 27.6337 28.0434 27.3909 28.1441C27.1481 28.2447 26.8878 28.2965 26.625 28.2965C26.3622 28.2965 26.1019 28.2447 25.8591 28.1441C25.6163 28.0434 25.3957 27.8959 25.21 27.71L25.15 27.65C24.9143 27.4194 24.615 27.2648 24.2906 27.206C23.9662 27.1471 23.6316 27.1869 23.33 27.32C23.0342 27.4467 22.782 27.6572 22.6043 27.9255C22.4266 28.1938 22.3313 28.5082 22.33 28.83V29C22.33 29.5304 22.1193 30.0391 21.7442 30.4142C21.3691 30.7893 20.8604 31 20.33 31C19.7996 31 19.2909 30.7893 18.9158 30.4142C18.5407 30.0391 18.33 29.5304 18.33 29V28.91C18.3223 28.579 18.2151 28.258 18.0225 27.9887C17.8299 27.7194 17.5607 27.5143 17.25 27.4C16.9484 27.2669 16.6138 27.2271 16.2894 27.286C15.965 27.3448 15.6657 27.4994 15.43 27.73L15.37 27.79C15.1843 27.9759 14.9637 28.1234 14.7209 28.2241C14.4781 28.3247 14.2178 28.3765 13.955 28.3765C13.6922 28.3765 13.4319 28.3247 13.1891 28.2241C12.9463 28.1234 12.7257 27.9759 12.54 27.79C12.354 27.6042 12.2065 27.3836 12.1059 27.1409C12.0052 26.8981 11.9534 26.6378 11.9534 26.375C11.9534 26.1121 12.0052 25.8519 12.1059 25.6091C12.2065 25.3663 12.354 25.1457 12.54 24.96L12.6 24.9C12.8305 24.6643 12.9852 24.365 13.044 24.0406C13.1028 23.7162 13.0631 23.3816 12.93 23.08C12.8032 22.7842 12.5928 22.532 12.3245 22.3543C12.0562 22.1766 11.7418 22.0813 11.42 22.08H11.25C10.7196 22.08 10.2109 21.8693 9.83579 21.4942C9.46071 21.1191 9.25 20.6104 9.25 20.08C9.25 19.5495 9.46071 19.0408 9.83579 18.6658C10.2109 18.2907 10.7196 18.08 11.25 18.08H11.34C11.671 18.0722 11.992 17.9651 12.2613 17.7725C12.5306 17.5799 12.7357 17.3107 12.85 17C12.9831 16.6984 13.0228 16.3638 12.964 16.0394C12.9052 15.715 12.7505 15.4156 12.52 15.18L12.46 15.12C12.274 14.9342 12.1265 14.7136 12.0259 14.4708C11.9252 14.2281 11.8734 13.9678 11.8734 13.705C11.8734 13.4421 11.9252 13.1819 12.0259 12.9391C12.1265 12.6963 12.274 12.4757 12.46 12.29C12.6457 12.104 12.8663 11.9565 13.1091 11.8558C13.3519 11.7552 13.6122 11.7034 13.875 11.7034C14.1378 11.7034 14.3981 11.7552 14.6409 11.8558C14.8837 11.9565 15.1043 12.104 15.29 12.29L15.35 12.35C15.5857 12.5805 15.885 12.7352 16.2094 12.794C16.5338 12.8528 16.8684 12.8131 17.17 12.68H17.25C17.5458 12.5532 17.798 12.3427 17.9757 12.0744C18.1534 11.8061 18.2487 11.4918 18.25 11.17V11C18.25 10.4695 18.4607 9.96083 18.8358 9.58576C19.2109 9.21068 19.7196 8.99997 20.25 8.99997C20.7804 8.99997 21.2891 9.21068 21.6642 9.58576C22.0393 9.96083 22.25 10.4695 22.25 11V11.09C22.2513 11.4118 22.3466 11.7261 22.5243 11.9944C22.702 12.2627 22.9542 12.4732 23.25 12.6C23.5516 12.7331 23.8862 12.7728 24.2106 12.714C24.535 12.6552 24.8343 12.5005 25.07 12.27L25.13 12.21C25.3157 12.024 25.5363 11.8765 25.7791 11.7759C26.0219 11.6752 26.2822 11.6234 26.545 11.6234C26.8078 11.6234 27.0681 11.6752 27.3109 11.7759C27.5537 11.8765 27.7743 12.024 27.96 12.21C28.146 12.3957 28.2935 12.6163 28.3941 12.8591C28.4948 13.1019 28.5466 13.3621 28.5466 13.625C28.5466 13.8878 28.4948 14.1481 28.3941 14.3909C28.2935 14.6336 28.146 14.8542 27.96 15.04L27.9 15.1C27.6695 15.3356 27.5148 15.635 27.456 15.9594C27.3972 16.2838 27.4369 16.6184 27.57 16.92V17C27.6968 17.2957 27.9072 17.548 28.1755 17.7257C28.4438 17.9033 28.7582 17.9987 29.08 18H29.25C29.7804 18 30.2891 18.2107 30.6642 18.5858C31.0393 18.9608 31.25 19.4695 31.25 20C31.25 20.5304 31.0393 21.0391 30.6642 21.4142C30.2891 21.7893 29.7804 22 29.25 22H29.16C28.8382 22.0013 28.5238 22.0966 28.2555 22.2743C27.9872 22.452 27.7768 22.7042 27.65 23V23Z" stroke="#0E202F" stroke-width="2" stroke-linecap="round" stroke-linejoin="round"/>
</g>
<defs>
<clipPath id="clip0_3_3087">
<rect width="24" height="24" fill="white" transform="translate(8.25 8)"/>
</clipPath>
</defs>
</svg>
