<svg width="127" height="32" viewBox="0 0 127 32" fill="none" xmlns="http://www.w3.org/2000/svg">
<g clip-path="url(#clip0_31_16680)">
<path d="M46.5942 0.0175781H0.00787354V31.6511H46.5942V0.0175781Z" fill="white"/>
<path d="M45.6972 0.884277H0.903503V30.7473H45.6972V0.884277Z" fill="#034EA2"/>
<path d="M22.3464 7.39168L23.2909 6.70145L24.2354 7.39168L23.8769 6.275L24.8372 5.58635H23.6526L23.2909 4.45703L22.9292 5.58635H21.7462L22.7049 6.275L22.3464 7.39168Z" fill="#FFF200"/>
<path d="M17.4547 8.70467L18.3992 8.01602L19.3437 8.70467L18.9852 7.58957L19.9439 6.90092H18.7609L18.3992 5.77002L18.0359 6.90092H16.8545L17.8132 7.58957L17.4547 8.70467Z" fill="#FFF200"/>
<path d="M14.8201 9.35693L14.4584 10.4878H13.2754L14.2341 11.1765L13.8756 12.2932L14.8201 11.6029L15.7646 12.2932L15.4061 11.1765L16.3648 10.4878H15.1818L14.8201 9.35693Z" fill="#FFF200"/>
<path d="M13.5076 16.4882L14.4521 17.1784L14.0936 16.0617L15.0523 15.3731H13.8693L13.5076 14.2422L13.1459 15.3747L11.9613 15.3731L12.9216 16.0617L12.5615 17.1784L13.5076 16.4882Z" fill="#FFF200"/>
<path d="M15.1818 20.2725L14.8201 19.1416L14.4584 20.2741L13.2754 20.2725L14.2341 20.9627L13.8756 22.0778L14.8201 21.386L15.7646 22.0778L15.4061 20.9627L16.3648 20.2725H15.1818Z" fill="#FFF200"/>
<path d="M18.7688 23.8578L18.4055 22.7285L18.0454 23.8594L16.8608 23.8578L17.8211 24.5481L17.461 25.6632L18.4071 24.9745L19.3516 25.6632L18.9931 24.5481L19.9518 23.8578H18.7688Z" fill="#FFF200"/>
<path d="M23.6542 25.1578L23.2909 24.0269L22.9308 25.1593L21.7462 25.1578L22.7065 25.848L22.3464 26.9631L23.2925 26.2729L24.237 26.9631L23.8769 25.848L24.8372 25.1578H23.6542Z" fill="#FFF200"/>
<path d="M28.5394 23.8578L28.1777 22.7285L27.8144 23.8594L26.633 23.8578L27.5917 24.5481L27.2316 25.6632L28.1777 24.9745L29.1222 25.6632L28.7621 24.5481L29.7224 23.8578H28.5394Z" fill="#FFF200"/>
<path d="M32.1263 20.2725L31.763 19.1416L31.3998 20.2741L30.2183 20.2725L31.1786 20.9627L30.8185 22.0778L31.763 21.386L32.7091 22.0778L32.3474 20.9627L33.3078 20.2725H32.1263Z" fill="#FFF200"/>
<path d="M34.6077 15.3589H33.4247L33.0614 14.228L32.6997 15.3605L31.5167 15.3589L32.477 16.0492L32.1169 17.1643L33.0614 16.4724L34.0059 17.1643L33.6474 16.0492L34.6077 15.3589Z" fill="#FFF200"/>
<path d="M30.8185 12.2774L31.763 11.5872L32.7091 12.2774L32.3474 11.1623L33.3078 10.4737H32.1263L31.763 9.34277L31.3998 10.4753L30.2183 10.4737L31.1786 11.1623L30.8185 12.2774Z" fill="#FFF200"/>
<path d="M28.1903 5.77148L27.8287 6.90238L26.6456 6.9008L27.6044 7.59103L27.2458 8.70613L28.1919 8.01591L29.1365 8.70613L28.7763 7.59103L29.7366 6.9008H28.552L28.1903 5.77148Z" fill="#FFF200"/>
<path d="M51.2427 7.5529V0.882812H55.8152V2.01055H52.5963V3.59002H55.3809V4.71934H52.5963V7.5529H51.2427Z" fill="#034EA2"/>
<path d="M56.9161 2.06583V0.882812H58.1954V2.06583H56.9161ZM56.9161 7.5529V2.72131H58.1954V7.5529H56.9161Z" fill="#034EA2"/>
<path d="M63.902 7.55296H62.6227V5.08741C62.643 4.74805 62.6175 4.40751 62.5469 4.07497C62.4989 3.93066 62.4059 3.80554 62.2815 3.71801C62.1504 3.63043 61.9953 3.58573 61.8377 3.59007C61.6246 3.5871 61.4159 3.65059 61.2406 3.77171C61.0695 3.88796 60.9422 4.05808 60.8789 4.25503C60.7973 4.61758 60.7644 4.9894 60.781 5.36066V7.55296H59.5032V2.72137H60.691V3.43055C60.9532 3.06895 61.3298 2.80643 61.7597 2.68546C62.1897 2.5645 62.6479 2.59218 63.0602 2.76401C63.2641 2.84942 63.4429 2.98531 63.5798 3.15888C63.7004 3.31825 63.7859 3.50123 63.831 3.6959C63.8858 3.9794 63.9097 4.26804 63.902 4.55671V7.55296Z" fill="#034EA2"/>
<path d="M66.1544 4.19493L64.9935 3.98644C65.0886 3.57211 65.3269 3.20463 65.6664 2.94873C65.9823 2.72445 66.4561 2.6123 67.0879 2.6123C67.6581 2.6123 68.083 2.67864 68.3625 2.81448C68.6078 2.91969 68.8139 3.09923 68.9517 3.3278C69.0654 3.53629 69.1223 3.91694 69.1223 4.47292L69.108 5.96551C69.0999 6.28 69.1206 6.59456 69.1696 6.9053C69.2184 7.13014 69.2959 7.34779 69.4002 7.55288H68.1367C68.1019 7.46917 68.0624 7.34281 68.0135 7.17538C67.9914 7.09957 67.9771 7.04903 67.9677 7.01744C67.7652 7.21738 67.5274 7.37805 67.2664 7.49128C67.0165 7.59677 66.7479 7.65051 66.4766 7.64922C66.0467 7.68188 65.6212 7.54401 65.292 7.26541C65.1514 7.13539 65.0402 6.9768 64.9658 6.80028C64.8914 6.62377 64.8556 6.43339 64.8608 6.24192C64.8571 5.98472 64.9249 5.73154 65.0567 5.51063C65.1876 5.29692 65.3781 5.12617 65.6048 5.01941C65.9301 4.87839 66.2718 4.77864 66.622 4.72247C67.0451 4.65541 67.4612 4.54967 67.865 4.40658V4.27864C67.8743 4.18294 67.8627 4.08636 67.8311 3.99555C67.7995 3.90475 67.7485 3.82189 67.6818 3.75268C67.5617 3.64738 67.3327 3.59473 66.9947 3.59473C66.8077 3.58371 66.6218 3.63059 66.4624 3.72899C66.3145 3.84916 66.207 4.01178 66.1544 4.19493ZM67.865 5.23264C67.609 5.31125 67.3491 5.37662 67.0863 5.42849C66.8439 5.46585 66.6089 5.541 66.3898 5.6512C66.3137 5.69923 66.251 5.76565 66.2074 5.84432C66.1637 5.923 66.1407 6.01139 66.1402 6.10135C66.1389 6.18824 66.1558 6.27446 66.1898 6.35444C66.2238 6.43442 66.2741 6.50639 66.3377 6.56571C66.4049 6.63094 66.4845 6.68191 66.5719 6.71557C66.6593 6.74923 66.7526 6.76487 66.8462 6.76156C67.0851 6.75906 67.3167 6.67927 67.5065 6.53412C67.6525 6.431 67.7598 6.28199 67.8113 6.11082C67.8539 5.90576 67.8709 5.69619 67.8618 5.48693L67.865 5.23264Z" fill="#034EA2"/>
<path d="M74.7767 7.55296H73.4973V5.08741C73.5156 4.74777 73.488 4.40722 73.4152 4.07497C73.3677 3.9304 73.2746 3.80514 73.1499 3.71801C73.0187 3.63043 72.8637 3.58573 72.706 3.59007C72.4935 3.58711 72.2853 3.65061 72.1106 3.77171C71.9386 3.88705 71.811 4.05751 71.7489 4.25503C71.6664 4.61744 71.6334 4.98938 71.651 5.36066V7.55296H70.3716V2.72137H71.5593V3.43055C71.8216 3.06895 72.1981 2.80643 72.6281 2.68546C73.0581 2.5645 73.5163 2.59218 73.9285 2.76401C74.1349 2.84894 74.3164 2.98479 74.4561 3.15888C74.5754 3.31874 74.6604 3.50159 74.7056 3.6959C74.7605 3.9794 74.7843 4.26804 74.7767 4.55671V7.55296Z" fill="#034EA2"/>
<path d="M80.2875 4.14913L79.0239 4.37657C78.9985 4.15861 78.896 3.95692 78.7348 3.80796C78.5689 3.67581 78.3608 3.60795 78.1489 3.61685C78.0062 3.61225 77.8644 3.63966 77.7338 3.69706C77.6031 3.75445 77.487 3.84038 77.3939 3.94853C77.2043 4.16861 77.1096 4.53715 77.1096 5.05416C77.1096 5.62803 77.2059 6.0329 77.3986 6.26877C77.4911 6.3845 77.6095 6.47694 77.7441 6.53865C77.8788 6.60037 78.0261 6.62966 78.1741 6.62415C78.3916 6.6328 78.6043 6.55888 78.7696 6.41724C78.9519 6.22066 79.067 5.97119 79.0981 5.7049L80.3617 5.91813C80.2681 6.42701 80.0007 6.88759 79.6051 7.22119C79.2334 7.51497 78.737 7.66186 78.1157 7.66186C77.4092 7.66186 76.8458 7.43915 76.4257 6.99375C76.0055 6.54834 75.7949 5.93076 75.7939 5.14103C75.7939 4.34393 76.0045 3.7232 76.4257 3.27884C76.8469 2.83448 77.4171 2.6123 78.1362 2.6123C78.7238 2.6123 79.1929 2.73866 79.5404 2.99138C79.911 3.28365 80.1739 3.69097 80.2875 4.14913Z" fill="#034EA2"/>
<path d="M81.2557 2.06583V0.882812H82.535V2.06583H81.2557ZM81.2557 7.5529V2.72131H82.535V7.5529H81.2557Z" fill="#034EA2"/>
<path d="M84.8 4.19493L83.6407 3.98644C83.7353 3.57189 83.9736 3.20425 84.3135 2.94873C84.6294 2.72445 85.1032 2.6123 85.735 2.6123C86.3052 2.6123 86.7301 2.67864 87.0097 2.81448C87.2549 2.91969 87.461 3.09923 87.5988 3.3278C87.7125 3.53629 87.7694 3.91694 87.7694 4.47292L87.7552 5.96551C87.7471 6.28 87.7677 6.59456 87.8168 6.9053C87.8656 7.12992 87.9425 7.3475 88.0458 7.55288H86.7822C86.7344 7.42936 86.6932 7.30334 86.659 7.17538C86.6369 7.09957 86.6227 7.04903 86.6132 7.01744C86.4108 7.21738 86.173 7.37805 85.9119 7.49128C85.6621 7.59678 85.3934 7.65051 85.1222 7.64923C84.6923 7.68103 84.2671 7.54326 83.9376 7.26541C83.7975 7.13506 83.6867 6.97637 83.6126 6.79991C83.5386 6.62344 83.5029 6.43323 83.508 6.24192C83.5044 5.98118 83.5751 5.7248 83.7117 5.50273C83.8426 5.28902 84.0331 5.11827 84.2598 5.01151C84.5851 4.87049 84.9269 4.77074 85.277 4.71458C85.7001 4.64729 86.1161 4.54156 86.52 4.39868V4.27075C86.5293 4.17504 86.5178 4.07846 86.4861 3.98766C86.4545 3.89685 86.4036 3.81399 86.3368 3.74478C86.2168 3.64054 85.9862 3.58684 85.6497 3.58684C85.4627 3.57582 85.2769 3.6227 85.1175 3.72109C84.9655 3.84269 84.8546 4.00813 84.8 4.19493ZM86.5121 5.23264C86.2561 5.31125 85.9962 5.37662 85.7334 5.42849C85.491 5.46586 85.256 5.541 85.0369 5.6512C84.9608 5.69923 84.8981 5.76565 84.8545 5.84432C84.8109 5.923 84.7878 6.01139 84.7873 6.10135C84.7868 6.18828 84.8042 6.27439 84.8384 6.35429C84.8727 6.43419 84.923 6.50616 84.9864 6.56571C85.0539 6.63099 85.1338 6.68198 85.2215 6.71563C85.3091 6.74928 85.4027 6.7649 85.4965 6.76156C85.7354 6.75906 85.967 6.67927 86.1567 6.53412C86.3027 6.431 86.4101 6.28199 86.4616 6.11082C86.5042 5.90576 86.5212 5.69619 86.5121 5.48693V5.23264Z" fill="#034EA2"/>
<path d="M93.4602 7.5529H92.2724V6.84372C92.0936 7.10361 91.8532 7.31523 91.5727 7.45971C91.322 7.5907 91.0437 7.66001 90.7609 7.66188C90.4892 7.66201 90.2209 7.60204 89.9751 7.48626C89.7294 7.37048 89.5122 7.20175 89.3394 6.99219C88.9434 6.54362 88.7455 5.91921 88.7455 5.11894C88.7455 4.29973 88.9382 3.67689 89.3236 3.25043C89.5067 3.04549 89.7323 2.88283 89.9845 2.77374C90.2368 2.66464 90.5098 2.61172 90.7846 2.61865C91.0534 2.61972 91.3186 2.68067 91.561 2.79705C91.8033 2.91344 92.0167 3.08235 92.1856 3.2915V0.882812H93.4649L93.4602 7.5529ZM90.047 5.02575C90.047 5.54277 90.118 5.91605 90.2602 6.1456C90.3453 6.29991 90.4708 6.42809 90.6233 6.51632C90.7759 6.60456 90.9496 6.64949 91.1257 6.64629C91.2713 6.64544 91.4146 6.61109 91.5447 6.5459C91.6748 6.48071 91.7882 6.38643 91.876 6.27037C92.0866 6.02082 92.1919 5.64701 92.1919 5.14895C92.1919 4.59456 92.0908 4.20127 91.8918 3.95014C91.8011 3.83325 91.6843 3.73923 91.5507 3.6756C91.4171 3.61197 91.2705 3.5805 91.1226 3.5837C90.975 3.58141 90.8288 3.61313 90.6954 3.6764C90.562 3.73967 90.445 3.83279 90.3534 3.94856C90.1502 4.19285 90.048 4.55402 90.047 5.03207V5.02575Z" fill="#034EA2"/>
<path d="M94.4237 5.0687C94.4261 4.63832 94.5346 4.21516 94.7396 3.83672C94.9378 3.45057 95.2477 3.13301 95.6289 2.92537C96.0238 2.71307 96.4662 2.60438 96.9145 2.60947C97.2481 2.59745 97.5805 2.65484 97.8908 2.77801C98.201 2.90117 98.4822 3.08743 98.7167 3.32497C98.9491 3.56191 99.131 3.84347 99.2516 4.15267C99.3721 4.46187 99.4287 4.79229 99.418 5.12399C99.4284 5.46076 99.3705 5.79616 99.2478 6.10996C99.1251 6.42376 98.9402 6.70946 98.7041 6.94985C98.4729 7.18644 98.1953 7.37258 97.8887 7.49654C97.582 7.6205 97.2531 7.67959 96.9224 7.67009C96.4835 7.67069 96.0506 7.56788 95.6589 7.36999C95.2643 7.17804 94.9416 6.86474 94.738 6.47601C94.5182 6.04021 94.4102 5.55661 94.4237 5.0687ZM95.7347 5.1382C95.7347 5.61731 95.8484 5.98585 96.0759 6.24383C96.1807 6.36384 96.3099 6.46003 96.455 6.52594C96.6001 6.59184 96.7576 6.62594 96.9169 6.62594C97.0762 6.62594 97.2337 6.59184 97.3788 6.52594C97.5239 6.46003 97.6532 6.36384 97.758 6.24383C97.9844 5.98795 98.097 5.61941 98.096 5.1382C98.096 4.66436 97.9838 4.30108 97.758 4.04521C97.6532 3.9252 97.5239 3.82901 97.3788 3.7631C97.2337 3.69719 97.0762 3.66309 96.9169 3.66309C96.7576 3.66309 96.6001 3.69719 96.455 3.7631C96.3099 3.82901 96.1807 3.9252 96.0759 4.04521C95.8484 4.29161 95.7347 4.65804 95.7347 5.1382Z" fill="#034EA2"/>
<path d="M102.965 2.72139H104.156V3.43057C104.316 3.18509 104.532 2.98229 104.788 2.83985C105.056 2.6876 105.359 2.60911 105.666 2.6124C105.937 2.61125 106.205 2.66966 106.45 2.78348C106.696 2.8973 106.914 3.06375 107.088 3.27104C107.478 3.71119 107.674 4.32402 107.674 5.10954C107.674 5.91612 107.477 6.5437 107.083 6.99227C106.909 7.20323 106.689 7.37276 106.441 7.48858C106.193 7.60441 105.923 7.66363 105.649 7.66196C105.398 7.6658 105.15 7.61175 104.924 7.50401C104.667 7.36352 104.437 7.17848 104.245 6.95752V9.39148H102.965V2.72139ZM104.229 5.05584C104.229 5.59812 104.334 5.99931 104.545 6.25939C104.638 6.38074 104.757 6.47897 104.894 6.54639C105.031 6.6138 105.182 6.64856 105.335 6.64794C105.478 6.65003 105.619 6.61888 105.748 6.55693C105.877 6.49498 105.989 6.40394 106.077 6.29098C106.275 6.05196 106.373 5.6613 106.372 5.11902C106.372 4.61254 106.271 4.23662 106.067 3.99128C105.979 3.87575 105.864 3.7823 105.733 3.71819C105.602 3.65409 105.458 3.62106 105.312 3.62168C105.164 3.61933 105.017 3.65065 104.882 3.71328C104.747 3.77592 104.628 3.86826 104.534 3.98338C104.332 4.22557 104.231 4.58253 104.231 5.05426L104.229 5.05584Z" fill="#034EA2"/>
<path d="M108.397 5.06865C108.4 4.63826 108.508 4.2151 108.713 3.83666C108.911 3.45051 109.221 3.13296 109.602 2.92531C109.997 2.71301 110.44 2.60433 110.888 2.60942C111.221 2.59765 111.552 2.65486 111.861 2.77746C112.171 2.90006 112.451 3.08538 112.685 3.32176C112.918 3.55869 113.1 3.84026 113.22 4.14946C113.341 4.45866 113.397 4.78908 113.387 5.12077C113.399 5.45778 113.342 5.79368 113.22 6.10809C113.098 6.4225 112.913 6.70886 112.678 6.94979C112.446 7.18638 112.169 7.37253 111.862 7.49649C111.556 7.62045 111.227 7.67954 110.896 7.67003C110.457 7.67045 110.024 7.56765 109.632 7.36993C109.238 7.17798 108.915 6.86468 108.712 6.47595C108.492 6.04016 108.384 5.55655 108.397 5.06865ZM109.708 5.13814C109.708 5.61725 109.822 5.98579 110.049 6.24377C110.154 6.36378 110.283 6.45997 110.428 6.52588C110.574 6.59179 110.731 6.62589 110.89 6.62589C111.05 6.62589 111.207 6.59179 111.352 6.52588C111.497 6.45997 111.627 6.36378 111.731 6.24377C111.958 5.9879 112.07 5.61936 112.069 5.13814C112.069 4.6643 111.957 4.30103 111.731 4.04515C111.627 3.92514 111.497 3.82895 111.352 3.76304C111.207 3.69714 111.05 3.66304 110.89 3.66304C110.731 3.66304 110.574 3.69714 110.428 3.76304C110.283 3.82895 110.154 3.92514 110.049 4.04515C109.822 4.29155 109.708 4.65799 109.708 5.13814Z" fill="#034EA2"/>
<path d="M115.617 7.55318H114.338V2.72159H115.525V3.40866C115.662 3.15928 115.848 2.94092 116.073 2.7674C116.238 2.66193 116.43 2.60703 116.626 2.60945C116.923 2.6113 117.215 2.69431 117.468 2.84953L117.073 3.96463C116.897 3.83892 116.688 3.76656 116.471 3.75614C116.307 3.75138 116.147 3.80326 116.017 3.90304C115.866 4.04715 115.763 4.23408 115.723 4.43847C115.652 4.69856 115.617 5.23926 115.617 6.06059V7.55318Z" fill="#034EA2"/>
<path d="M51.2237 18.7355V12.0654H52.5031V18.7355H51.2237Z" fill="#034EA2"/>
<path d="M54.7696 15.3775L53.6087 15.1627C53.7045 14.7486 53.9426 14.3814 54.2816 14.125C54.5975 13.9007 55.0713 13.7886 55.7031 13.7886C56.2733 13.7886 56.6981 13.8549 56.9777 13.9907C57.2234 14.0953 57.4296 14.275 57.5669 14.5041C57.6806 14.7126 57.7374 15.0932 57.7374 15.6492L57.7232 17.1418C57.7146 17.4589 57.7353 17.7761 57.7848 18.0895C57.8345 18.3141 57.912 18.5316 58.0154 18.737H56.7519C56.7187 18.6518 56.6776 18.527 56.6287 18.3596C56.6081 18.2837 56.5923 18.2332 56.5828 18.2095C56.3807 18.4091 56.1435 18.5697 55.8831 18.6833C55.6307 18.7895 55.3594 18.8432 55.0855 18.8413C54.6559 18.8658 54.2339 18.7206 53.9104 18.4369C53.77 18.3068 53.659 18.1482 53.5849 17.9717C53.5108 17.7952 53.4753 17.6048 53.4808 17.4135C53.4765 17.1564 53.5438 16.9032 53.6751 16.6822C53.8065 16.4683 53.9975 16.2976 54.2247 16.1909C54.5494 16.0497 54.8906 15.9499 55.2403 15.894C55.6634 15.8269 56.0795 15.7212 56.4833 15.5781V15.4502C56.4925 15.3546 56.4811 15.2582 56.4497 15.1674C56.4184 15.0767 56.3679 14.9937 56.3017 14.9242C56.1806 14.8189 55.9516 14.7663 55.6146 14.7663C55.4276 14.755 55.2417 14.8019 55.0824 14.9005C54.9308 15.0229 54.8215 15.1897 54.7696 15.3775ZM56.4802 16.4152C56.2242 16.4938 55.9643 16.5592 55.7015 16.6111C55.4597 16.6486 55.2252 16.7238 55.0065 16.8338C54.93 16.8814 54.8668 16.9477 54.8228 17.0264C54.7789 17.1052 54.7557 17.1938 54.7554 17.2839C54.7545 17.3711 54.7718 17.4574 54.8064 17.5374C54.8409 17.6174 54.8919 17.6893 54.956 17.7483C55.0232 17.8135 55.1029 17.8645 55.1903 17.8982C55.2777 17.9318 55.371 17.9475 55.4646 17.9442C55.7035 17.9416 55.9351 17.8619 56.1248 17.7167C56.2708 17.6136 56.3781 17.4646 56.4296 17.2934C56.4729 17.0858 56.4899 16.8735 56.4802 16.6616V16.4152Z" fill="#034EA2"/>
<path d="M61.585 12.0654H62.9323V15.6777C62.9205 16.0501 62.9374 16.4229 62.9828 16.7928C63.0331 17.0553 63.1795 17.2896 63.3935 17.4498C63.6549 17.6286 63.9681 17.7158 64.2843 17.6978C64.5905 17.72 64.8951 17.6376 65.1483 17.464C65.3332 17.3232 65.4584 17.118 65.4989 16.8891C65.5469 16.5131 65.5664 16.134 65.5574 15.7551V12.0654H66.9047V15.5687C66.9218 16.1368 66.8853 16.7053 66.7957 17.2666C66.7337 17.575 66.5952 17.8629 66.3929 18.1037C66.1767 18.3452 65.9059 18.5314 65.6032 18.6471C65.1924 18.7955 64.7571 18.8641 64.3206 18.8492C63.6825 18.8492 63.1992 18.7761 62.8707 18.6297C62.5696 18.5018 62.3024 18.3055 62.0904 18.0563C61.9094 17.8417 61.7802 17.5882 61.7129 17.3156C61.6093 16.758 61.5648 16.1909 61.5803 15.624L61.585 12.0654Z" fill="#034EA2"/>
<path d="M72.7107 18.7354H71.4314V16.2683C71.4497 15.9287 71.422 15.5881 71.3492 15.2559C71.3018 15.1113 71.2086 14.986 71.0839 14.8989C70.9529 14.8111 70.7977 14.7664 70.6401 14.771C70.4275 14.768 70.2193 14.8315 70.0446 14.9526C69.8726 15.0679 69.7451 15.2384 69.6829 15.4359C69.6004 15.7983 69.5674 16.1703 69.585 16.5415V18.7291H68.3056V13.8991H69.4965V14.6083C69.7587 14.2467 70.1353 13.9842 70.5653 13.8632C70.9952 13.7422 71.4534 13.7699 71.8657 13.9417C72.0726 14.0244 72.2551 14.1581 72.3964 14.3303C72.5164 14.4898 72.6014 14.6728 72.646 14.8673C72.7009 15.1508 72.7247 15.4395 72.7171 15.7281L72.7107 18.7354Z" fill="#034EA2"/>
<path d="M74.0075 13.2485V12.0654H75.2853V13.2485H74.0075ZM74.0075 18.7355V13.8992H75.2853V18.7308L74.0075 18.7355Z" fill="#034EA2"/>
<path d="M76.3009 16.251C76.3025 15.8205 76.411 15.3971 76.6168 15.019C76.8145 14.6325 77.1245 14.3148 77.506 14.1076C77.9009 13.8951 78.3433 13.7864 78.7917 13.7917C79.1242 13.78 79.4556 13.8372 79.765 13.9598C80.0743 14.0824 80.3549 14.2677 80.5891 14.5041C80.821 14.7413 81.0025 15.023 81.1227 15.3321C81.243 15.6413 81.2995 15.9715 81.2888 16.3031C81.2994 16.6382 81.2422 16.9719 81.1206 17.2843C80.999 17.5967 80.8155 17.8813 80.5812 18.1211C80.3503 18.3579 80.0727 18.5442 79.766 18.6682C79.4593 18.7921 79.1303 18.8511 78.7996 18.8413C78.3607 18.8415 77.9279 18.7388 77.536 18.5412C77.1454 18.3521 76.8247 18.0441 76.6199 17.6614C76.3973 17.2254 76.2876 16.7404 76.3009 16.251ZM77.6118 16.3205C77.6118 16.7985 77.7256 17.1671 77.953 17.4261C78.0577 17.5461 78.1868 17.6422 78.3318 17.7081C78.4767 17.774 78.6341 17.8081 78.7933 17.8081C78.9525 17.8081 79.1099 17.774 79.2548 17.7081C79.3998 17.6422 79.5289 17.5461 79.6336 17.4261C79.86 17.1702 79.9732 16.8017 79.9732 16.3205C79.9732 15.8466 79.8594 15.4833 79.6336 15.2275C79.5289 15.1075 79.3998 15.0113 79.2548 14.9454C79.1099 14.8795 78.9525 14.8454 78.7933 14.8454C78.6341 14.8454 78.4767 14.8795 78.3318 14.9454C78.1868 15.0113 78.0577 15.1075 77.953 15.2275C77.7256 15.4786 77.6118 15.8403 77.6118 16.3205ZM78.1473 13.3116L78.7791 11.9517H80.2132L78.9607 13.3116H78.1473Z" fill="#034EA2"/>
<path d="M86.6843 18.7354H85.4049V16.2683C85.4226 15.9287 85.3955 15.5883 85.3244 15.2559C85.2758 15.1114 85.1823 14.9864 85.0575 14.8989C84.9264 14.8111 84.7713 14.7664 84.6136 14.771C84.4011 14.768 84.1929 14.8315 84.0182 14.9526C83.8462 15.0679 83.7186 15.2384 83.6565 15.4359C83.5739 15.7983 83.541 16.1703 83.5585 16.5415V18.7291H82.2792V13.8991H83.4669V14.6083C83.7291 14.2467 84.1057 13.9842 84.5357 13.8632C84.9656 13.7422 85.4239 13.7699 85.8361 13.9417C86.043 14.0244 86.2255 14.1581 86.3668 14.3303C86.4868 14.4898 86.5718 14.6728 86.6164 14.8673C86.6713 15.1508 86.6951 15.4395 86.6875 15.7281L86.6843 18.7354Z" fill="#034EA2"/>
<path d="M90.5792 18.7355V12.0654H95.5245V13.1932H91.9249V14.6731H95.2734V15.7946H91.9249V17.6109H95.6525V18.7339L90.5792 18.7355Z" fill="#034EA2"/>
<path d="M99.966 18.7357V18.006C99.7897 18.2642 99.5512 18.4738 99.2726 18.6157C98.9925 18.7625 98.6808 18.839 98.3644 18.8384C98.0598 18.8432 97.7591 18.7698 97.491 18.6252C97.243 18.4929 97.0463 18.2817 96.9319 18.025C96.8019 17.6841 96.7428 17.3202 96.7581 16.9557V13.8994H98.0375V16.1201C98.0375 16.7993 98.0607 17.2152 98.107 17.3679C98.1497 17.5149 98.2403 17.6433 98.3644 17.7328C98.504 17.8269 98.6701 17.8739 98.8383 17.867C99.0476 17.8697 99.2526 17.8068 99.4243 17.687C99.5874 17.5804 99.7119 17.4243 99.7796 17.2416C99.8428 17.0631 99.876 16.6287 99.876 15.9369V13.8994H101.154V18.731L99.966 18.7357Z" fill="#034EA2"/>
<path d="M103.701 18.7357H102.424V13.8993H103.613V14.5864C103.749 14.3366 103.935 14.1182 104.161 13.9452C104.326 13.8394 104.518 13.7845 104.714 13.7872C105.011 13.7892 105.302 13.8722 105.556 14.0273L105.159 15.1424C104.983 15.0166 104.775 14.9442 104.559 14.9339C104.395 14.9291 104.234 14.981 104.104 15.0808C103.954 15.2249 103.851 15.4118 103.81 15.6162C103.739 15.8732 103.703 16.4128 103.703 17.2352L103.701 18.7357Z" fill="#034EA2"/>
<path d="M105.809 16.2509C105.811 15.8205 105.919 15.3974 106.124 15.0189C106.323 14.6328 106.632 14.3152 107.014 14.1076C107.409 13.8953 107.851 13.7866 108.299 13.7917C108.631 13.7814 108.961 13.8397 109.269 13.9628C109.577 14.0859 109.856 14.2712 110.089 14.5072C110.321 14.7441 110.503 15.0257 110.624 15.3349C110.744 15.6441 110.801 15.9745 110.79 16.3062C110.801 16.6408 110.745 16.9741 110.624 17.2864C110.504 17.5988 110.322 17.8837 110.089 18.1242C109.858 18.3607 109.58 18.5469 109.273 18.6709C108.967 18.7948 108.638 18.8539 108.307 18.8444C107.868 18.845 107.435 18.7422 107.044 18.5443C106.652 18.3555 106.331 18.0475 106.126 17.6645C105.904 17.2271 105.795 16.7412 105.809 16.2509ZM107.119 16.3204C107.119 16.7985 107.233 17.167 107.461 17.426C107.565 17.546 107.695 17.6422 107.84 17.7081C107.985 17.7741 108.142 17.8081 108.302 17.8081C108.461 17.8081 108.619 17.7741 108.764 17.7081C108.909 17.6422 109.038 17.546 109.143 17.426C109.369 17.1702 109.482 16.8016 109.481 16.3204C109.481 15.8466 109.369 15.4833 109.143 15.2274C109.038 15.1074 108.909 15.0112 108.764 14.9453C108.619 14.8794 108.461 14.8453 108.302 14.8453C108.142 14.8453 107.985 14.8794 107.84 14.9453C107.695 15.0112 107.565 15.1074 107.461 15.2274C107.233 15.4786 107.119 15.8403 107.119 16.3204Z" fill="#034EA2"/>
<path d="M111.76 13.8991H112.952V14.6083C113.112 14.3628 113.329 14.16 113.584 14.0176C113.852 13.8653 114.155 13.7868 114.462 13.7901C114.733 13.7886 115.001 13.8468 115.247 13.9606C115.492 14.0745 115.71 14.2412 115.884 14.4488C116.276 14.8889 116.471 15.5018 116.471 16.2873C116.471 17.0939 116.274 17.7209 115.879 18.1684C115.705 18.38 115.487 18.55 115.239 18.6662C114.991 18.7823 114.72 18.8416 114.447 18.8397C114.196 18.8434 113.947 18.7893 113.72 18.6817C113.462 18.5414 113.23 18.3564 113.036 18.1353V20.5692H111.757L111.76 13.8991ZM113.024 16.2336C113.024 16.7759 113.129 17.177 113.339 17.4371C113.432 17.5586 113.552 17.6569 113.689 17.7243C113.826 17.7917 113.976 17.8264 114.129 17.8257C114.272 17.8276 114.413 17.7964 114.542 17.7345C114.671 17.6726 114.784 17.5816 114.871 17.4687C115.069 17.2307 115.168 16.8401 115.167 16.2968C115.167 15.7892 115.065 15.4133 114.862 15.169C114.773 15.0535 114.659 14.96 114.528 14.8959C114.397 14.8318 114.253 14.7988 114.107 14.7994C113.958 14.7971 113.811 14.8284 113.676 14.891C113.541 14.9537 113.422 15.046 113.328 15.1611C113.129 15.4075 113.025 15.7645 113.025 16.2383L113.024 16.2336Z" fill="#034EA2"/>
<path d="M120.287 17.1987L121.562 17.4119C121.425 17.8421 121.153 18.2162 120.785 18.4781C120.392 18.7344 119.929 18.8624 119.46 18.8445C118.617 18.8445 117.996 18.5702 117.594 18.0216C117.262 17.5317 117.096 16.9482 117.121 16.3569C117.121 15.5555 117.331 14.928 117.752 14.4741C117.952 14.2542 118.196 14.0798 118.468 13.9626C118.741 13.8454 119.035 13.7882 119.332 13.795C120.051 13.795 120.619 14.0324 121.035 14.5073C121.45 14.9822 121.649 15.7093 121.63 16.6886H118.427C118.417 17.0126 118.53 17.3283 118.743 17.5731C118.836 17.6754 118.949 17.7566 119.076 17.8111C119.203 17.8656 119.341 17.8922 119.479 17.8889C119.66 17.896 119.839 17.8402 119.984 17.731C120.138 17.5894 120.244 17.4034 120.287 17.1987ZM120.36 15.9051C120.373 15.5982 120.271 15.2974 120.074 15.0617C119.987 14.9692 119.881 14.8957 119.764 14.846C119.646 14.7963 119.52 14.7714 119.392 14.7729C119.265 14.7744 119.139 14.8022 119.023 14.8546C118.907 14.9071 118.803 14.9829 118.717 15.0775C118.526 15.3092 118.43 15.6052 118.449 15.9051H120.36Z" fill="#034EA2"/>
<path d="M123.628 15.3775L122.467 15.1627C122.563 14.7486 122.801 14.3814 123.14 14.125C123.456 13.9007 123.93 13.7886 124.561 13.7886C125.132 13.7886 125.557 13.8549 125.836 13.9907C126.082 14.0953 126.288 14.275 126.425 14.5041C126.539 14.7126 126.596 15.0932 126.596 15.6492L126.582 17.1418C126.573 17.4589 126.594 17.7761 126.643 18.0895C126.693 18.3141 126.77 18.5316 126.874 18.737H125.61C125.577 18.6518 125.536 18.527 125.487 18.3596C125.467 18.2837 125.451 18.2332 125.441 18.2095C125.239 18.4091 125.002 18.5697 124.742 18.6833C124.492 18.7885 124.223 18.8422 123.952 18.8413C123.522 18.8658 123.1 18.7206 122.777 18.4369C122.636 18.3068 122.525 18.1482 122.451 17.9717C122.377 17.7952 122.342 17.6048 122.347 17.4135C122.343 17.1564 122.41 16.9032 122.541 16.6822C122.673 16.4683 122.864 16.2976 123.091 16.1909C123.416 16.0497 123.757 15.9499 124.107 15.894C124.53 15.8269 124.946 15.7212 125.35 15.5781V15.4502C125.359 15.3546 125.347 15.2582 125.316 15.1674C125.285 15.0767 125.234 14.9937 125.168 14.9242C125.047 14.8189 124.818 14.7663 124.481 14.7663C124.294 14.755 124.108 14.8019 123.949 14.9005C123.794 15.0218 123.682 15.1887 123.628 15.3775ZM125.339 16.4152C125.083 16.4938 124.823 16.5592 124.56 16.6111C124.318 16.6486 124.084 16.7238 123.865 16.8338C123.788 16.8814 123.725 16.9477 123.681 17.0264C123.637 17.1052 123.614 17.1938 123.614 17.2839C123.613 17.3711 123.63 17.4574 123.665 17.5374C123.699 17.6174 123.75 17.6893 123.814 17.7483C123.882 17.8135 123.961 17.8645 124.049 17.8982C124.136 17.9318 124.229 17.9475 124.323 17.9442C124.562 17.9416 124.793 17.8619 124.983 17.7167C125.129 17.6136 125.236 17.4646 125.288 17.2934C125.331 17.0858 125.348 16.8735 125.339 16.6616V16.4152Z" fill="#034EA2"/>
<path d="M51.2355 29.9465V24.1804H52.0182L55.0468 28.7075V24.1804H55.7784V29.9465H54.9957L51.9671 25.4154V29.9465H51.2355Z" fill="#58595B"/>
<path d="M59.8335 28.6013L60.5651 28.6918C60.4497 29.1192 60.236 29.4509 59.924 29.6869C59.612 29.9229 59.2134 30.0409 58.7283 30.0409C58.1173 30.0409 57.6322 29.8534 57.273 29.4784C56.9164 29.1009 56.7381 28.5725 56.7381 27.8933C56.7381 27.1906 56.919 26.6452 57.2809 26.2571C57.6427 25.869 58.1121 25.675 58.689 25.675C59.2475 25.675 59.7037 25.8651 60.0577 26.2453C60.4117 26.6255 60.5887 27.1604 60.5887 27.8501C60.5887 27.892 60.5874 27.955 60.5848 28.0389H57.4697C57.4959 28.4978 57.6257 28.8491 57.8591 29.093C58.0924 29.3368 58.3835 29.4588 58.7322 29.4588C58.9918 29.4588 59.2134 29.3906 59.397 29.2542C59.5805 29.1179 59.726 28.9003 59.8335 28.6013ZM57.509 27.4568H59.8414C59.8099 27.1054 59.7208 26.8419 59.5739 26.6662C59.3484 26.3935 59.0561 26.2571 58.6968 26.2571C58.3717 26.2571 58.0977 26.3659 57.8748 26.5836C57.6545 26.8012 57.5326 27.0923 57.509 27.4568Z" fill="#58595B"/>
<path d="M60.986 29.9465L62.5121 27.7753L61.1 25.7694H61.985L62.6261 26.7488C62.7468 26.9349 62.8438 27.091 62.9172 27.2168C63.0326 27.0438 63.1388 26.8904 63.2358 26.7566L63.9398 25.7694H64.7855L63.342 27.736L64.8956 29.9465H64.0264L63.1689 28.6485L62.9408 28.2985L61.8434 29.9465H60.986Z" fill="#58595B"/>
<path d="M67.0314 29.3132L67.1336 29.9386C66.9344 29.9806 66.756 30.0016 66.5987 30.0016C66.3417 30.0016 66.1425 29.9609 66.0009 29.8796C65.8593 29.7983 65.7596 29.6921 65.7019 29.561C65.6442 29.4273 65.6154 29.148 65.6154 28.7233V26.32H65.0962V25.7694H65.6154V24.7349L66.3195 24.3102V25.7694H67.0314V26.32H66.3195V28.7626C66.3195 28.9645 66.3313 29.0943 66.3549 29.152C66.3811 29.2097 66.4217 29.2556 66.4768 29.2896C66.5345 29.3237 66.6158 29.3408 66.7206 29.3408C66.7993 29.3408 66.9029 29.3316 67.0314 29.3132Z" fill="#58595B"/>
<path d="M70.5162 27.6849V27.0084L72.9588 27.0044V29.1441C72.5838 29.443 72.197 29.6685 71.7985 29.8206C71.3999 29.9701 70.9908 30.0448 70.5713 30.0448C70.0049 30.0448 69.4897 29.9242 69.0255 29.683C68.564 29.4391 68.2153 29.0877 67.9793 28.6289C67.7433 28.17 67.6253 27.6573 67.6253 27.091C67.6253 26.5298 67.742 26.0067 67.9754 25.5216C68.2113 25.0339 68.5496 24.672 68.9901 24.436C69.4307 24.2 69.938 24.082 70.5123 24.082C70.9292 24.082 71.3055 24.1502 71.6411 24.2866C71.9794 24.4203 72.2442 24.6078 72.4356 24.849C72.6271 25.0903 72.7726 25.4049 72.8722 25.793L72.1839 25.9818C72.0974 25.6881 71.9899 25.4574 71.8614 25.2895C71.7329 25.1217 71.5494 24.988 71.3107 24.8883C71.0721 24.7861 70.8073 24.7349 70.5162 24.7349C70.1675 24.7349 69.8659 24.7887 69.6116 24.8962C69.3572 25.0011 69.1514 25.1401 68.9941 25.3131C68.8394 25.4862 68.7187 25.6763 68.6322 25.8835C68.4854 26.2401 68.4119 26.6268 68.4119 27.0438C68.4119 27.5577 68.4998 27.9877 68.6755 28.3339C68.8538 28.68 69.1121 28.937 69.4503 29.1048C69.7886 29.2726 70.1478 29.3565 70.528 29.3565C70.8584 29.3565 71.1809 29.2936 71.4956 29.1677C71.8103 29.0392 72.0489 28.9029 72.2115 28.7587V27.6849H70.5162Z" fill="#58595B"/>
<path d="M76.8566 28.6013L77.5882 28.6918C77.4728 29.1192 77.2591 29.4509 76.9471 29.6869C76.635 29.9229 76.2365 30.0409 75.7514 30.0409C75.1404 30.0409 74.6553 29.8534 74.2961 29.4784C73.9395 29.1009 73.7612 28.5725 73.7612 27.8933C73.7612 27.1906 73.9421 26.6452 74.3039 26.2571C74.6658 25.869 75.1352 25.675 75.712 25.675C76.2706 25.675 76.7268 25.8651 77.0808 26.2453C77.4348 26.6255 77.6118 27.1604 77.6118 27.8501C77.6118 27.892 77.6105 27.955 77.6079 28.0389H74.4927C74.519 28.4978 74.6488 28.8491 74.8821 29.093C75.1155 29.3368 75.4066 29.4588 75.7553 29.4588C76.0149 29.4588 76.2365 29.3906 76.42 29.2542C76.6036 29.1179 76.7491 28.9003 76.8566 28.6013ZM74.5321 27.4568H76.8645C76.833 27.1054 76.7439 26.8419 76.597 26.6662C76.3715 26.3935 76.0791 26.2571 75.7199 26.2571C75.3948 26.2571 75.1207 26.3659 74.8979 26.5836C74.6776 26.8012 74.5557 27.0923 74.5321 27.4568Z" fill="#58595B"/>
<path d="M78.481 29.9465V25.7694H79.1182V26.3633C79.425 25.9044 79.8682 25.675 80.4477 25.675C80.6994 25.675 80.9301 25.7209 81.1399 25.8127C81.3523 25.9018 81.5109 26.0198 81.6158 26.1667C81.7207 26.3135 81.7941 26.4879 81.8361 26.6898C81.8623 26.8209 81.8754 27.0503 81.8754 27.3781V29.9465H81.1674V27.4056C81.1674 27.1172 81.1399 26.9022 81.0848 26.7606C81.0298 26.6164 80.9315 26.5023 80.7899 26.4184C80.6509 26.3318 80.487 26.2886 80.2982 26.2886C79.9967 26.2886 79.7357 26.3843 79.5155 26.5757C79.2978 26.7671 79.189 27.1303 79.189 27.6652V29.9465H78.481Z" fill="#58595B"/>
<path d="M85.8244 28.6013L86.556 28.6918C86.4406 29.1192 86.2269 29.4509 85.9149 29.6869C85.6028 29.9229 85.2043 30.0409 84.7192 30.0409C84.1082 30.0409 83.6231 29.8534 83.2639 29.4784C82.9072 29.1009 82.7289 28.5725 82.7289 27.8933C82.7289 27.1906 82.9099 26.6452 83.2717 26.2571C83.6336 25.869 84.103 25.675 84.6798 25.675C85.2383 25.675 85.6946 25.8651 86.0486 26.2453C86.4026 26.6255 86.5796 27.1604 86.5796 27.8501C86.5796 27.892 86.5783 27.955 86.5757 28.0389H83.4605C83.4867 28.4978 83.6165 28.8491 83.8499 29.093C84.0833 29.3368 84.3743 29.4588 84.7231 29.4588C84.9827 29.4588 85.2043 29.3906 85.3878 29.2542C85.5714 29.1179 85.7169 28.9003 85.8244 28.6013ZM83.4999 27.4568H85.8323C85.8008 27.1054 85.7117 26.8419 85.5648 26.6662C85.3393 26.3935 85.0469 26.2571 84.6877 26.2571C84.3625 26.2571 84.0885 26.3659 83.8657 26.5836C83.6454 26.8012 83.5235 27.0923 83.4999 27.4568Z" fill="#58595B"/>
<path d="M87.441 29.9465V25.7694H88.0782V26.4026C88.2407 26.1063 88.3902 25.911 88.5265 25.8166C88.6655 25.7222 88.8176 25.675 88.9828 25.675C89.2214 25.675 89.464 25.751 89.7104 25.9031L89.4666 26.56C89.2935 26.4577 89.1205 26.4066 88.9474 26.4066C88.7927 26.4066 88.6537 26.4538 88.5305 26.5482C88.4072 26.64 88.3194 26.7684 88.2669 26.9336C88.1883 27.1854 88.1489 27.4607 88.1489 27.7596V29.9465H87.441Z" fill="#58595B"/>
<path d="M92.857 29.4312C92.5948 29.6541 92.3418 29.8115 92.0979 29.9032C91.8567 29.995 91.5971 30.0409 91.3191 30.0409C90.8603 30.0409 90.5076 29.9295 90.2611 29.7066C90.0146 29.4811 89.8914 29.1939 89.8914 28.8452C89.8914 28.6407 89.9373 28.4545 90.029 28.2867C90.1234 28.1162 90.2454 27.9799 90.3948 27.8776C90.5469 27.7753 90.7174 27.698 90.9062 27.6455C91.0451 27.6088 91.2549 27.5734 91.5355 27.5394C92.1071 27.4712 92.528 27.3899 92.798 27.2955C92.8007 27.1985 92.802 27.1369 92.802 27.1106C92.802 26.8222 92.7351 26.619 92.6014 26.501C92.4205 26.341 92.1517 26.261 91.7951 26.261C91.4621 26.261 91.2156 26.32 91.0556 26.438C90.8983 26.5534 90.7816 26.7593 90.7056 27.0556L90.0133 26.9612C90.0762 26.6649 90.1798 26.4262 90.324 26.2453C90.4683 26.0618 90.6767 25.9215 90.9494 25.8245C91.2221 25.7248 91.5381 25.675 91.8973 25.675C92.2539 25.675 92.5437 25.7169 92.7666 25.8009C92.9895 25.8848 93.1533 25.991 93.2582 26.1195C93.3631 26.2453 93.4365 26.4053 93.4785 26.5993C93.5021 26.7199 93.5139 26.9376 93.5139 27.2522V28.1962C93.5139 28.8544 93.5283 29.2713 93.5572 29.447C93.5886 29.62 93.6489 29.7865 93.7381 29.9465H92.9986C92.9252 29.7997 92.878 29.6279 92.857 29.4312ZM92.798 27.8501C92.5411 27.955 92.1556 28.0441 91.6417 28.1175C91.3506 28.1595 91.1448 28.2067 91.0242 28.2591C90.9035 28.3116 90.8104 28.3889 90.7449 28.4912C90.6793 28.5908 90.6466 28.7023 90.6466 28.8255C90.6466 29.0143 90.7174 29.1716 90.859 29.2975C91.0032 29.4234 91.2129 29.4863 91.4883 29.4863C91.761 29.4863 92.0035 29.4273 92.2159 29.3093C92.4283 29.1887 92.5843 29.0248 92.684 28.8177C92.76 28.6577 92.798 28.4217 92.798 28.1097V27.8501Z" fill="#58595B"/>
<path d="M96.161 29.3132L96.2632 29.9386C96.0639 29.9806 95.8856 30.0016 95.7283 30.0016C95.4713 30.0016 95.2721 29.9609 95.1305 29.8796C94.9889 29.7983 94.8892 29.6921 94.8315 29.561C94.7738 29.4273 94.745 29.148 94.745 28.7233V26.32H94.2258V25.7694H94.745V24.7349L95.449 24.3102V25.7694H96.161V26.32H95.449V28.7626C95.449 28.9645 95.4608 29.0943 95.4844 29.152C95.5107 29.2097 95.5513 29.2556 95.6064 29.2896C95.6641 29.3237 95.7453 29.3408 95.8502 29.3408C95.9289 29.3408 96.0325 29.3316 96.161 29.3132Z" fill="#58595B"/>
<path d="M96.8611 24.9945V24.1804H97.5691V24.9945H96.8611ZM96.8611 29.9465V25.7694H97.5691V29.9465H96.8611Z" fill="#58595B"/>
<path d="M98.3872 27.8579C98.3872 27.0844 98.6022 26.5115 99.0322 26.1391C99.3915 25.8297 99.8294 25.675 100.346 25.675C100.92 25.675 101.39 25.8638 101.754 26.2414C102.119 26.6164 102.301 27.1355 102.301 27.7989C102.301 28.3365 102.219 28.76 102.057 29.0694C101.897 29.3762 101.662 29.6148 101.353 29.7852C101.046 29.9557 100.71 30.0409 100.346 30.0409C99.7612 30.0409 99.2879 29.8534 98.926 29.4784C98.5668 29.1035 98.3872 28.5633 98.3872 27.8579ZM99.1148 27.8579C99.1148 28.3929 99.2315 28.7941 99.4649 29.0615C99.6983 29.3264 99.9919 29.4588 100.346 29.4588C100.697 29.4588 100.99 29.325 101.223 29.0576C101.456 28.7901 101.573 28.3824 101.573 27.8343C101.573 27.3178 101.455 26.9271 101.219 26.6622C100.986 26.3948 100.695 26.261 100.346 26.261C99.9919 26.261 99.6983 26.3935 99.4649 26.6583C99.2315 26.9231 99.1148 27.323 99.1148 27.8579Z" fill="#58595B"/>
<path d="M103.135 29.9465V25.7694H103.772V26.3633C104.079 25.9044 104.522 25.675 105.101 25.675C105.353 25.675 105.584 25.7209 105.793 25.8127C106.006 25.9018 106.165 26.0198 106.269 26.1667C106.374 26.3135 106.448 26.4879 106.49 26.6898C106.516 26.8209 106.529 27.0503 106.529 27.3781V29.9465H105.821V27.4056C105.821 27.1172 105.793 26.9022 105.738 26.7606C105.683 26.6164 105.585 26.5023 105.443 26.4184C105.304 26.3318 105.141 26.2886 104.952 26.2886C104.65 26.2886 104.389 26.3843 104.169 26.5757C103.951 26.7671 103.843 27.1303 103.843 27.6652V29.9465H103.135Z" fill="#58595B"/>
<path d="M107.725 29.9465V24.1804H111.894V24.8608H108.488V26.6268H111.678V27.3034H108.488V29.266H112.028V29.9465H107.725Z" fill="#58595B"/>
<path d="M116.866 24.1804H117.629V27.5118C117.629 28.0913 117.563 28.5515 117.432 28.8924C117.301 29.2333 117.064 29.5112 116.72 29.7262C116.379 29.9386 115.931 30.0448 115.375 30.0448C114.835 30.0448 114.393 29.9517 114.049 29.7656C113.706 29.5794 113.461 29.3106 113.314 28.9593C113.167 28.6053 113.094 28.1228 113.094 27.5118V24.1804H113.857V27.5079C113.857 28.0087 113.903 28.3784 113.994 28.6171C114.089 28.8531 114.249 29.0353 114.474 29.1638C114.702 29.2923 114.98 29.3565 115.308 29.3565C115.869 29.3565 116.269 29.2293 116.508 28.975C116.746 28.7206 116.866 28.2316 116.866 27.5079V24.1804Z" fill="#58595B"/>
</g>
<defs>
<clipPath id="clip0_31_16680">
<rect width="126.989" height="32" fill="white"/>
</clipPath>
</defs>
</svg>
