<svg width="65" height="64" viewBox="0 0 65 64" fill="none" xmlns="http://www.w3.org/2000/svg">
<rect x="0.25" width="64" height="64" rx="32" fill="#EFF3F5"/>
<path d="M17.25 22H20.5833H47.25" stroke="#B44D3D" stroke-width="3.33" stroke-linecap="round" stroke-linejoin="round"/>
<path d="M25.583 22.0002V18.6668C25.583 17.7828 25.9342 16.9349 26.5593 16.3098C27.1844 15.6847 28.0323 15.3335 28.9163 15.3335H35.583C36.4671 15.3335 37.3149 15.6847 37.94 16.3098C38.5652 16.9349 38.9163 17.7828 38.9163 18.6668V22.0002M43.9163 22.0002V45.3335C43.9163 46.2176 43.5652 47.0654 42.94 47.6905C42.3149 48.3156 41.4671 48.6668 40.583 48.6668H23.9163C23.0323 48.6668 22.1844 48.3156 21.5593 47.6905C20.9342 47.0654 20.583 46.2176 20.583 45.3335V22.0002H43.9163Z" stroke="#B44D3D" stroke-width="3.33" stroke-linecap="round" stroke-linejoin="round"/>
<path d="M28.917 30.3335V40.3335" stroke="#B44D3D" stroke-width="3.33" stroke-linecap="round" stroke-linejoin="round"/>
<path d="M35.583 30.3335V40.3335" stroke="#B44D3D" stroke-width="3.33" stroke-linecap="round" stroke-linejoin="round"/>
</svg>
