<?xml version="1.0" encoding="utf-8"?>
<!-- Uploaded to: SVG Repo, www.svgrepo.com, Generator: SVG Repo Mixer Tools -->
<svg width="800px" height="800px" viewBox="0 -25.16 73.395 73.395" xmlns="http://www.w3.org/2000/svg">
  <g id="Group_35" data-name="Group 35" transform="translate(-260.487 -410.384)">
    <path id="Path_11" data-name="Path 11" d="M332.382,430.455H282.37a1.5,1.5,0,0,0,0,3h50.012a1.5,1.5,0,0,0,0-3Z" fill="#0c2c67"/>
    <path id="Path_12" data-name="Path 12" d="M275.988,413.77a1.5,1.5,0,0,0-2.121,0l-5.41,5.41-5.41-5.41a1.5,1.5,0,0,0-2.121,2.121l5.41,5.41-5.41,5.409a1.5,1.5,0,1,0,2.121,2.121l5.41-5.409,5.41,5.409a1.5,1.5,0,0,0,2.121-2.121l-5.41-5.409,5.41-5.41A1.5,1.5,0,0,0,275.988,413.77Z" fill="#0c2c67"/>
    <path id="Path_13" data-name="Path 13" d="M286.8,427.493a1.5,1.5,0,0,0,.891-.294,72.231,72.231,0,0,0,6.785-6.1c3.769-3.675,8.456-8.253,10.916-7.663a.823.823,0,0,1,.313.121c.346.632-1.092,3.423-1.706,4.615-1.137,2.209-2.036,3.954-1.5,5.355a2.183,2.183,0,0,0,1.277,1.27c1.881.723,3.928-.664,6.094-2.135,1.65-1.122,3.908-2.659,4.84-2.072.326.205.429,1.106.512,1.829.139,1.222.33,2.894,1.858,3.59,1.6.727,3.956.236,10.777-4.453a1.5,1.5,0,0,0-1.7-2.473c-5.558,3.822-7.289,4.2-7.751,4.2H318.4a7.233,7.233,0,0,1-.2-1.2c-.147-1.292-.348-3.059-1.9-4.031-2.593-1.627-5.529.37-8.12,2.131a23.815,23.815,0,0,1-2.6,1.609c.279-.676.74-1.572,1.085-2.244,1.323-2.569,2.692-5.226,1.766-7.24a3.244,3.244,0,0,0-2.346-1.787c-4.059-.976-8.745,3.6-13.7,8.433a70.035,70.035,0,0,1-6.476,5.837,1.5,1.5,0,0,0,.894,2.706Z" fill="#0c2c67"/>
  </g>
</svg>