<svg width="57" height="56" viewBox="0 0 57 56" fill="none" xmlns="http://www.w3.org/2000/svg">
<rect x="0.25" width="56" height="56" rx="12" fill="#F5F0EF"/>
<path d="M30.9163 14.6667H20.2497C19.5424 14.6667 18.8642 14.9477 18.3641 15.4478C17.864 15.9479 17.583 16.6262 17.583 17.3334V38.6667C17.583 39.374 17.864 40.0523 18.3641 40.5524C18.8642 41.0525 19.5424 41.3334 20.2497 41.3334H36.2497C36.9569 41.3334 37.6352 41.0525 38.1353 40.5524C38.6354 40.0523 38.9163 39.374 38.9163 38.6667V22.6667L30.9163 14.6667Z" stroke="#AC3220" stroke-width="2.67" stroke-linecap="round" stroke-linejoin="round"/>
<path d="M30.917 14.6667V22.6667H38.917" stroke="#A6301E" stroke-width="2.67" stroke-linecap="round" stroke-linejoin="round"/>
<path d="M33.5837 29.3333H22.917" stroke="#A6301E" stroke-width="2.67" stroke-linecap="round" stroke-linejoin="round"/>
<path d="M33.5837 34.6667H22.917" stroke="#A6301E" stroke-width="2.67" stroke-linecap="round" stroke-linejoin="round"/>
<path d="M25.5837 24H24.2503H22.917" stroke="#A6301E" stroke-width="2.67" stroke-linecap="round" stroke-linejoin="round"/>
</svg>
