<svg width="200" height="41" viewBox="0 0 200 41" fill="none" xmlns="http://www.w3.org/2000/svg">
<g clip-path="url(#clip0_31_16675)">
<path d="M31.5323 0.547363V8.45781H24.3084V40.2688H15.7512V8.45781H8.4975V0.547363H31.5323Z" fill="#CE0E2D"/>
<path d="M39.9901 27.6069L38.796 27.99C36.8574 28.6054 34.854 28.9944 32.8259 29.1492L30.6567 29.204L38.5174 40.2388H49.0747L39.9901 27.6069Z" fill="#CE0E2D"/>
<path d="M14.1145 34.9207L11.5672 34.7715L11.1592 32.4829L9.89058 34.672L7.20898 34.5177L9.06968 36.1098L7.79108 38.3834L10.2189 37.1147L12.6169 38.662L11.8806 36.3536L14.1145 34.9207Z" fill="#FFCD00"/>
<path d="M6.90546 27.0447L4.52735 26.9104L4.14924 24.8457L2.96516 26.8208L0.467651 26.6716L2.20397 28.1144L0.67163 30.1343L3.27859 29.0198L5.16417 30.393L4.82089 28.3333L6.90546 27.0447Z" fill="#FFCD00"/>
<path d="M6.0846 18.4925L3.95027 18.3681L3.59703 16.6069L2.5423 18.2885L0.288574 18.1542L1.85574 19.388L0.482604 21.1094L2.82589 20.1641L4.52738 21.3432L4.21892 19.5821L6.0846 18.4925Z" fill="#FFCD00"/>
<path d="M10.0846 11.8706L8.22388 11.7611L7.91044 10.373L7 11.6915L5.03979 11.577L6.40795 12.5522L5.22388 13.9054L7.2587 13.1691L8.74129 14.1094L8.46268 12.7213L10.0846 11.8706Z" fill="#FFCD00"/>
<path d="M46.7662 8.75629C46.0467 7.09159 44.9678 5.60669 43.6069 4.40803C42.1499 3.13659 40.446 2.17963 38.602 1.59708C36.5878 0.952791 34.4877 0.61731 32.3731 0.602051C32.3731 3.23887 32.3731 5.84087 32.3731 8.49759C33.8922 8.59955 35.3506 9.13287 36.5771 10.0349C37.9038 11.0565 38.5672 12.549 38.5672 14.5125V14.6319C38.5806 15.4423 38.417 16.2459 38.0879 16.9866C37.7588 17.7272 37.2721 18.3872 36.6617 18.9205C35.388 20.0747 33.6003 20.6518 31.2985 20.6518H25.0995C25.0995 23.2638 25.0995 25.821 25.0995 28.4279H30.995C33.2185 28.4505 35.4342 28.1608 37.5771 27.5672C39.5174 27.0338 41.3389 26.1374 42.9453 24.9254C44.4648 23.7606 45.6971 22.2629 46.5472 20.5473C47.4573 18.6524 47.9073 16.5694 47.8607 14.4677V14.3583C47.8895 12.4351 47.5167 10.5272 46.7662 8.75629Z" fill="#FFCD00"/>
<path d="M55.6766 3.02489H59.3582C59.85 3.01767 60.3394 3.09335 60.806 3.24876C61.2054 3.38542 61.5728 3.6021 61.8856 3.88557C62.1823 4.16382 62.4149 4.50336 62.5672 4.8806C62.729 5.2819 62.8085 5.71164 62.801 6.14428V6.17413C62.8105 6.64839 62.7154 7.11891 62.5224 7.55224C62.3421 7.9396 62.0748 8.28012 61.7413 8.54726C61.398 8.81783 61.0063 9.02046 60.5871 9.14428C60.1252 9.28059 59.6457 9.34765 59.1642 9.34328H57.6717V12.0448H55.6816L55.6766 3.02489ZM59.2289 7.5622C59.4377 7.57574 59.647 7.548 59.8451 7.48056C60.0432 7.41312 60.226 7.3073 60.3831 7.16916C60.5177 7.04672 60.6243 6.89664 60.6956 6.7292C60.7669 6.56176 60.8011 6.38091 60.796 6.199V6.17413C60.8055 5.98661 60.7718 5.79943 60.6976 5.62694C60.6235 5.45446 60.5108 5.30125 60.3682 5.17911C60.0274 4.92983 59.6106 4.80672 59.1891 4.83084H57.6617V7.58209L59.2289 7.5622Z" fill="#575756"/>
<path d="M64.1791 2.63672H66.1343V12.0248H64.1791V2.63672Z" fill="#575756"/>
<path d="M69.9005 12.1445C69.5887 12.1464 69.2783 12.1011 68.9801 12.0102C68.7045 11.9268 68.4489 11.788 68.2288 11.6023C68.0167 11.4206 67.8469 11.1947 67.7313 10.9405C67.6027 10.6564 67.5397 10.3469 67.5472 10.0351C67.5346 9.69186 67.6045 9.35062 67.7512 9.04006C67.8867 8.77171 68.0825 8.53841 68.3234 8.35847C68.5873 8.17038 68.8844 8.03365 69.199 7.95548C69.5664 7.86227 69.9443 7.81712 70.3234 7.82115C70.6318 7.81744 70.9399 7.84242 71.2438 7.89578C71.5036 7.94787 71.7596 8.0177 72.0099 8.10474V7.98534C72.0214 7.81149 71.9938 7.63727 71.9292 7.47544C71.8647 7.31361 71.7647 7.16826 71.6368 7.05001C71.3178 6.81255 70.924 6.69776 70.5273 6.72662C70.1933 6.72438 69.8599 6.75605 69.5323 6.82115C69.2244 6.89307 68.9219 6.98616 68.6268 7.09975L68.1293 5.60722C68.5109 5.44269 68.9052 5.30958 69.3084 5.20921C69.7978 5.09727 70.299 5.04547 70.801 5.05498C71.2699 5.04342 71.7374 5.11069 72.1841 5.25399C72.5385 5.37048 72.8617 5.56613 73.1293 5.82612C73.3921 6.09067 73.5867 6.41506 73.6965 6.77141C73.8207 7.17754 73.8811 7.60047 73.8756 8.02513V12.0052H71.985V11.259C71.7426 11.5256 71.4502 11.7419 71.1244 11.8958C70.7401 12.0689 70.3219 12.1539 69.9005 12.1445ZM70.4925 10.7913C70.8913 10.812 71.285 10.6943 71.6069 10.458C71.741 10.3556 71.8488 10.2228 71.9214 10.0705C71.9941 9.91829 72.0295 9.75097 72.0249 9.58235V9.23907C71.8408 9.15753 71.6491 9.0942 71.4527 9.05001C71.2302 9.00318 71.0034 8.97984 70.7761 8.98037C70.4274 8.9597 70.0807 9.04466 69.7811 9.22414C69.6656 9.3011 69.5719 9.40657 69.5092 9.53033C69.4464 9.6541 69.4167 9.79197 69.4229 9.9306V9.95548C69.4166 10.0753 69.4401 10.1948 69.4914 10.3034C69.5426 10.4119 69.6199 10.506 69.7164 10.5774C69.944 10.7342 70.2164 10.8128 70.4925 10.8012V10.7913Z" fill="#575756"/>
<path d="M75.5622 5.13447H77.5174V6.1295C77.6289 5.98061 77.7503 5.83933 77.8806 5.70661C78.0156 5.57242 78.164 5.45239 78.3234 5.3484C78.493 5.24439 78.6753 5.16248 78.8657 5.10462C79.0823 5.04224 79.3069 5.01207 79.5323 5.01507C79.8532 4.99488 80.1747 5.04546 80.4739 5.16324C80.773 5.28103 81.0427 5.46313 81.2637 5.69666C81.6968 6.22237 81.9154 6.89228 81.8756 7.57228V12.0499H79.9204V8.21408C79.9444 7.83874 79.8312 7.46748 79.602 7.1693C79.4912 7.04936 79.3553 6.95547 79.2039 6.8944C79.0524 6.83332 78.8894 6.80657 78.7264 6.81607C78.5606 6.808 78.395 6.83533 78.2406 6.89623C78.0862 6.95714 77.9465 7.05022 77.8309 7.1693C77.5948 7.46409 77.4792 7.83744 77.5075 8.21408V12.0499H75.5522L75.5622 5.13447Z" fill="#575756"/>
<path d="M90.2587 12.1444C89.8574 12.1437 89.4602 12.0643 89.0895 11.9105C88.7136 11.7536 88.3747 11.5197 88.0945 11.224C87.7921 10.8985 87.554 10.5187 87.393 10.1046C87.2102 9.61818 87.1208 9.1017 87.1293 8.58218V8.55731C87.1204 8.03614 87.2098 7.51795 87.393 7.02994C87.5547 6.61734 87.7908 6.23792 88.0895 5.91054C88.368 5.61282 88.7074 5.37865 89.0846 5.22397C89.4605 5.07089 89.8628 4.99314 90.2686 4.99512C90.7201 4.97555 91.1681 5.08237 91.5622 5.30357C91.8841 5.49482 92.173 5.73674 92.4179 6.01999V2.62695H94.3731V12.015H92.4179V11.02C92.1818 11.3418 91.8863 11.6154 91.5472 11.826C91.1564 12.0517 90.7097 12.1621 90.2587 12.1444ZM90.7562 10.4827C90.9789 10.4844 91.1994 10.4386 91.403 10.3484C91.604 10.2596 91.7837 10.129 91.9303 9.96526C92.0895 9.78832 92.2128 9.58219 92.2935 9.3583C92.3856 9.11004 92.4311 8.84694 92.4278 8.58218V8.55731C92.4307 8.29096 92.3852 8.02629 92.2935 7.77621C92.2127 7.55386 92.0893 7.34939 91.9303 7.17422C91.7854 7.00743 91.6053 6.87489 91.403 6.78617C91.1994 6.69595 90.9789 6.65014 90.7562 6.65183C90.5319 6.65019 90.3098 6.69598 90.1044 6.78617C89.9022 6.87749 89.721 7.0096 89.5721 7.17422C89.4132 7.34852 89.2884 7.551 89.204 7.77123C89.111 8.0227 89.0654 8.28924 89.0696 8.55731V8.58218C89.0663 8.84694 89.1119 9.11004 89.204 9.3583C89.2883 9.58154 89.4131 9.7873 89.5721 9.96526C89.7225 10.1269 89.9034 10.2571 90.1044 10.3484C90.3106 10.4427 90.5345 10.4918 90.7612 10.4926L90.7562 10.4827Z" fill="#575756"/>
<path d="M99.3781 12.1791C98.8884 12.185 98.402 12.0972 97.9453 11.9204C97.5162 11.7606 97.1262 11.5113 96.801 11.189C96.4754 10.8693 96.2181 10.4868 96.0448 10.0647C95.8605 9.60455 95.7692 9.11249 95.7761 8.61689V8.592C95.7745 8.11809 95.8587 7.6478 96.0249 7.20396C96.1841 6.78152 96.4222 6.3932 96.7264 6.05967C97.028 5.73175 97.3938 5.46929 97.801 5.28853C98.2552 5.09334 98.7444 4.99268 99.2388 4.99268C99.7332 4.99268 100.222 5.09334 100.677 5.28853C101.082 5.48493 101.44 5.76666 101.726 6.1144C102.006 6.47115 102.216 6.87811 102.343 7.31341C102.475 7.77105 102.542 8.24502 102.542 8.72136C102.542 8.79599 102.542 8.88056 102.542 8.96514C102.542 9.04972 102.542 9.13927 102.542 9.2338H97.7463C97.8132 9.62629 98.0221 9.98045 98.3333 10.2288C98.6501 10.465 99.0379 10.5861 99.4328 10.5721C99.7333 10.5776 100.032 10.5199 100.308 10.403C100.601 10.2685 100.87 10.087 101.104 9.86565L102.224 10.8607C101.902 11.2579 101.498 11.5805 101.04 11.8059C100.522 12.0578 99.9535 12.1855 99.3781 12.1791ZM100.637 8.03977C100.596 7.64565 100.435 7.27375 100.174 6.97509C100.047 6.84007 99.8925 6.73415 99.7208 6.66458C99.549 6.59502 99.3642 6.56347 99.1791 6.5721C98.9946 6.56446 98.8105 6.59597 98.639 6.66457C98.4675 6.73317 98.3125 6.83731 98.1841 6.97012C97.9158 7.26939 97.7426 7.64175 97.6866 8.03977H100.637Z" fill="#575756"/>
<path d="M108.06 3.02509H112.174C112.65 2.9931 113.127 3.05723 113.578 3.21365C114.028 3.37007 114.442 3.61557 114.796 3.93553C115.057 4.20873 115.26 4.53216 115.393 4.88622C115.526 5.24028 115.585 5.61759 115.567 5.99524V6.02011C115.594 6.65671 115.407 7.284 115.035 7.8012C114.672 8.25763 114.187 8.60248 113.637 8.79622L115.836 12.0102H113.522L111.592 9.15941H110.04V12.04H108.05L108.06 3.02509ZM112.04 7.39325C112.444 7.41965 112.844 7.29758 113.164 7.04997C113.294 6.93444 113.397 6.7915 113.465 6.63146C113.533 6.47143 113.564 6.29831 113.557 6.12458V6.09473C113.57 5.91339 113.539 5.73171 113.467 5.56473C113.395 5.39775 113.284 5.25029 113.144 5.13454C112.811 4.89958 112.407 4.7855 112 4.81116H110.035V7.39325H112.04Z" fill="#575756"/>
<path d="M120.398 12.1791C119.907 12.1845 119.419 12.0967 118.96 11.9204C118.532 11.7582 118.143 11.5092 117.816 11.189C117.493 10.8677 117.238 10.4855 117.065 10.0647C116.88 9.60455 116.789 9.11249 116.796 8.61689V8.592C116.794 8.11809 116.879 7.6478 117.045 7.20396C117.204 6.78152 117.442 6.3932 117.746 6.05967C118.046 5.72956 118.412 5.46674 118.821 5.28853C119.275 5.09334 119.764 4.99268 120.259 4.99268C120.753 4.99268 121.242 5.09334 121.697 5.28853C122.101 5.48377 122.458 5.76574 122.741 6.1144C123.025 6.46877 123.235 6.87649 123.358 7.31341C123.493 7.77053 123.56 8.24485 123.557 8.72136C123.557 8.79599 123.557 8.88056 123.557 8.96514C123.557 9.04972 123.557 9.13927 123.557 9.2338H118.756C118.823 9.62629 119.032 9.98045 119.343 10.2288C119.66 10.465 120.048 10.5861 120.443 10.5721C120.743 10.5776 121.042 10.5199 121.318 10.403C121.611 10.2685 121.88 10.087 122.114 9.86565L123.234 10.8607C122.912 11.2579 122.508 11.5805 122.05 11.8059C121.535 12.0558 120.97 12.1835 120.398 12.1791ZM121.657 8.03977C121.616 7.64565 121.454 7.27375 121.194 6.97509C121.067 6.84007 120.912 6.73415 120.741 6.66458C120.569 6.59502 120.384 6.56347 120.199 6.5721C120.014 6.56446 119.83 6.59597 119.659 6.66457C119.487 6.73317 119.332 6.83731 119.204 6.97012C118.934 7.2682 118.76 7.64113 118.706 8.03977H121.657Z" fill="#575756"/>
<path d="M128.289 12.179C127.795 12.1836 127.306 12.0871 126.851 11.8954C126.426 11.7176 126.04 11.4572 125.716 11.1293C125.395 10.806 125.142 10.4221 124.97 9.99992C124.786 9.56237 124.692 9.0917 124.697 8.61684V8.59195C124.693 8.11557 124.787 7.64348 124.97 7.2039C125.141 6.77695 125.395 6.38803 125.716 6.05962C126.037 5.72705 126.423 5.4645 126.851 5.28848C127.839 4.89342 128.942 4.89342 129.93 5.28848C130.36 5.49309 130.746 5.7805 131.065 6.13426L129.851 7.44768C129.652 7.22954 129.42 7.0433 129.164 6.89545C128.895 6.74734 128.591 6.67511 128.284 6.68649C128.049 6.68247 127.818 6.7336 127.607 6.83574C127.408 6.93613 127.229 7.07281 127.08 7.23873C126.928 7.41585 126.812 7.62013 126.736 7.84072C126.651 8.07331 126.609 8.31943 126.612 8.56708V8.59195C126.609 8.84607 126.652 9.09865 126.736 9.33822C126.812 9.56073 126.932 9.76554 127.09 9.94022C127.243 10.1132 127.431 10.2521 127.642 10.3482C127.869 10.4488 128.115 10.498 128.363 10.4925C128.659 10.4999 128.952 10.4314 129.214 10.2935C129.48 10.1489 129.726 9.96991 129.945 9.76111L131.09 10.9203C130.761 11.2832 130.374 11.5891 129.945 11.8258C129.431 12.0781 128.861 12.1994 128.289 12.179Z" fill="#575756"/>
<path d="M134.667 12.1443C134.346 12.1631 134.025 12.1119 133.726 11.9942C133.427 11.8765 133.157 11.6951 132.935 11.4627C132.501 10.9355 132.283 10.2637 132.323 9.5821V5.10449H134.279V8.94031C134.253 9.31425 134.363 9.68492 134.587 9.98509C134.698 10.105 134.834 10.1989 134.985 10.26C135.137 10.3211 135.3 10.3478 135.463 10.3383C135.628 10.347 135.793 10.3199 135.947 10.2589C136.1 10.198 136.239 10.1046 136.353 9.98509C136.591 9.69102 136.708 9.31759 136.682 8.94031V5.10449H138.637V11.995H136.682V11C136.57 11.1491 136.449 11.2904 136.318 11.4229C136.182 11.5541 136.034 11.6723 135.876 11.7761C135.707 11.8837 135.525 11.9675 135.333 12.0249C135.118 12.0974 134.894 12.1376 134.667 12.1443Z" fill="#575756"/>
<path d="M140.388 5.13438H142.343V6.1294C142.576 5.80657 142.87 5.53272 143.209 5.32344C143.598 5.10173 144.04 4.99315 144.488 5.01C144.89 5.00894 145.289 5.08668 145.662 5.23885C146.038 5.39528 146.377 5.62922 146.657 5.92542C146.96 6.24993 147.199 6.63002 147.358 7.04483C147.541 7.53283 147.631 8.05102 147.622 8.57219V8.59706C147.63 9.11659 147.541 9.63306 147.358 10.1194C147.201 10.5331 146.966 10.913 146.667 11.2389C146.388 11.5361 146.049 11.7702 145.672 11.9254C145.296 12.0802 144.894 12.1597 144.488 12.1593C144.038 12.1763 143.592 12.0696 143.199 11.8508C142.877 11.658 142.588 11.4144 142.343 11.1294V14.0896H140.388V5.13438ZM143.99 10.4926C144.213 10.4943 144.433 10.4485 144.637 10.3583C144.839 10.2683 145.02 10.1379 145.169 9.97518C145.328 9.80053 145.452 9.59813 145.537 9.37816C145.63 9.12657 145.675 8.86012 145.672 8.59208V8.56721C145.675 8.30086 145.629 8.0362 145.537 7.78611C145.455 7.56348 145.33 7.35902 145.169 7.18413C145.019 7.02266 144.836 6.89485 144.633 6.8091C144.43 6.72335 144.211 6.6816 143.99 6.68662C143.766 6.68498 143.544 6.73075 143.338 6.82094C143.137 6.91106 142.957 7.04339 142.811 7.209C142.655 7.38566 142.534 7.58982 142.453 7.811C142.361 8.06108 142.316 8.32573 142.318 8.59208V8.61697C142.315 8.88173 142.361 9.14483 142.453 9.39309C142.534 9.61577 142.655 9.82156 142.811 10.0001C142.961 10.1615 143.144 10.2893 143.347 10.3751C143.55 10.4608 143.77 10.5026 143.99 10.4976V10.4926Z" fill="#575756"/>
<path d="M152.333 12.1793C151.844 12.1843 151.358 12.0965 150.9 11.9206C150.472 11.7596 150.082 11.5105 149.756 11.1893C149.432 10.8694 149.176 10.4868 149.005 10.0649C148.817 9.60583 148.724 9.11327 148.731 8.61713V8.59225C148.729 8.11781 148.815 7.64709 148.985 7.2042C149.14 6.77993 149.379 6.3909 149.687 6.05991C149.986 5.7298 150.353 5.46698 150.761 5.28877C151.214 5.09343 151.703 4.99268 152.197 4.99268C152.69 4.99268 153.179 5.09343 153.632 5.28877C154.039 5.48255 154.397 5.76469 154.682 6.11464C154.963 6.47031 155.173 6.87761 155.298 7.31365C155.433 7.77077 155.5 8.2451 155.498 8.72161C155.498 8.79623 155.498 8.8808 155.498 8.96538C155.498 9.04996 155.498 9.13951 155.498 9.23404H150.701C150.769 9.62517 150.976 9.97865 151.284 10.2291C151.601 10.4646 151.988 10.5856 152.383 10.5724C152.684 10.5784 152.982 10.5208 153.259 10.4032C153.552 10.27 153.821 10.0884 154.055 9.86589L155.174 10.8609C154.855 11.2604 154.45 11.5834 153.99 11.8062C153.474 12.0573 152.907 12.185 152.333 12.1793ZM153.592 8.04002C153.551 7.64589 153.39 7.27399 153.129 6.97533C153.002 6.84031 152.848 6.73439 152.676 6.66483C152.504 6.59526 152.319 6.56371 152.134 6.57235C151.95 6.56564 151.766 6.59759 151.595 6.66613C151.423 6.73468 151.268 6.83831 151.139 6.97037C150.869 7.26844 150.696 7.64138 150.642 8.04002H153.592Z" fill="#575756"/>
<path d="M156.95 5.1346H158.905V6.52267C159.079 6.08404 159.358 5.69461 159.716 5.38834C160.115 5.09186 160.61 4.9552 161.104 5.00524V7.05003H161C160.716 7.03324 160.432 7.07739 160.167 7.17951C159.902 7.28163 159.662 7.43935 159.463 7.64207C159.049 8.16022 158.85 8.81721 158.905 9.47789V12.0252H156.95V5.1346Z" fill="#575756"/>
<path d="M164.279 12.1446C163.968 12.1468 163.66 12.1015 163.363 12.0103C163.086 11.9268 162.829 11.7881 162.607 11.6023C162.395 11.4207 162.225 11.1948 162.109 10.9406C161.981 10.6565 161.918 10.347 161.925 10.0352C161.915 9.69215 161.985 9.35147 162.129 9.04014C162.265 8.77179 162.461 8.53849 162.701 8.35855C162.965 8.17045 163.263 8.03373 163.577 7.95555C163.945 7.86235 164.322 7.8172 164.701 7.82123C165.01 7.81752 165.318 7.8425 165.622 7.89585C165.882 7.94731 166.138 8.01714 166.388 8.10482V7.98542C166.399 7.81156 166.372 7.63734 166.307 7.47552C166.243 7.31369 166.143 7.16834 166.015 7.05009C165.697 6.81338 165.305 6.6986 164.91 6.7267C164.576 6.72473 164.243 6.7564 163.915 6.82123C163.608 6.89315 163.305 6.98624 163.01 7.09983L162.512 5.60729C162.896 5.44276 163.292 5.30966 163.697 5.20929C164.186 5.09665 164.687 5.04485 165.189 5.05506C165.658 5.04312 166.126 5.11039 166.572 5.25407C166.927 5.37056 167.25 5.56621 167.517 5.8262C167.78 6.09074 167.975 6.41514 168.085 6.77149C168.209 7.17761 168.269 7.60055 168.264 8.02521V12.0053H166.373V11.259C166.131 11.5256 165.838 11.742 165.512 11.8959C165.125 12.0705 164.703 12.1555 164.279 12.1446ZM164.871 10.7914C165.269 10.8121 165.663 10.6944 165.985 10.458C166.119 10.3556 166.227 10.2228 166.3 10.0706C166.372 9.91837 166.408 9.75105 166.403 9.58243V9.23914C166.219 9.15699 166.027 9.09365 165.831 9.05009C165.608 9.00296 165.382 8.97962 165.154 8.98044C164.806 8.95978 164.459 9.04474 164.159 9.22422C164.044 9.30118 163.95 9.40664 163.887 9.53041C163.825 9.65418 163.795 9.79205 163.801 9.93068V9.95556C163.796 10.0753 163.82 10.1945 163.871 10.3029C163.922 10.4112 163.999 10.5055 164.095 10.5775C164.322 10.7337 164.595 10.8122 164.871 10.8013V10.7914Z" fill="#575756"/>
<path d="M173.194 12.1791C172.702 12.1842 172.214 12.0876 171.761 11.8956C171.345 11.7214 170.966 11.4679 170.647 11.1493C170.326 10.826 170.072 10.4421 169.9 10.0199C169.72 9.58121 169.629 9.11111 169.632 8.63686V8.61197C169.63 8.13616 169.721 7.66453 169.9 7.22391C170.071 6.79696 170.325 6.40805 170.647 6.07964C170.969 5.74694 171.357 5.48442 171.786 5.3085C172.247 5.11499 172.744 5.01846 173.244 5.02491C173.801 5.00466 174.355 5.11008 174.866 5.33337C175.294 5.53808 175.678 5.82553 175.995 6.17915L174.801 7.4677C174.6 7.25187 174.368 7.0659 174.114 6.91545C173.843 6.76787 173.537 6.69572 173.229 6.70651C172.996 6.70327 172.766 6.75438 172.557 6.85576C172.356 6.9536 172.177 7.09061 172.03 7.25874C171.877 7.43566 171.759 7.63992 171.682 7.86074C171.599 8.09395 171.557 8.33964 171.557 8.5871V8.61197C171.557 8.86589 171.599 9.11804 171.682 9.35824C171.757 9.58075 171.878 9.78554 172.035 9.96023C172.189 10.1332 172.377 10.2721 172.587 10.3682C172.814 10.4683 173.06 10.5176 173.308 10.5125C173.606 10.5199 173.9 10.4514 174.164 10.3135C174.429 10.1688 174.673 9.98979 174.891 9.78113L176.035 10.9403C175.707 11.3043 175.32 11.6104 174.891 11.8458C174.362 12.0978 173.779 12.2124 173.194 12.1791Z" fill="#575756"/>
<path d="M177.323 2.63672H179.378V4.37303H177.323V2.63672ZM177.373 5.12428H179.328V12.0148H177.373V5.12428Z" fill="#575756"/>
<path d="M184.547 12.1793C184.036 12.1855 183.529 12.0908 183.055 11.9007C182.622 11.7273 182.227 11.4723 181.891 11.1495C181.56 10.8257 181.296 10.4403 181.114 10.0151C180.924 9.57562 180.827 9.10113 180.831 8.6221V8.59722C180.828 8.12463 180.921 7.6564 181.105 7.22104C181.289 6.78569 181.56 6.39232 181.9 6.06488C182.24 5.73134 182.642 5.46914 183.085 5.29374C183.558 5.10052 184.066 5.0041 184.577 5.01016C185.088 5.00355 185.595 5.09649 186.07 5.28378C186.507 5.45763 186.906 5.71632 187.244 6.04498C187.584 6.37161 187.853 6.76437 188.035 7.19903C188.217 7.63369 188.309 8.10106 188.303 8.57235V8.59722C188.306 9.07568 188.212 9.5497 188.025 9.99026C187.84 10.4178 187.573 10.8048 187.239 11.1296C186.897 11.4605 186.495 11.7223 186.055 11.9007C185.576 12.0941 185.063 12.1888 184.547 12.1793ZM184.572 10.4927C184.832 10.4992 185.09 10.4501 185.328 10.3485C185.541 10.2538 185.731 10.1147 185.886 9.94051C186.043 9.7677 186.163 9.56452 186.239 9.34349C186.321 9.11016 186.363 8.86454 186.363 8.61712V8.59224C186.364 8.34427 186.321 8.09815 186.234 7.86587C186.151 7.64096 186.024 7.43469 185.861 7.25891C185.696 7.085 185.5 6.94328 185.284 6.841C185.048 6.74028 184.794 6.68835 184.537 6.68835C184.281 6.68835 184.027 6.74028 183.791 6.841C183.58 6.93564 183.39 7.07281 183.234 7.24398C183.078 7.41939 182.957 7.62397 182.881 7.84597C182.795 8.07856 182.753 8.32469 182.756 8.57235V8.59722C182.753 8.84535 182.797 9.09183 182.886 9.32358C182.968 9.54756 183.095 9.75243 183.259 9.92558C183.418 10.1035 183.613 10.2459 183.831 10.3435C184.065 10.4496 184.32 10.5007 184.577 10.4927H184.572ZM185.269 2.09473L186.955 2.83105L185.308 4.37334H183.816L185.269 2.09473Z" fill="#575756"/>
<path d="M189.706 5.13455H191.662V6.12958C191.777 5.96995 191.903 5.81866 192.04 5.67684C192.176 5.54142 192.326 5.4213 192.488 5.31863C192.655 5.21371 192.836 5.13172 193.025 5.07485C193.242 5.01282 193.466 4.98264 193.692 4.98529C194.012 4.96509 194.334 5.01569 194.633 5.13347C194.932 5.25126 195.202 5.43336 195.423 5.66689C195.856 6.19259 196.075 6.86251 196.035 7.54251V12.0201H194.08V8.1843C194.106 7.81022 193.997 7.43908 193.771 7.13953C193.66 7.01959 193.524 6.9257 193.373 6.86462C193.222 6.80355 193.059 6.7768 192.896 6.7863C192.731 6.7783 192.566 6.80568 192.412 6.8666C192.258 6.92752 192.12 7.02058 192.005 7.13953C191.767 7.4336 191.65 7.80702 191.677 8.1843V12.0201H189.721L189.706 5.13455Z" fill="#575756"/>
<path d="M197.179 13.2987C198.08 13.2041 198.502 12.8012 198.433 12.025H197.642V9.96533H199.711V11.7016C199.744 12.0338 199.706 12.3691 199.599 12.6855C199.493 13.0019 199.321 13.2922 199.095 13.5375C198.602 13.9396 197.978 14.1436 197.343 14.1096L197.179 13.2987Z" fill="#575756"/>
<path d="M57.6567 18.3581H54.9154V16.5322H62.3781V18.3581H59.6368V25.5372H57.6467L57.6567 18.3581Z" fill="#575756"/>
<path d="M63.6816 18.6418H65.6368V20.0299C65.8119 19.5935 66.0902 19.2059 66.4477 18.9005C66.8457 18.6023 67.3409 18.4638 67.8358 18.5125V20.5573H67.7363C67.4528 20.5424 67.1694 20.5874 66.9045 20.6894C66.6397 20.7914 66.3993 20.9481 66.199 21.1493C65.7832 21.6685 65.582 22.3272 65.6368 22.9901V25.5374H63.6816V18.6418Z" fill="#575756"/>
<path d="M71.0199 25.662C70.7081 25.6641 70.3977 25.6188 70.0995 25.5276C69.8246 25.4449 69.5692 25.3079 69.3483 25.1246C69.1358 24.9433 68.9659 24.7174 68.8507 24.4629C68.7214 24.1789 68.6568 23.8696 68.6617 23.5575V23.5276C68.6511 23.1846 68.721 22.8438 68.8657 22.5326C68.9998 22.2633 69.1958 22.0297 69.4378 21.851C69.7023 21.6638 69.9992 21.5272 70.3134 21.448C70.6802 21.3509 71.0584 21.3041 71.4378 21.3087C71.7465 21.3038 72.0549 21.3305 72.3582 21.3883C72.6216 21.4393 72.881 21.5091 73.1343 21.5973V21.4828C73.1462 21.3082 73.1188 21.1331 73.0542 20.9704C72.9897 20.8078 72.8895 20.6616 72.7612 20.5425C72.443 20.3076 72.0511 20.1946 71.6567 20.2241C71.3226 20.2195 70.989 20.2512 70.6617 20.3187C70.3534 20.389 70.0507 20.4821 69.7562 20.5973L69.2587 19.1047C69.6411 18.938 70.0373 18.8048 70.4428 18.7067C70.9321 18.5942 71.4334 18.5424 71.9353 18.5525C72.4042 18.5413 72.8717 18.6086 73.3184 18.7515C73.6723 18.8661 73.9943 19.062 74.2587 19.3236C74.5224 19.5874 74.7172 19.9121 74.8259 20.2689C74.9501 20.675 75.0105 21.098 75.005 21.5226V25.5027H73.1144V24.7565C72.872 25.0231 72.5796 25.2394 72.2537 25.3933C71.8672 25.5725 71.4459 25.6643 71.0199 25.662ZM71.6119 24.3137C72.0092 24.3345 72.4014 24.2167 72.7214 23.9804C72.856 23.8754 72.9637 23.7398 73.0355 23.585C73.1073 23.4301 73.1412 23.2604 73.1343 23.0898V22.7415C72.9503 22.6611 72.7586 22.5994 72.5622 22.5575C72.3401 22.5079 72.1131 22.4846 71.8856 22.4878C71.537 22.4678 71.1904 22.5527 70.8906 22.7316C70.7744 22.8078 70.6802 22.9132 70.6173 23.0371C70.5545 23.161 70.5252 23.2993 70.5323 23.4381C70.5274 23.557 70.5515 23.6754 70.6026 23.7829C70.6538 23.8904 70.7304 23.9838 70.8259 24.055C71.0525 24.225 71.3287 24.3159 71.6119 24.3137Z" fill="#575756"/>
<path d="M76.6766 18.642H78.6319V19.637C78.7437 19.4885 78.8668 19.3488 79 19.2191C79.1329 19.0826 79.2815 18.9623 79.4428 18.8609C79.6105 18.7553 79.7911 18.6717 79.9801 18.6121C80.1985 18.5498 80.4247 18.5196 80.6518 18.5226C80.9718 18.5031 81.2923 18.5541 81.5906 18.6718C81.8888 18.7896 82.1577 18.9713 82.3781 19.2042C82.8112 19.7319 83.0296 20.4033 82.9901 21.0848V25.5624H81.0349V21.7266C81.0633 21.3508 80.9536 20.9775 80.7264 20.6768C80.6154 20.5575 80.4792 20.4644 80.3278 20.4041C80.1763 20.3439 80.0134 20.3181 79.8508 20.3286C79.6861 20.3203 79.5216 20.347 79.3681 20.407C79.2146 20.4671 79.0755 20.559 78.9602 20.6768C78.7211 20.9722 78.6037 21.3476 78.6319 21.7266V25.5624H76.6766V18.642Z" fill="#575756"/>
<path d="M87.1045 25.6616C86.5969 25.6591 86.093 25.5751 85.6119 25.4129C85.0848 25.2336 84.5919 24.9661 84.1542 24.6218L84.9901 23.3382C85.3353 23.5936 85.7136 23.8011 86.1144 23.9552C86.4499 24.0834 86.8051 24.1524 87.1642 24.1591C87.3808 24.176 87.5974 24.1275 87.7861 24.0198C87.8484 23.9799 87.8994 23.9246 87.9343 23.8592C87.9691 23.7939 87.9866 23.7207 87.9851 23.6467V23.6169C87.9834 23.5158 87.9423 23.4194 87.8707 23.3482C87.7787 23.2639 87.6726 23.1966 87.5572 23.1492C87.4074 23.0885 87.2546 23.0354 87.0995 22.99L86.5572 22.8208C86.311 22.7506 86.0685 22.6675 85.8308 22.5721C85.5927 22.4754 85.3698 22.3447 85.1692 22.184C84.9654 22.026 84.796 21.8279 84.6717 21.6019C84.5413 21.3378 84.478 21.0456 84.4876 20.7512V20.7263C84.4789 20.4178 84.5407 20.1113 84.6683 19.8303C84.7959 19.5492 84.9859 19.301 85.2239 19.1044C85.46 18.9115 85.7324 18.7677 86.0249 18.6815C86.3472 18.5827 86.6828 18.5341 87.0199 18.5373C87.4726 18.5414 87.922 18.6135 88.3532 18.7512C88.7917 18.8877 89.2087 19.0854 89.592 19.3382L88.8458 20.6865C88.5292 20.5004 88.1961 20.3438 87.8507 20.2189C87.5744 20.1111 87.2815 20.0522 86.9851 20.0447C86.7963 20.0312 86.608 20.0783 86.4478 20.179C86.3921 20.2173 86.3467 20.2685 86.3155 20.3284C86.2843 20.3882 86.2682 20.4548 86.2687 20.5223V20.5472C86.2684 20.5945 86.2785 20.6413 86.2983 20.6843C86.318 20.7273 86.347 20.7654 86.3831 20.796C86.4754 20.8786 86.5794 20.9473 86.6916 20.9999C86.8354 21.0713 86.9833 21.1344 87.1343 21.189L87.6667 21.3681C87.9105 21.4477 88.1642 21.5373 88.403 21.6467C88.6419 21.745 88.8662 21.8756 89.0697 22.0348C89.2728 22.1876 89.4421 22.3806 89.5672 22.6019C89.7027 22.8502 89.7697 23.1301 89.7612 23.4129V23.4378C89.7703 23.7802 89.7023 24.1202 89.5622 24.4328C89.435 24.7035 89.2437 24.9392 89.005 25.1193C88.7502 25.3045 88.4635 25.4411 88.1592 25.5223C87.8158 25.6177 87.4608 25.6646 87.1045 25.6616Z" fill="#575756"/>
<path d="M91.4776 20.3137H90.6667V18.7067H91.4776V18.2689C91.4393 17.6672 91.6415 17.0748 92.0398 16.6222C92.2546 16.432 92.5051 16.2865 92.7768 16.1943C93.0484 16.102 93.3357 16.0648 93.6219 16.0849C93.8865 16.0811 94.1509 16.0978 94.413 16.1346C94.6154 16.1647 94.8151 16.2113 95.01 16.2739V17.8958C94.8716 17.8459 94.7304 17.8043 94.5871 17.7714C94.4349 17.7398 94.2798 17.7248 94.1244 17.7266C93.6518 17.7266 93.4179 17.9754 93.4179 18.4729V18.7465H95V20.3386H93.4329V25.5625H91.4776V20.3137Z" fill="#575756"/>
<path d="M99.4378 25.6917C98.9268 25.6979 98.4196 25.6032 97.9453 25.4131C97.5078 25.238 97.1077 24.9814 96.7662 24.6568C96.4369 24.3321 96.1734 23.947 95.99 23.5225C95.7995 23.083 95.7029 22.6085 95.7065 22.1295V22.0947C95.7029 21.6156 95.7995 21.1411 95.99 20.7016C96.1764 20.2749 96.4433 19.888 96.7761 19.5623C97.1179 19.232 97.5199 18.9702 97.9602 18.7912C98.4338 18.5979 98.9413 18.5015 99.4527 18.5076C99.9636 18.5026 100.471 18.5972 100.945 18.7862C101.38 18.9562 101.777 19.2109 102.112 19.5354C102.448 19.86 102.716 20.2479 102.9 20.6767C103.087 21.1173 103.182 21.5913 103.179 22.0698V22.0947C103.182 22.5747 103.087 23.0504 102.9 23.4927C102.714 23.9194 102.447 24.3063 102.114 24.632C101.772 24.9612 101.37 25.2229 100.93 25.4031C100.457 25.5979 99.9496 25.696 99.4378 25.6917ZM99.4627 24.0051C99.7225 24.01 99.9804 23.9591 100.219 23.8559C100.43 23.7612 100.62 23.624 100.776 23.4529C100.931 23.2786 101.051 23.0758 101.129 22.8558C101.211 22.6224 101.253 22.3769 101.254 22.1295V22.0947C101.254 21.8468 101.21 21.6008 101.124 21.3683C101.041 21.1449 100.914 20.9403 100.751 20.7663C100.586 20.5924 100.391 20.4507 100.174 20.3484C99.9432 20.243 99.6916 20.1903 99.4378 20.1942C99.1795 20.1892 98.9233 20.2401 98.6865 20.3434C98.4741 20.4364 98.2841 20.5738 98.1293 20.7464C97.9744 20.9218 97.853 21.1241 97.7711 21.3434C97.6909 21.5771 97.6505 21.8227 97.6517 22.0698V22.0947C97.6504 22.3426 97.6943 22.5887 97.7811 22.821C97.8631 23.0465 97.99 23.253 98.1542 23.428C98.3162 23.6029 98.5104 23.7448 98.7264 23.8459C98.9566 23.954 99.2084 24.0084 99.4627 24.0051Z" fill="#575756"/>
<path d="M104.597 18.6418H106.552V20.0298C106.726 19.5937 107.002 19.2062 107.358 18.9005C107.757 18.601 108.255 18.4625 108.751 18.5124V20.5572H108.647C108.363 20.5423 108.08 20.5874 107.815 20.6894C107.55 20.7914 107.31 20.9481 107.109 21.1492C106.695 21.6692 106.496 22.3278 106.552 22.99V25.5373H104.597V18.6418Z" fill="#575756"/>
<path d="M109.95 18.6419H111.94V19.6369C112.054 19.4895 112.177 19.3499 112.308 19.219C112.441 19.0824 112.59 18.9622 112.751 18.8608C112.922 18.7542 113.106 18.6706 113.299 18.612C113.519 18.5496 113.746 18.5195 113.975 18.5225C114.385 18.5116 114.79 18.6094 115.149 18.8061C115.479 18.9921 115.747 19.2705 115.92 19.607C116.192 19.2663 116.531 18.9851 116.915 18.7812C117.309 18.5913 117.742 18.4959 118.179 18.5026C118.493 18.485 118.808 18.533 119.102 18.6435C119.397 18.754 119.665 18.9245 119.891 19.1444C120.334 19.6706 120.555 20.3485 120.507 21.0349V25.5125H118.552V21.6767C118.579 21.3026 118.473 20.9311 118.254 20.6269C118.149 20.508 118.018 20.4147 117.871 20.3543C117.725 20.2939 117.566 20.268 117.408 20.2787C117.246 20.2696 117.084 20.2961 116.934 20.3563C116.784 20.4165 116.648 20.5088 116.537 20.6269C116.308 20.9269 116.197 21.3003 116.224 21.6767V25.5125H114.269V21.6767C114.294 21.3035 114.19 20.9329 113.975 20.6269C113.869 20.5084 113.737 20.4156 113.59 20.3553C113.442 20.2949 113.283 20.2688 113.124 20.2787C112.963 20.2703 112.801 20.2971 112.651 20.3573C112.501 20.4174 112.365 20.5094 112.254 20.6269C112.025 20.9269 111.913 21.3003 111.94 21.6767V25.5125H109.95V18.6419Z" fill="#575756"/>
<path d="M124.144 25.662C123.832 25.6642 123.522 25.6189 123.224 25.5277C122.949 25.445 122.694 25.308 122.473 25.1247C122.262 24.9421 122.092 24.7165 121.975 24.463C121.846 24.1789 121.781 23.8697 121.786 23.5575V23.5277C121.775 23.1846 121.845 22.8439 121.99 22.5327C122.124 22.2621 122.322 22.0282 122.567 21.8511C122.829 21.663 123.125 21.5263 123.438 21.4481C123.805 21.351 124.183 21.3042 124.562 21.3088C124.871 21.3039 125.179 21.3305 125.483 21.3884C125.742 21.4382 125.999 21.5063 126.249 21.5924V21.4779C126.261 21.3033 126.233 21.1282 126.169 20.9655C126.104 20.8028 126.004 20.6566 125.876 20.5376C125.557 20.3027 125.166 20.1897 124.771 20.2192C124.437 20.214 124.103 20.2457 123.776 20.3138C123.466 20.3833 123.162 20.4765 122.866 20.5924L122.368 19.0998C122.751 18.9331 123.147 18.7999 123.552 18.7018C124.042 18.5899 124.543 18.5381 125.045 18.5476C125.514 18.5364 125.981 18.6037 126.428 18.7466C126.783 18.8624 127.106 19.0582 127.373 19.3187C127.634 19.5842 127.826 19.9084 127.935 20.264C128.061 20.6699 128.123 21.0928 128.119 21.5177V25.4978H126.229V24.7516C125.991 25.0316 125.7 25.2616 125.373 25.4282C124.985 25.5947 124.566 25.6745 124.144 25.662ZM124.736 24.3138C125.134 24.3346 125.526 24.2168 125.846 23.9804C125.979 23.8775 126.087 23.7446 126.159 23.5925C126.232 23.4404 126.268 23.2733 126.264 23.1048V22.7565C126.08 22.6761 125.888 22.6144 125.692 22.5725C125.471 22.5232 125.246 22.4998 125.02 22.5028C124.671 22.4831 124.325 22.568 124.025 22.7466C123.909 22.8228 123.815 22.9282 123.752 23.0521C123.689 23.176 123.66 23.3143 123.667 23.4531C123.661 23.5726 123.686 23.6915 123.738 23.7992C123.79 23.9069 123.868 24 123.965 24.07C124.189 24.2335 124.46 24.3192 124.736 24.3138Z" fill="#575756"/>
<path d="M133.055 25.6915C132.563 25.6955 132.075 25.599 131.622 25.4079C131.198 25.2312 130.813 24.9722 130.489 24.6461C130.166 24.3199 129.91 23.9329 129.736 23.5074C129.556 23.0705 129.464 22.602 129.468 22.1293V22.0945C129.465 21.6186 129.557 21.147 129.736 20.7064C129.909 20.2803 130.162 19.8917 130.483 19.5621C130.808 19.2326 131.195 18.9705 131.622 18.791C132.083 18.5979 132.579 18.5014 133.08 18.5074C133.636 18.4892 134.19 18.5945 134.702 18.8158C135.129 19.0241 135.513 19.313 135.831 19.6666L134.637 20.9502C134.433 20.7372 134.202 20.5516 133.95 20.3979C133.679 20.2549 133.376 20.1846 133.07 20.194C132.836 20.1899 132.604 20.2411 132.393 20.3432C132.191 20.4393 132.011 20.5765 131.866 20.7462C131.716 20.9234 131.598 21.1254 131.517 21.3432C131.437 21.5769 131.397 21.8225 131.398 22.0696V22.0945C131.396 22.3482 131.436 22.6004 131.517 22.8407C131.595 23.0638 131.715 23.2699 131.871 23.4477C132.026 23.6176 132.214 23.7546 132.423 23.8507C132.65 23.9525 132.896 24.0034 133.144 23.9999C133.442 24.0078 133.736 23.9393 134 23.8009C134.262 23.6528 134.506 23.4741 134.726 23.2686L135.871 24.4228C135.542 24.7869 135.155 25.0945 134.726 25.3333C134.208 25.5897 133.633 25.7128 133.055 25.6915Z" fill="#575756"/>
<path d="M137.184 16.1494H139.239V17.8857H137.184V16.1494ZM137.234 18.637H139.189V25.5325H137.234V18.637Z" fill="#575756"/>
<path d="M144.413 25.6916C143.902 25.6967 143.395 25.602 142.92 25.413C142.484 25.2392 142.085 24.9824 141.746 24.6568C141.414 24.3337 141.149 23.9482 140.965 23.5225C140.775 23.083 140.678 22.6085 140.682 22.1294V22.0946C140.678 21.6156 140.775 21.1411 140.965 20.7016C141.152 20.2748 141.418 19.888 141.751 19.5623C142.093 19.232 142.495 18.9702 142.935 18.7911C143.409 18.598 143.916 18.5016 144.428 18.5076C144.939 18.5014 145.446 18.596 145.92 18.7862C146.357 18.96 146.756 19.2168 147.095 19.5424C147.427 19.8655 147.692 20.2509 147.876 20.6767C148.066 21.1162 148.163 21.5907 148.159 22.0697V22.0946C148.162 22.5752 148.066 23.0512 147.876 23.4926C147.689 23.9194 147.422 24.3062 147.09 24.6319C146.748 24.9622 146.346 25.224 145.906 25.4031C145.432 25.598 144.925 25.6961 144.413 25.6916ZM144.438 24.0051C144.696 24.0101 144.952 23.9592 145.189 23.8558C145.401 23.7612 145.59 23.624 145.746 23.4528C145.902 23.2785 146.021 23.0758 146.1 22.8558C146.184 22.623 146.226 22.377 146.224 22.1294V22.0946C146.224 21.8467 146.181 21.6008 146.095 21.3683C146.011 21.1449 145.884 20.9402 145.721 20.7663C145.558 20.5912 145.362 20.4493 145.144 20.3483C144.915 20.2435 144.665 20.1908 144.413 20.1941C144.153 20.1892 143.895 20.2401 143.657 20.3434C143.444 20.4363 143.254 20.5737 143.1 20.7464C142.944 20.9207 142.824 21.1234 142.746 21.3434C142.662 21.5762 142.62 21.8222 142.622 22.0697V22.0946C142.621 22.3426 142.664 22.5887 142.751 22.821C142.833 23.0465 142.96 23.253 143.124 23.4279C143.287 23.6018 143.481 23.7435 143.697 23.8459C143.929 23.9538 144.182 24.0083 144.438 24.0051ZM145.129 15.627L146.816 16.3583L145.169 17.9056H143.677L145.129 15.627Z" fill="#575756"/>
<path d="M149.567 18.642H151.522V19.637C151.634 19.4885 151.757 19.3488 151.891 19.2191C152.023 19.0826 152.172 18.9623 152.333 18.8609C152.501 18.7553 152.682 18.6717 152.871 18.6121C153.089 18.5498 153.315 18.5196 153.542 18.5226C153.862 18.5031 154.183 18.5541 154.481 18.6718C154.779 18.7896 155.048 18.9713 155.269 19.2042C155.702 19.7319 155.92 20.4033 155.881 21.0848V25.5624H153.925V21.7266C153.954 21.3508 153.844 20.9775 153.617 20.6768C153.506 20.5575 153.37 20.4644 153.218 20.4041C153.067 20.3439 152.904 20.3181 152.741 20.3286C152.577 20.3203 152.412 20.347 152.259 20.407C152.105 20.4671 151.966 20.559 151.851 20.6768C151.612 20.9722 151.494 21.3476 151.522 21.7266V25.5624H149.567V18.642Z" fill="#575756"/>
<path d="M58.2736 40.6619C57.9522 40.6667 57.6318 40.6231 57.3234 40.5326C57.0487 40.4474 56.7849 40.3305 56.5373 40.1843L57.194 38.7714C57.3266 38.8483 57.4666 38.9116 57.6119 38.9604C57.7455 39.0114 57.8869 39.0383 58.0298 39.04C58.1703 39.0456 58.3095 39.0129 58.4328 38.9455C58.5543 38.8514 58.6501 38.7282 58.7114 38.5873L56.0099 31.6719H58.0796L59.6468 36.3634L61.1393 31.6719H63.1841L60.5373 38.7316C60.4251 39.0412 60.287 39.3407 60.1244 39.6271C59.9908 39.8509 59.823 40.0524 59.6269 40.2241C59.4541 40.3768 59.2505 40.4904 59.0298 40.5574C58.7843 40.6292 58.5295 40.6644 58.2736 40.6619Z" fill="#575756"/>
<path d="M68.408 29.5573H72.5224C72.9982 29.5253 73.4755 29.5895 73.9259 29.7459C74.3764 29.9023 74.7907 30.1478 75.1443 30.4678C75.4061 30.7406 75.6095 31.064 75.7421 31.4181C75.8747 31.7723 75.9337 32.1498 75.9154 32.5275C75.9435 33.1642 75.756 33.7917 75.3831 34.3086C75.0198 34.765 74.5353 35.1098 73.9851 35.3036L76.1891 38.5175H73.8706L71.9403 35.6369H70.3881V38.5175H68.398L68.408 29.5573ZM72.3881 33.9305C72.7929 33.9564 73.1931 33.8324 73.5124 33.5822C73.6424 33.4667 73.745 33.3237 73.813 33.1637C73.881 33.0037 73.9126 32.8305 73.9055 32.6568V32.6319C73.9183 32.4498 73.8875 32.2673 73.8157 32.0994C73.7438 31.9316 73.6331 31.7833 73.4925 31.6668C73.158 31.434 72.7551 31.3201 72.3483 31.3434H70.3582V33.9305H72.3881Z" fill="#575756"/>
<path d="M80.7662 38.7165C80.2754 38.7213 79.7879 38.6352 79.3284 38.4627C78.9018 38.2991 78.5133 38.0494 78.1873 37.7294C77.8612 37.4093 77.6044 37.0255 77.4329 36.602C77.2485 36.1419 77.1572 35.6499 77.1642 35.1543V35.1294C77.1625 34.6555 77.2468 34.1852 77.4129 33.7413C77.5722 33.3189 77.8102 32.9306 78.1144 32.5971C78.4155 32.2685 78.7814 32.0059 79.1891 31.8259C79.6323 31.631 80.113 31.5359 80.597 31.5473C81.1115 31.536 81.6218 31.6414 82.0896 31.8558C82.4956 32.051 82.8527 32.335 83.1343 32.6866C83.4181 33.0391 83.6279 33.4452 83.7513 33.8806C83.8872 34.3376 83.9559 34.8119 83.9552 35.2886C83.9552 35.3682 83.9552 35.4478 83.9552 35.5324C83.9552 35.617 83.9552 35.7115 83.9552 35.801H79.1045C79.1714 36.1935 79.3804 36.5477 79.6915 36.7961C80.0083 37.0323 80.3962 37.1534 80.7911 37.1393C81.0916 37.1448 81.3898 37.0872 81.6667 36.9702C81.9596 36.8358 82.2285 36.6543 82.4627 36.4329L83.5821 37.4279C83.2606 37.8252 82.8566 38.1477 82.398 38.3732C81.8871 38.6097 81.3291 38.7271 80.7662 38.7165ZM82.0249 34.5772C81.9851 34.1843 81.8233 33.8137 81.5622 33.5175C81.4363 33.3807 81.282 33.2733 81.1101 33.2028C80.9381 33.1323 80.7528 33.1005 80.5672 33.1095C80.3826 33.1019 80.1985 33.1334 80.027 33.202C79.8555 33.2706 79.7005 33.3747 79.5721 33.5075C79.3038 33.8068 79.1306 34.1791 79.0746 34.5772H82.0249Z" fill="#575756"/>
<path d="M87.801 38.6918C86.7171 38.6925 85.6649 38.326 84.8159 37.652L85.6517 36.3634C85.9958 36.6207 86.3743 36.8283 86.7761 36.9804C87.1106 37.1127 87.4662 37.1835 87.8259 37.1893C88.043 37.2057 88.26 37.1553 88.4478 37.045C88.5101 37.0051 88.5611 36.9498 88.5959 36.8844C88.6308 36.8191 88.6483 36.7459 88.6468 36.6719V36.647C88.6483 36.5966 88.6388 36.5465 88.6191 36.5001C88.5993 36.4538 88.5697 36.4122 88.5323 36.3784C88.4425 36.2914 88.3358 36.2237 88.2189 36.1794C88.0846 36.1246 87.9303 36.0699 87.7612 36.0152L87.2189 35.851C86.9801 35.7814 86.7214 35.6968 86.4925 35.5973C86.2535 35.5045 86.0303 35.3752 85.8308 35.2142C85.6271 35.0541 85.4579 34.8544 85.3333 34.6271C85.2024 34.365 85.1391 34.0742 85.1492 33.7814V33.7515C85.1422 33.4301 85.2104 33.1116 85.3482 32.8212C85.4783 32.5579 85.6612 32.3241 85.8856 32.1346C86.122 31.941 86.3942 31.7956 86.6866 31.7067C87.0098 31.6125 87.3449 31.5655 87.6816 31.5674C88.1328 31.5692 88.581 31.6413 89.0099 31.7814C89.4498 31.9162 89.8684 32.1121 90.2537 32.3635L89.5075 33.7167C89.1898 33.5311 88.8569 33.373 88.5124 33.2441C88.2371 33.1388 87.9463 33.08 87.6517 33.0699C87.4607 33.0572 87.2707 33.106 87.1094 33.2092C87.0542 33.2467 87.009 33.2971 86.9777 33.3561C86.9465 33.4151 86.9303 33.4808 86.9303 33.5475V33.5724C86.9312 33.6203 86.9418 33.6674 86.9615 33.711C86.9812 33.7546 87.0095 33.7938 87.0448 33.8261C87.1384 33.9071 87.242 33.9757 87.3532 34.0301C87.4826 34.0948 87.6318 34.1545 87.796 34.2192L88.3333 34.3983C88.5721 34.4729 88.8308 34.5674 89.0647 34.6719C89.3028 34.7738 89.5269 34.9059 89.7313 35.0649C89.9329 35.2194 90.1019 35.4122 90.2288 35.6321C90.3627 35.8809 90.4279 36.1608 90.4179 36.4431V36.4679C90.4272 36.8104 90.3592 37.1505 90.2189 37.463C90.0922 37.7354 89.9009 37.9728 89.6617 38.1545C89.4087 38.3396 89.1236 38.4762 88.8209 38.5575C88.4884 38.6476 88.1454 38.6928 87.801 38.6918Z" fill="#575756"/>
<path d="M91.8756 29.1743H93.9353V30.9106H91.8756V29.1743ZM91.9253 31.6619H93.8806V38.5624H91.9253V31.6619Z" fill="#575756"/>
<path d="M95.8109 29.1743H97.7662V38.5624H95.8109V29.1743Z" fill="#575756"/>
<path d="M99.6418 29.1743H101.701V30.9106H99.6418V29.1743ZM99.6965 31.6619H101.647V38.5624H99.6965V31.6619Z" fill="#575756"/>
<path d="M106.756 38.7165C106.265 38.7213 105.778 38.6352 105.318 38.4627C104.892 38.2991 104.503 38.0494 104.177 37.7294C103.851 37.4093 103.594 37.0255 103.423 36.602C103.239 36.1419 103.147 35.6499 103.154 35.1543V35.1294C103.153 34.6555 103.237 34.1852 103.403 33.7413C103.562 33.3189 103.8 32.9306 104.104 32.5971C104.406 32.2685 104.771 32.0059 105.179 31.8259C105.614 31.6328 106.086 31.5361 106.562 31.5423C107.077 31.531 107.587 31.6364 108.055 31.8508C108.461 32.046 108.818 32.33 109.1 32.6816C109.383 33.0342 109.593 33.4403 109.716 33.8757C109.852 34.3326 109.921 34.8069 109.92 35.2836C109.92 35.3632 109.92 35.4428 109.92 35.5274C109.92 35.612 109.92 35.7065 109.92 35.7961H105.124C105.191 36.1886 105.4 36.5427 105.711 36.7911C106.028 37.0273 106.416 37.1484 106.811 37.1344C107.11 37.1403 107.407 37.0827 107.682 36.9652C107.977 36.8322 108.248 36.6505 108.483 36.4279L109.602 37.4229C109.281 37.8202 108.877 38.1427 108.418 38.3682C107.898 38.6109 107.33 38.7301 106.756 38.7165ZM108.015 34.5772C107.975 34.1843 107.813 33.8137 107.552 33.5175C107.426 33.3807 107.272 33.2733 107.1 33.2028C106.928 33.1323 106.743 33.1005 106.557 33.1095C106.373 33.1031 106.189 33.1352 106.018 33.2037C105.846 33.2722 105.691 33.3757 105.562 33.5075C105.294 33.8066 105.12 34.179 105.065 34.5772H108.015Z" fill="#575756"/>
<path d="M111.373 31.6715H113.323V32.6666C113.437 32.5176 113.56 32.3763 113.692 32.2437C113.825 32.1095 113.974 31.991 114.134 31.8905C114.303 31.7828 114.485 31.6991 114.677 31.6417C114.893 31.579 115.118 31.5488 115.343 31.5521C115.664 31.5333 115.985 31.5845 116.284 31.7022C116.583 31.8199 116.853 32.0013 117.075 32.2337C117.508 32.7594 117.726 33.4294 117.687 34.1094V38.587H115.731V34.7511C115.758 34.3771 115.649 34.0059 115.423 33.7064C115.312 33.5867 115.176 33.493 115.025 33.432C114.873 33.3709 114.71 33.344 114.547 33.3531C114.381 33.3451 114.216 33.3724 114.061 33.4333C113.907 33.4942 113.767 33.5873 113.652 33.7064C113.414 34.0004 113.296 34.3739 113.323 34.7511V38.587H111.373V31.6715Z" fill="#575756"/>
<path d="M122.637 38.7167C122.145 38.7217 121.657 38.6252 121.204 38.4331C120.779 38.2593 120.393 38.0021 120.069 37.6765C119.745 37.3509 119.49 36.9636 119.318 36.5376C119.138 36.0988 119.047 35.6287 119.05 35.1545V35.1296C119.048 34.6538 119.139 34.1822 119.318 33.7416C119.489 33.3146 119.743 32.9257 120.065 32.5973C120.389 32.2662 120.776 32.0039 121.204 31.8261C121.665 31.6326 122.161 31.5361 122.662 31.5425C123.218 31.5243 123.772 31.6297 124.284 31.851C124.712 32.0557 125.096 32.3432 125.413 32.6968L124.219 33.9853C124.017 33.7695 123.786 33.5836 123.532 33.4331C123.261 33.2855 122.955 33.2134 122.647 33.2241C122.414 33.2209 122.184 33.272 121.975 33.3734C121.773 33.4713 121.593 33.6102 121.448 33.7814C121.294 33.9557 121.175 34.1585 121.099 34.3784C121.017 34.6117 120.975 34.8573 120.975 35.1047V35.1296C120.975 35.3836 121.017 35.6358 121.099 35.8759C121.174 36.0989 121.294 36.304 121.453 36.4779C121.606 36.6508 121.794 36.7898 122.005 36.8858C122.232 36.9877 122.478 37.0386 122.726 37.0351C123.024 37.04 123.317 36.9717 123.582 36.8361C123.846 36.6879 124.09 36.5074 124.308 36.2988L125.453 37.458C125.125 37.822 124.738 38.1281 124.308 38.3635C123.79 38.6208 123.215 38.7424 122.637 38.7167Z" fill="#575756"/>
<path d="M126.766 29.1743H128.821V30.9106H126.766V29.1743ZM126.816 31.6619H128.771V38.5624H126.816V31.6619Z" fill="#575756"/>
<path d="M132.562 38.6915C132.252 38.6937 131.943 38.6484 131.647 38.5572C131.37 38.4746 131.113 38.3376 130.891 38.1542C130.68 37.9695 130.51 37.7423 130.393 37.4876C130.264 37.2034 130.201 36.8939 130.209 36.5821V36.5572C130.195 36.2139 130.265 35.8724 130.413 35.5622C130.546 35.2921 130.742 35.0582 130.985 34.8806C131.247 34.6887 131.545 34.5501 131.861 34.4726C132.228 34.3794 132.606 34.3343 132.985 34.3383C133.294 34.3346 133.602 34.3596 133.905 34.4129C134.165 34.4674 134.421 34.5371 134.672 34.6219V34.5323C134.683 34.3577 134.656 34.1826 134.592 34.0199C134.527 33.8572 134.427 33.711 134.299 33.592C133.979 33.3546 133.586 33.2398 133.189 33.2686C132.855 33.2654 132.521 33.2987 132.194 33.3681C131.886 33.4383 131.584 33.5297 131.289 33.6418L130.791 32.1492C131.173 31.9869 131.568 31.8539 131.97 31.7512C132.46 31.6418 132.961 31.59 133.463 31.597C133.931 31.5879 134.399 31.6551 134.846 31.796C135.2 31.9125 135.523 32.1082 135.791 32.3681C136.054 32.6327 136.248 32.9571 136.358 33.3134C136.482 33.7195 136.543 34.1425 136.537 34.5672V38.5473H134.647V37.801C134.406 38.0691 134.113 38.2857 133.786 38.4378C133.402 38.6127 132.984 38.6994 132.562 38.6915ZM133.154 37.3433C133.554 37.3626 133.947 37.243 134.269 37.005C134.403 36.9036 134.51 36.7717 134.583 36.6203C134.656 36.4688 134.691 36.3022 134.687 36.1343V35.7861C134.502 35.7045 134.311 35.6412 134.114 35.597C133.892 35.5502 133.665 35.5268 133.438 35.5274C133.089 35.5091 132.743 35.5939 132.443 35.7711C132.327 35.8481 132.234 35.9536 132.171 36.0773C132.108 36.2011 132.078 36.339 132.085 36.4776V36.5224C132.079 36.6415 132.102 36.7601 132.154 36.8678C132.205 36.9754 132.282 37.0687 132.378 37.1393C132.608 37.2891 132.88 37.3607 133.154 37.3433Z" fill="#575756"/>
</g>
<defs>
<clipPath id="clip0_31_16675">
<rect width="200" height="40.796" fill="white" transform="translate(0 0.204102)"/>
</clipPath>
</defs>
</svg>
