<svg width="199" height="230" viewBox="0 0 199 230" fill="none" xmlns="http://www.w3.org/2000/svg">
<g clip-path="url(#clip0_29_8539)">
<path d="M18.856 192.348C-18.3809 158.25 5.91973 66.9194 40.0127 29.6824C74.1057 -7.55453 131.934 -10.1027 169.171 23.9952C206.408 58.0882 208.956 115.916 174.863 153.153C140.77 190.39 56.093 226.441 18.856 192.348Z" fill="#E6EBEE"/>
<path d="M48.9099 225.939C19.1995 224.026 38.5884 218.903 65.7903 216.814C92.9922 214.725 139.132 214.582 168.842 216.495C198.552 218.407 200.586 221.651 173.384 223.74C146.182 225.829 78.6203 227.851 48.9099 225.939Z" fill="#CECECE"/>
<path d="M135.978 82.746C139.232 81.3893 140.524 79.1164 139.928 75.6721C138.071 64.8985 136.183 54.1299 134.331 43.3563C132.699 33.8544 131.082 24.3474 129.49 14.8354C129.095 12.4824 128.794 10.1295 127.608 7.97674C127.122 7.09563 126.586 6.98048 125.72 7.20076C124.359 7.5512 122.987 7.87161 121.6 8.11191C103.978 11.1608 86.3557 14.1896 68.7334 17.2284C54.4955 19.6815 40.2575 22.1196 26.0196 24.5927C20.8381 25.4938 19.1609 27.7817 19.7016 32.9933C19.992 35.8018 20.818 38.5002 21.3087 41.2687C22.6403 48.7632 23.957 56.2626 25.2386 63.7671C26.9207 73.6195 28.7731 83.4419 30.2599 93.3244C30.6154 95.6923 30.9859 98.0403 32.1974 100.163C32.6029 100.874 33.0234 101.224 33.9696 101.009C41.6193 99.2518 49.359 97.9402 57.0938 96.6135C80.5634 92.5834 104.028 88.5233 127.493 84.4532C130.331 83.9626 133.255 83.8624 135.968 82.736L135.978 82.746Z" fill="#FEFEFE"/>
<path d="M23.1109 97.4746C22.1497 94.9715 21.8793 92.3281 21.5289 89.6948C20.5376 82.2204 19.0458 74.8311 17.7992 67.4017C16.092 57.1938 14.2848 47.006 12.5125 36.8131C12.127 34.5853 11.5363 32.3875 11.4662 30.1097C11.3461 26.1697 12.7128 24.2172 16.4976 23.1809C22.6503 21.4938 28.9633 20.6427 35.2662 19.7316C48.6781 17.7891 61.9949 15.276 75.3518 12.9981C84.5884 11.4211 93.8451 9.95926 103.037 8.12695C108.358 7.06561 113.645 5.81904 119.077 5.39351C123.207 5.0681 127.252 5.4686 131.272 6.42481C134.657 7.23082 136.604 9.23335 137.195 12.7077C140.409 31.6066 143.673 50.5004 146.917 69.3942C147.388 72.1276 147.873 74.8511 148.294 77.5895C148.839 81.159 146.962 83.9225 143.428 84.7135C134.882 86.6209 126.211 87.8375 117.59 89.3043C104.398 91.5471 75.3768 95.0616 62.1902 97.3194C61.6745 97.4095 59.5769 98.2155 59.0662 98.3056C58.4304 98.4158 57.5293 98.7012 56.8885 98.8113C54.1751 99.2769 54.0649 99.8776 51.3515 100.343C42.1899 101.915 48.1174 101.229 38.9609 102.826C37.8795 103.017 36.7881 103.077 35.6968 102.876C33.0785 102.406 30.4551 101.965 27.8469 101.46C25.554 101.019 23.982 99.6674 23.1209 97.4896L23.1109 97.4746ZM135.978 82.746C139.232 81.3893 140.524 79.1165 139.928 75.6721C138.071 64.8985 136.183 54.13 134.331 43.3564C132.699 33.8544 131.082 24.3474 129.49 14.8354C129.095 12.4824 128.794 10.1295 127.608 7.97676C127.122 7.09565 126.586 6.98051 125.72 7.20078C124.359 7.55123 122.987 7.87163 121.6 8.11193C103.978 11.1608 86.3556 14.1896 68.7334 17.2284C54.4955 19.6815 40.2575 22.1196 26.0196 24.5927C20.838 25.4939 19.1609 27.7817 19.7016 32.9933C19.992 35.8018 20.818 38.5002 21.3086 41.2687C22.6403 48.7632 23.957 56.2626 25.2386 63.7671C26.9207 73.6195 28.773 83.4419 30.2599 93.3244C30.6154 95.6924 30.9858 98.0403 32.1973 100.163C32.6029 100.874 33.0234 101.224 33.9696 101.009C41.6192 99.2518 37.7794 100.053 45.5141 98.7262C50.3552 97.8951 49.0886 97.1142 53.9298 96.2831C54.5255 96.178 54.8759 96.218 55.4767 96.1129C56.0775 96.0078 56.9536 95.7625 57.5693 95.6523C74.9813 92.6535 110.081 87.472 127.488 84.4532C130.326 83.9626 133.25 83.8624 135.963 82.736L135.978 82.746Z" fill="#1B2F41"/>
<path d="M35.2513 72.9086C34.8858 71.8823 34.7356 70.836 34.5554 69.7897C34.0498 66.826 33.3889 63.8622 32.8032 60.9035C32.0022 56.8334 31.1711 52.7682 30.3501 48.6981C30.1699 47.807 29.9296 46.9209 29.8445 46.0297C29.6993 44.4878 30.0697 43.8019 31.2012 43.5967C33.0485 43.2663 34.9659 43.2763 36.8783 43.2562C40.9485 43.2162 44.9735 42.9509 49.0136 42.7756C51.8122 42.6555 54.6157 42.5804 57.3892 42.3551C58.9962 42.2249 60.5882 42.0197 62.2453 42.1448C63.5069 42.24 64.7585 42.6104 66.0201 43.2012C67.0814 43.6968 67.7322 44.5779 68.0076 45.9647C69.5095 53.5042 71.0214 61.0387 72.5333 68.5782C72.7536 69.6696 72.9738 70.7559 73.1791 71.8473C73.4444 73.2691 72.9438 74.2453 71.8775 74.3605C69.3042 74.6458 66.6709 74.6558 64.0576 74.766C60.0626 74.9362 56.6132 74.8561 52.6232 75.0313C52.468 75.0363 49.7546 73.1339 49.5994 73.1389C49.4041 73.1489 51.2314 75.3217 51.0362 75.3317C50.2151 75.3667 49.3941 75.4018 48.5731 75.4418C45.7996 75.567 43.0311 75.7022 40.2576 75.8323C39.9272 75.8473 39.5968 75.8123 39.2563 75.6771C38.4403 75.3517 37.6193 75.0413 36.8032 74.7059C36.0873 74.4105 35.5667 73.7998 35.2413 72.9036L35.2513 72.9086ZM69.5445 73.204C70.5107 72.8486 70.8412 72.0325 70.5658 70.6608C69.7047 66.3654 68.8336 62.065 67.9725 57.7695C67.2116 53.9798 66.4606 50.185 65.7097 46.3952C65.5244 45.459 65.3692 44.5228 64.9437 43.6217C64.7735 43.2512 64.6033 43.1761 64.343 43.2212C63.9324 43.2863 63.5219 43.3363 63.1014 43.3564C57.7697 43.6017 52.4329 43.842 47.1012 44.0823C42.7908 44.2775 38.4803 44.4678 34.1749 44.668C32.6079 44.7431 32.1524 45.5441 32.4628 47.6017C32.628 48.7131 32.9534 49.8095 33.1787 50.9109C33.7894 53.9047 34.4002 56.8984 34.996 59.8872C35.7819 63.8172 36.613 67.7421 37.3389 71.6721C37.5141 72.6133 37.6893 73.5494 38.1199 74.4406C38.2651 74.7409 38.4002 74.9011 38.6856 74.8661C40.9885 74.5908 43.3315 74.4956 45.6744 74.3905C47.1413 74.3254 48.6031 74.2603 50.07 74.1953C50.2502 74.1852 49.2089 72.8936 49.3891 72.8886C49.5693 72.8836 50.9861 74.1552 51.1713 74.1452C56.443 73.9049 61.7146 73.6646 66.9813 73.4193C67.8424 73.3792 68.7385 73.4994 69.5395 73.204H69.5445Z" fill="#FFCD05"/>
<path d="M58.8611 38.4352C59.1916 38.5754 59.557 38.5904 59.8924 38.7156C60.0977 38.7906 60.2078 39.056 60.4682 38.9959C60.8787 39.2612 61.2892 39.5216 61.6997 39.7919C61.7448 39.8219 61.8749 39.842 61.7798 39.9721C61.4744 40.3877 61.6446 40.8382 62.1503 40.9484C62.3656 40.9934 62.5908 41.0034 62.8161 40.9584C62.9713 40.9283 63.1015 40.9434 63.1566 41.1236C62.711 41.2788 62.6309 41.3288 62.3956 41.6092C62.6509 41.6693 62.8912 41.6292 63.1315 41.6493C63.477 41.6743 63.7723 41.7794 63.9876 42.1048C65.5546 44.4478 66.1353 47.011 65.6147 49.7845C65.2792 51.5868 64.5233 53.1938 63.2066 54.5105C61.9951 55.722 60.7836 56.9385 59.5921 58.1801C58.0701 59.7671 56.7535 61.5043 55.7672 63.4868C55.0563 64.9086 54.7159 66.4405 54.3855 67.9775C53.955 69.9499 53.3041 71.8473 52.1727 73.5395C51.6771 74.2804 51.0813 74.9462 50.1852 75.1966C48.8735 75.557 47.5319 75.6471 46.1751 75.4619C46.055 75.4469 45.9348 75.3918 45.8147 75.4619C45.6545 75.2666 45.4142 75.3467 45.2089 75.2867C45.2139 75.0914 45.1088 75.0714 44.9536 75.1215H44.9586C44.9836 74.9262 44.7934 74.9162 44.6983 74.8461C44.1176 74.4156 43.647 73.8849 43.2915 73.2591C42.5656 71.9775 42.3453 70.5757 42.3203 69.1339C42.2752 66.4605 42.6857 63.8372 43.1463 61.2189C43.1764 61.0587 43.2565 61.0087 43.4016 60.9636C44.1075 60.7433 44.5281 60.1476 44.5281 59.4016C44.5281 59.3015 44.5281 59.2014 44.5281 59.0963C44.5681 59.0963 44.5982 59.0963 44.6282 59.0963C46.075 59.0712 47.0713 57.8547 46.8009 56.4379C46.6858 55.8421 46.8009 55.2865 47.1964 54.8359C47.8773 54.0549 48.0826 53.1988 47.8422 52.1976C47.7021 51.6168 47.9123 51.2814 48.438 51.0711C49.5644 50.6156 50.1502 49.7144 50.1151 48.4528C50.1151 48.3026 50.1552 48.2476 50.2953 48.1925C50.9512 47.9322 51.2215 47.2113 50.8861 46.6005C50.801 46.4403 50.781 46.3201 50.8911 46.1549C51.1214 45.8095 51.2215 45.419 51.1564 45.0085C51.1114 44.7432 51.1664 44.653 51.4618 44.653C52.0375 44.653 52.5131 44.1424 52.373 43.6267C52.2678 43.2312 52.2178 42.8708 52.373 42.4903C52.398 42.4302 52.398 42.3551 52.388 42.2901C52.368 42.1098 52.438 42.0548 52.6233 42.0347C53.0789 41.9847 53.4143 41.6342 53.3292 41.2287C53.2641 40.9133 53.4043 40.7882 53.6045 40.643C53.7597 40.5328 53.9049 40.4077 54.0601 40.3076C54.5107 40.0072 54.9863 39.9621 55.4869 40.1824C55.8073 40.3226 56.1427 40.3927 56.4331 40.1373C56.7485 39.857 56.9938 39.5266 56.8887 39.056C56.8686 38.9709 56.8186 38.8607 56.9487 38.8357C57.2641 38.7856 57.5345 38.4803 57.8949 38.6855C58.0301 38.7606 58.2203 38.7306 58.2904 38.5954C58.4406 38.31 58.6509 38.3901 58.8712 38.4452L58.8611 38.4352ZM61.3693 45.4941C60.9287 45.6092 60.4882 45.7394 60.0376 45.8345C59.8224 45.8796 59.7873 45.9847 59.8023 46.175C59.8474 46.8258 60.328 47.4466 60.9738 47.6668C61.6447 47.8971 62.3906 47.6869 62.8462 47.1412C63.2967 46.6055 63.3768 45.8145 63.0614 45.2238C62.9813 45.0736 62.8862 45.0936 62.7561 45.1236C62.2905 45.2488 61.8249 45.3689 61.3643 45.4891L61.3693 45.4941ZM61.5645 43.4615C61.6096 43.6568 61.5145 43.7619 61.2942 43.6918C60.8987 43.5617 60.5633 43.6718 60.2329 43.9021C60.0426 44.0323 60.2028 44.1224 60.2429 44.2025C60.2829 44.2776 60.298 44.5028 60.4832 44.3527C60.8036 44.0923 61.149 44.1875 61.4995 44.2575C61.5946 44.2776 61.6947 44.3276 61.7898 44.2676C61.9651 44.1624 62.1503 43.4966 62.0602 43.3013C61.5195 42.1148 60.9788 40.9283 60.4431 39.7368C60.3731 39.5766 60.313 39.5015 60.1277 39.6167C59.9926 39.7018 59.8424 39.7168 59.9575 39.9421C60.2078 40.4527 60.4431 40.9734 60.6784 41.4891C60.9738 42.1399 61.2642 42.7907 61.5696 43.4716L61.5645 43.4615ZM55.7322 42.8107C56.1177 42.7156 56.4881 42.4953 56.8136 42.1949C56.9938 42.0297 57.0639 41.8295 57.0338 41.5942C56.9888 41.2337 56.6884 41.0235 56.4381 41.1987C55.9174 41.5591 55.4218 41.9446 54.9112 42.3201C54.781 42.4152 54.756 42.5404 54.796 42.6755C54.8361 42.8107 54.9512 42.8908 55.0964 42.9058C55.3017 42.9259 55.4969 42.8808 55.7372 42.8157L55.7322 42.8107ZM57.0489 42.8608C56.8686 42.8307 56.7535 42.7957 56.6333 42.7957C56.2679 42.8007 55.9224 42.8858 55.7172 43.2262C55.6321 43.3664 55.607 43.5266 55.7722 43.6368C55.9224 43.7369 56.0526 43.6818 56.1327 43.5366C56.2078 43.4015 56.343 43.3464 56.4581 43.2663C56.6383 43.1461 56.8536 43.0811 57.0489 42.8558V42.8608Z" fill="#FEFEFE"/>
<path d="M58.861 38.4352C58.6408 38.3851 58.4305 38.3 58.2803 38.5854C58.2102 38.7155 58.02 38.7456 57.8848 38.6755C57.5244 38.4702 57.254 38.7756 56.9386 38.8257C56.8085 38.8457 56.8585 38.9608 56.8785 39.0459C56.9837 39.5115 56.7384 39.847 56.423 40.1273C56.1376 40.3826 55.7972 40.3125 55.4768 40.1724C54.9761 39.9521 54.5005 39.9971 54.05 40.2975C53.8948 40.4027 53.7496 40.5228 53.5944 40.6329C53.3941 40.7781 53.254 40.9033 53.3191 41.2187C53.4042 41.6242 53.0637 41.9696 52.6132 42.0247C52.4329 42.0447 52.3578 42.0998 52.3779 42.28C52.3829 42.3451 52.3879 42.4202 52.3628 42.4803C52.2127 42.8608 52.2627 43.2212 52.3628 43.6167C52.503 44.1324 52.0274 44.648 51.4517 44.643C51.1563 44.643 51.1063 44.7331 51.1463 44.9985C51.2114 45.409 51.1163 45.7995 50.881 46.1449C50.7708 46.3101 50.7859 46.4303 50.876 46.5905C51.2064 47.2062 50.9411 47.9271 50.2852 48.1825C50.1451 48.2375 50.1 48.2976 50.105 48.4428C50.135 49.6994 49.5543 50.6055 48.4279 51.0611C47.9022 51.2714 47.692 51.6068 47.8321 52.1875C48.0724 53.1888 47.8672 54.0499 47.1863 54.8258C46.7958 55.2764 46.6757 55.8271 46.7908 56.4279C47.0612 57.8447 46.0649 59.0612 44.6181 59.0862C44.588 59.0862 44.558 59.0862 44.518 59.0862C44.518 59.1913 44.518 59.2915 44.518 59.3916C44.518 60.1375 44.0924 60.7333 43.3915 60.9536C43.2464 60.9986 43.1663 61.0487 43.1362 61.2089C42.6756 63.8272 42.2651 66.4555 42.3102 69.1239C42.3352 70.5657 42.5555 71.9725 43.2814 73.2491C43.6368 73.8799 44.1074 74.4055 44.6882 74.8361C44.7833 74.9062 44.9785 74.9162 44.9485 75.1114C44.1625 74.9162 43.5017 74.4806 42.9259 73.9349C42.0549 73.1089 41.5742 72.0626 41.3139 70.9111C40.8784 69.0087 41.0586 67.1013 41.2789 65.1939C41.4291 63.8773 41.6243 62.5656 41.8546 61.2439C41.6293 61.304 41.4641 61.4342 41.2989 61.5643C40.8633 61.9098 40.3878 62.0199 39.8571 61.8197C39.772 61.7896 39.6919 61.7646 39.6018 61.7996C38.2701 62.3553 37.1437 61.8747 36.0723 61.0988C35.2262 60.488 34.4302 59.8322 33.9396 58.881C33.5141 58.0549 33.6142 57.369 34.25 56.7082C34.5153 56.4329 34.5404 56.1826 34.2951 55.767C34.0948 55.4316 33.8595 55.1212 33.6442 54.7958C33.1236 54.0298 33.3889 53.1688 34.255 52.8433C34.4002 52.7883 34.4503 52.7432 34.4002 52.588C34.275 52.2126 34.4002 51.8871 34.6205 51.5868C34.9709 51.1112 35.4065 50.7006 35.6718 50.16C35.9972 49.4941 36.0473 48.7932 35.9822 48.0723C35.8721 46.9159 36.4978 45.8395 37.5542 45.3689C37.9447 45.1987 38.3502 45.1637 38.7657 45.2187C38.9309 45.2388 38.981 45.1987 39.016 45.0285C39.2463 43.807 40.0774 43.016 41.3189 42.8457C42.0248 42.7456 42.6456 42.4653 43.1913 42.0247C43.5417 41.7393 43.9072 41.494 44.3578 41.4039C44.4879 41.3789 44.523 41.3238 44.543 41.1886C44.6732 40.4477 45.374 40.1223 46.0399 40.4978C46.1801 40.5779 46.2351 40.5478 46.3403 40.4477C46.7157 40.0973 47.1613 39.917 47.6819 39.9671C47.8371 39.9821 47.8822 39.9721 47.8522 39.7819C47.7921 39.3714 48.0124 39.056 48.3678 38.9558C48.7333 38.8557 49.0537 39.0009 49.2389 39.3914C49.299 39.5215 49.329 39.5666 49.4642 39.4815C49.5793 39.4114 49.7496 39.3914 49.8547 39.4465C50.1551 39.6067 50.3553 39.4314 50.5806 39.2963C51.5919 38.6755 52.6782 38.26 53.8397 38.0297C54.055 37.9846 54.1952 37.8845 54.3203 37.7093C54.8059 37.0034 55.4818 36.9283 56.1576 37.504C56.3929 37.1586 56.6933 36.9333 57.1389 37.0835C57.5194 37.2136 57.7046 37.494 57.6946 37.9195C58.04 37.7493 58.2853 37.8244 58.4405 38.1698C58.5156 38.3351 58.816 38.1999 58.851 38.4452L58.861 38.4352Z" fill="#192D3F"/>
<path d="M45.8098 75.4469C45.93 75.3818 46.0501 75.4318 46.1703 75.4469C47.527 75.6321 48.8637 75.547 50.1803 75.1815C51.0815 74.9362 51.6722 74.2704 52.1678 73.5244C53.2993 71.8273 53.9501 69.9349 54.3806 67.9624C54.716 66.4255 55.0565 64.8936 55.7624 63.4718C56.7486 61.4943 58.0603 59.7521 59.5872 58.1651C60.7787 56.9285 61.9852 55.712 63.2017 54.4954C64.5184 53.1788 65.2744 51.5667 65.6098 49.7695C66.1304 46.996 65.5497 44.4378 63.9827 42.0898C63.7675 41.7644 63.4721 41.6643 63.1267 41.6342C62.8864 41.6142 62.641 41.6542 62.3907 41.5942C62.626 41.3138 62.7061 41.2638 63.1517 41.1086C63.0966 40.9283 62.9664 40.9133 62.8113 40.9433C62.591 40.9884 62.3657 40.9834 62.1454 40.9333C61.6448 40.8232 61.4696 40.3726 61.7749 39.9571C61.8751 39.8219 61.7449 39.8069 61.6948 39.7769C61.2893 39.5065 60.8738 39.2462 60.4633 38.9809C60.6035 38.9058 60.7286 38.9759 60.8438 39.0309C61.1391 39.1661 61.4646 39.2662 61.7149 39.4615C62.2656 39.892 62.8813 39.9571 63.5422 39.907C63.6323 39.902 63.7224 39.907 63.8075 39.907C63.9577 39.907 64.0628 39.9871 64.1079 40.1273C64.158 40.2725 64.1129 40.3977 64.0028 40.4878C63.8826 40.5829 63.7524 40.658 63.6073 40.7531C64.4483 41.5241 65.1842 42.3601 65.7099 43.3564C67.5622 46.8758 67.402 50.3402 65.3895 53.7395C64.8739 54.6106 64.0929 55.2664 63.392 55.9873C62.0002 57.4191 60.5784 58.8159 59.2968 60.3528C57.5096 62.5005 56.3431 64.9286 55.7423 67.652C55.3569 69.4042 54.9614 71.1614 54.1203 72.7685C53.5646 73.8348 52.9188 74.8411 51.8024 75.4218C50.9563 75.8624 50.0301 75.9325 49.099 75.9625C47.9625 76.0026 46.8611 75.8474 45.7998 75.4418L45.8098 75.4469Z" fill="#192D3F"/>
<path d="M44.9536 75.1064C45.1088 75.0564 45.2139 75.0764 45.2089 75.2716C45.1388 75.1915 44.9937 75.2266 44.9536 75.1064Z" fill="#192D3F"/>
<path d="M61.3692 45.4941C61.8348 45.3739 62.3004 45.2538 62.761 45.1286C62.8861 45.0936 62.9812 45.0735 63.0663 45.2287C63.3817 45.8195 63.3016 46.6105 62.8511 47.1461C62.3905 47.6918 61.6445 47.9021 60.9787 47.6718C60.3329 47.4515 59.8523 46.8307 59.8072 46.1799C59.7922 45.9847 59.8273 45.8846 60.0425 45.8395C60.4881 45.7444 60.9286 45.6142 61.3742 45.4991L61.3692 45.4941ZM61.5394 45.9847C61.239 46.0648 60.9387 46.1649 60.6333 46.215C60.3129 46.265 60.3579 46.4252 60.4681 46.6255C60.7334 47.1161 61.3742 47.3664 61.9049 47.1862C62.4506 47.001 62.806 46.4453 62.7409 45.8896C62.7209 45.7344 62.6758 45.6793 62.5106 45.7294C62.1902 45.8245 61.8648 45.9046 61.5394 45.9847Z" fill="#192D3F"/>
<path d="M61.5645 43.4615C61.2591 42.7807 60.9687 42.1298 60.6734 41.479C60.4381 40.9634 60.2078 40.4427 59.9525 39.9321C59.8423 39.7068 59.9875 39.6918 60.1227 39.6067C60.3079 39.4915 60.368 39.5666 60.4381 39.7268C60.9737 40.9183 61.5144 42.1048 62.0551 43.2913C62.1452 43.4865 61.96 44.1524 61.7848 44.2575C61.6896 44.3176 61.5895 44.2675 61.4944 44.2475C61.144 44.1824 60.7985 44.0873 60.4781 44.3426C60.2929 44.4928 60.2779 44.2675 60.2378 44.1924C60.1928 44.1123 60.0376 44.0222 60.2278 43.8921C60.5582 43.6668 60.8886 43.5566 61.2891 43.6818C61.5094 43.7519 61.6045 43.6518 61.5595 43.4515L61.5645 43.4615Z" fill="#192D3F"/>
<path d="M55.7322 42.8107C55.4919 42.8758 55.2967 42.9208 55.0914 42.9008C54.9462 42.8858 54.8311 42.8057 54.791 42.6705C54.751 42.5403 54.781 42.4102 54.9062 42.315C55.4168 41.9446 55.9175 41.5541 56.4331 41.1936C56.6834 41.0184 56.9838 41.2287 57.0289 41.5891C57.0589 41.8244 56.9888 42.0247 56.8086 42.1899C56.4832 42.4903 56.1177 42.7105 55.7272 42.8057L55.7322 42.8107Z" fill="#192D3F"/>
<path d="M57.0487 42.8607C56.8585 43.081 56.6382 43.1511 56.458 43.2713C56.3378 43.3514 56.2077 43.4064 56.1326 43.5416C56.0475 43.6868 55.9173 43.7418 55.7721 43.6417C55.6069 43.5316 55.632 43.3664 55.7171 43.2312C55.9223 42.8908 56.2678 42.8057 56.6332 42.8007C56.7534 42.8007 56.8685 42.8357 57.0487 42.8657V42.8607Z" fill="#192D3F"/>
<path d="M61.5392 45.9847C61.8646 45.8996 62.19 45.8245 62.5104 45.7294C62.6756 45.6793 62.7257 45.7344 62.7407 45.8896C62.8058 46.4453 62.4503 47.001 61.9047 47.1862C61.374 47.3664 60.7332 47.1161 60.4678 46.6255C60.3577 46.4252 60.3127 46.2651 60.6331 46.215C60.9384 46.1649 61.2388 46.0648 61.5392 45.9847Z" fill="#FEFEFE"/>
<path d="M73.4196 38.3033C73.7241 37.2645 74.018 36.2646 74.3069 35.264C74.3953 34.963 74.5743 34.8419 74.9113 34.819C84.4965 34.1949 94.081 33.5404 103.65 32.7117C110.368 32.1248 117.081 31.5373 123.798 30.9553C124.064 30.9325 124.329 30.8134 124.645 30.8989C124.309 31.8018 124.23 32.7513 123.978 33.6662C123.854 34.1137 123.62 34.3383 123.108 34.3818C118.414 34.7861 113.716 35.2103 109.023 35.6452C101.515 36.3423 93.9967 36.8709 86.4824 37.4406C82.3216 37.754 78.1489 38.01 73.9881 38.2881C73.8147 38.2988 73.637 38.3039 73.4182 38.3132L73.4196 38.3033Z" fill="#1B2F41"/>
<path d="M125.42 40.1718C125.088 41.0145 125.003 41.9279 124.782 42.8067C124.656 43.3045 124.424 43.5496 123.86 43.6059C113.632 44.624 103.381 45.4467 93.1341 46.2447C87.0902 46.715 81.0399 47.0884 74.9881 47.507C74.8296 47.5199 74.6703 47.5023 74.511 47.5201C74.2589 47.55 74.1937 47.475 74.275 47.2236C74.5527 46.3377 74.8212 45.4454 75.0698 44.5504C75.1716 44.1906 75.3676 44.0567 75.745 44.0345C81.0449 43.7466 86.3362 43.3411 91.6283 42.9661C101.032 42.3011 110.416 41.4563 119.805 40.6475C121.664 40.4871 123.526 40.3323 125.409 40.1753L125.42 40.1718Z" fill="#1A2E40"/>
<path d="M105.9 51.1296C105.795 52.0501 105.683 52.9748 105.592 53.9024C105.551 54.296 105.385 54.4646 104.959 54.5102C98.8496 55.1583 92.7257 55.6931 86.594 56.1055C82.7285 56.3699 78.8623 56.6392 74.9287 56.7776C75.0803 55.7474 75.2432 54.744 75.3764 53.7365C75.4335 53.335 75.6934 53.3568 75.9737 53.341C78.4346 53.2106 80.8984 53.0958 83.3579 52.9399C89.2935 52.5553 95.222 52.1141 101.139 51.5397C102.719 51.3851 104.307 51.2722 105.899 51.1396L105.9 51.1296Z" fill="#1A2E40"/>
<path d="M125.661 49.2871C125.135 49.217 124.599 49.207 124.064 49.2571L48.9239 56.1708C46.7061 56.376 44.7336 57.5625 43.5221 59.4299C42.3056 61.2972 42.0202 63.5801 42.7311 65.6928L96.0233 215.787C97.1748 219.196 100.083 227.292 103.628 226.671L184.445 212.523C186.592 212.147 188.44 210.841 189.506 208.938C190.573 207.036 193.076 206.746 192.28 204.713L131.458 53.8128C130.487 51.3397 128.224 49.6275 125.661 49.2821V49.2871Z" fill="#F8F3F9"/>
<g clip-path="url(#clip1_29_8539)">
<path d="M77.0927 109.988C76.7643 109.421 76.5625 108.815 76.3455 108.217C75.7274 106.516 75.0186 104.836 74.3574 103.142C73.4457 100.818 72.5178 98.4972 71.5909 96.1815C71.3897 95.6734 71.1518 95.1771 71.0036 94.6541C70.7558 93.7572 70.9049 93.3121 71.5733 93.0687C72.6544 92.676 73.8195 92.4752 74.971 92.2604C77.4304 91.8032 79.8385 91.2137 82.2667 90.675C83.946 90.3015 85.6362 89.9588 87.2944 89.5292C88.2515 89.2836 89.1948 88.9915 90.2103 88.8878C90.9859 88.8103 91.7787 88.8929 92.6057 89.1054C93.2993 89.2871 93.7852 89.7395 94.097 90.5272C95.7923 94.8276 97.4992 99.1314 99.2053 103.43C99.4485 104.05 99.7035 104.674 99.9414 105.295C100.251 106.105 100.047 106.739 99.4177 106.922C97.89 107.366 96.2956 107.654 94.7286 108.002C92.3318 108.53 90.2322 108.852 87.8363 109.385C87.7447 109.402 85.902 108.57 85.8059 108.592C85.6874 108.613 87.021 109.709 86.9033 109.736C86.4112 109.844 85.9191 109.953 85.4216 110.063C83.7585 110.434 82.0963 110.81 80.4288 111.186C80.2312 111.232 80.0281 111.246 79.8093 111.204C79.2798 111.102 78.7513 111.005 78.2254 110.891C77.7634 110.794 77.381 110.486 77.0936 109.993L77.0927 109.988ZM97.8745 106.493C98.4192 106.179 98.5381 105.658 98.2273 104.876C97.2535 102.421 96.2754 99.9734 95.307 97.5183C94.4512 95.3532 93.5963 93.1934 92.7459 91.0274C92.5347 90.4938 92.345 89.9564 91.992 89.4697C91.8513 89.2716 91.7405 89.2423 91.5889 89.2963C91.3475 89.3771 91.1052 89.4527 90.8538 89.5081C87.6515 90.2273 84.4474 90.936 81.2442 91.65C78.6562 92.2279 76.0672 92.8005 73.4801 93.3836C72.539 93.5937 72.3482 94.117 72.7534 95.3068C72.9725 95.9478 73.2813 96.562 73.5372 97.191C74.2228 98.8968 74.903 100.604 75.5778 102.311C76.4638 104.553 77.3821 106.788 78.2304 109.036C78.4371 109.576 78.6376 110.111 78.995 110.592C79.113 110.756 79.2151 110.83 79.3848 110.784C80.7517 110.373 82.1589 110.064 83.5661 109.755C84.4489 109.561 85.3253 109.362 86.2081 109.168C86.3159 109.149 85.549 108.491 85.6612 108.465C85.7735 108.44 86.7585 109.043 86.8708 109.018C90.0362 108.311 93.2017 107.603 96.3608 106.892C96.8799 106.778 97.431 106.751 97.8852 106.491L97.8745 106.493Z" fill="#FFCD05"/>
<path d="M87.7676 87.0527C87.982 87.1018 88.2048 87.0732 88.4217 87.1055C88.5532 87.1257 88.6458 87.2724 88.801 87.2069C89.0769 87.3212 89.3519 87.4302 89.6279 87.5445C89.6585 87.5608 89.7413 87.557 89.696 87.6466C89.5557 87.9216 89.7057 88.1724 90.0196 88.1875C90.1537 88.1909 90.2947 88.1714 90.4239 88.1159C90.5127 88.0839 90.5954 88.0801 90.6464 88.1798C90.3928 88.3172 90.3499 88.3574 90.2342 88.5519C90.3917 88.5621 90.5379 88.509 90.6863 88.4991C90.8992 88.4777 91.0883 88.5094 91.2513 88.6764C92.4454 89.8951 93.0646 91.3517 93.0423 93.0468C93.0261 94.1482 92.737 95.1837 92.0829 96.1043C91.4768 96.9512 90.8717 97.8033 90.2793 98.6641C89.5239 99.7658 88.9082 100.935 88.5236 102.216C88.2418 103.136 88.1966 104.074 88.1587 105.021C88.1073 106.238 87.9064 107.426 87.4002 108.555C87.1759 109.046 86.8902 109.504 86.3719 109.748C85.6126 110.105 84.8135 110.301 83.9746 110.336C83.9027 110.338 83.8216 110.319 83.759 110.374C83.6415 110.275 83.5044 110.348 83.3739 110.333C83.3533 110.217 83.2922 110.217 83.2052 110.26C83.2009 110.141 83.0814 110.157 83.02 110.124C82.6248 109.933 82.2832 109.667 82.0022 109.336C81.4259 108.655 81.1499 107.85 80.9825 106.999C80.6755 105.422 80.648 103.823 80.6538 102.223C80.6532 102.125 80.6961 102.085 80.7776 102.043C81.1801 101.836 81.3762 101.437 81.2987 100.999C81.2885 100.941 81.2782 100.883 81.267 100.82C81.2886 100.816 81.3101 100.812 81.3263 100.809C82.202 100.638 82.6733 99.8151 82.3631 99.0053C82.2305 98.6645 82.2427 98.3251 82.4322 98.0142C82.7606 97.483 82.7994 96.9486 82.544 96.3848C82.397 96.0573 82.4909 95.8341 82.7865 95.6512C83.418 95.2621 83.6785 94.6613 83.5307 93.9207C83.5148 93.831 83.5361 93.7946 83.6114 93.7487C83.9831 93.5252 84.0692 93.0694 83.8 92.7419C83.7293 92.6565 83.7054 92.5846 83.7533 92.4782C83.857 92.2478 83.8762 92.0106 83.7946 91.7694C83.7396 91.616 83.7572 91.5585 83.9405 91.5261C84.2854 91.465 84.5232 91.1129 84.3828 90.8224C84.2771 90.6018 84.2119 90.3904 84.2633 90.1475C84.273 90.1077 84.2655 90.0655 84.2536 90.0296C84.2241 89.926 84.2616 89.8867 84.3676 89.8571C84.6368 89.7768 84.8052 89.5349 84.7093 89.3072C84.638 89.124 84.7058 89.0359 84.8148 88.9296C84.8952 88.8501 84.9684 88.761 85.0542 88.6806C85.2973 88.4526 85.5783 88.3757 85.9035 88.4541C86.1124 88.5041 86.3238 88.5047 86.4701 88.3265C86.6352 88.1287 86.7452 87.9026 86.632 87.6399C86.6119 87.589 86.5683 87.5315 86.6464 87.5014C86.8294 87.4363 86.9648 87.2275 87.2018 87.3106C87.2901 87.3384 87.4005 87.3026 87.4296 87.2159C87.4914 87.0309 87.6291 87.0555 87.7641 87.0642L87.7676 87.0527ZM90.0269 90.9596C89.7695 91.0759 89.5194 91.2017 89.2593 91.3022C89.1346 91.3514 89.1243 91.4185 89.1546 91.5273C89.2497 91.9075 89.6061 92.225 90.0229 92.2872C90.4514 92.3527 90.8817 92.146 91.105 91.7747C91.3185 91.4107 91.2893 90.9318 91.0337 90.6182C90.9693 90.5371 90.9119 90.5582 90.8402 90.5926C90.573 90.7161 90.3048 90.8343 90.0377 90.9577L90.0269 90.9596ZM89.9326 89.7364C89.9801 89.8477 89.9374 89.9205 89.7952 89.9021C89.5396 89.8713 89.3514 89.9698 89.1753 90.137C89.0761 90.2361 89.1771 90.2726 89.2115 90.31C89.2459 90.3474 89.2746 90.4783 89.3729 90.3739C89.5398 90.1866 89.7603 90.2074 89.977 90.2071C90.0382 90.2072 90.1031 90.2283 90.1558 90.1809C90.2524 90.0985 90.2911 89.6893 90.2157 89.5775C89.7628 88.9345 89.3089 88.2861 88.8614 87.6421C88.8015 87.5548 88.7563 87.5193 88.6543 87.6026C88.5818 87.6644 88.4921 87.6912 88.5864 87.8159C88.7906 88.0897 88.9858 88.376 89.1854 88.656C89.4314 89.0094 89.6775 89.3629 89.9326 89.7364ZM86.3342 89.9766C86.5566 89.8828 86.7597 89.7109 86.922 89.4973C87.0129 89.3833 87.0346 89.2544 86.9932 89.1149C86.928 88.9035 86.7233 88.8146 86.5901 88.9415C86.3158 89.2131 86.0541 89.4932 85.7807 89.77C85.7146 89.8361 85.707 89.919 85.748 89.9934C85.7889 90.0677 85.8674 90.1027 85.9555 90.098C86.0813 90.0866 86.1952 90.0392 86.3342 89.9766ZM87.1375 89.867C87.0269 89.8702 86.9522 89.8563 86.8776 89.8749C86.6567 89.914 86.4558 90.004 86.3683 90.2316C86.3293 90.3255 86.3353 90.4223 86.4435 90.4684C86.5454 90.5102 86.6153 90.4652 86.6543 90.3713C86.6888 90.2836 86.764 90.2376 86.8257 90.1778C86.9204 90.0849 87.0432 90.0251 87.1384 89.8722L87.1375 89.867Z" fill="#FEFEFE"/>
<path d="M87.7674 87.0527C87.6271 87.0449 87.4947 87.0194 87.4329 87.2044C87.4038 87.2911 87.2934 87.327 87.2051 87.2991C86.9627 87.2169 86.8327 87.4248 86.6497 87.4899C86.5707 87.5147 86.6152 87.5776 86.6353 87.6284C86.7495 87.8964 86.6331 88.1182 86.4734 88.315C86.3271 88.4932 86.1157 88.4926 85.9068 88.4426C85.5816 88.3642 85.2952 88.4421 85.0575 88.6691C84.9717 88.7495 84.8976 88.8333 84.8181 88.9181C84.7091 89.0244 84.6413 89.1125 84.7127 89.2957C84.8095 89.5287 84.6411 89.7706 84.3709 89.8456C84.265 89.8753 84.2275 89.9145 84.2569 90.0181C84.2634 90.055 84.2718 90.1024 84.2667 90.136C84.2152 90.3789 84.2849 90.5841 84.3862 90.8109C84.5212 91.1024 84.2897 91.4588 83.9438 91.5146C83.7659 91.5461 83.7429 91.6045 83.7979 91.7579C83.8839 91.9929 83.8603 92.2363 83.7566 92.4668C83.7088 92.5731 83.7326 92.645 83.8033 92.7304C84.0671 93.0589 83.9811 93.5146 83.6147 93.7372C83.5341 93.7841 83.5137 93.8258 83.534 93.9092C83.6818 94.6498 83.4267 95.2496 82.7898 95.6397C82.4942 95.8226 82.3994 96.0406 82.5473 96.3733C82.7983 96.9434 82.764 97.4715 82.4356 98.0028C82.2451 98.3084 82.2339 98.653 82.3665 98.9938C82.682 99.8026 82.2063 100.632 81.3296 100.798C81.3134 100.801 81.2919 100.805 81.2703 100.808C81.2815 100.872 81.2918 100.93 81.3021 100.988C81.3805 101.431 81.1843 101.83 80.781 102.032C80.6994 102.073 80.6565 102.114 80.6571 102.211C80.6513 103.811 80.6788 105.41 80.9859 106.987C81.1533 107.839 81.4301 108.649 82.0056 109.325C82.2874 109.661 82.6282 109.921 83.0233 110.113C83.0901 110.144 83.2042 110.129 83.2086 110.248C82.7137 110.216 82.2691 110.029 81.8619 109.769C81.2469 109.372 80.8466 108.807 80.5689 108.149C80.1051 107.067 80.0131 105.92 79.948 104.768C79.9015 103.971 79.8828 103.175 79.8838 102.365C79.7556 102.425 79.6663 102.517 79.5833 102.613C79.3556 102.866 79.0811 102.98 78.7372 102.921C78.6796 102.909 78.6292 102.907 78.5791 102.938C77.8285 103.408 77.099 103.244 76.371 102.899C75.7946 102.626 75.2468 102.326 74.845 101.816C74.4995 101.371 74.4869 100.955 74.8059 100.496C74.9386 100.304 74.9287 100.153 74.7339 99.932C74.5798 99.7526 74.4016 99.5938 74.2387 99.4269C73.8458 99.0288 73.9115 98.4897 74.4007 98.2073C74.4813 98.1604 74.509 98.1283 74.4599 98.0391C74.3452 97.831 74.3861 97.6225 74.4901 97.4247C74.6508 97.108 74.871 96.8134 74.9767 96.4684C75.1061 96.0377 75.0602 95.6216 74.9468 95.2012C74.7608 94.5272 75.0251 93.8224 75.6125 93.4356C75.8319 93.2935 76.0761 93.2285 76.3296 93.2162C76.4285 93.2096 76.4562 93.1775 76.461 93.0788C76.4732 92.3316 76.8913 91.7736 77.6281 91.5398C78.0436 91.4064 78.392 91.1761 78.6741 90.8543C78.8544 90.6484 79.0546 90.4606 79.3148 90.3602C79.3928 90.3301 79.4034 90.2956 79.4055 90.2136C79.4089 89.7617 79.7947 89.4921 80.2382 89.642C80.3328 89.6742 80.3623 89.6527 80.4167 89.5832C80.6058 89.3322 80.8566 89.179 81.1802 89.1544C81.2737 89.1487 81.2987 89.1334 81.263 89.0255C81.1823 88.7897 81.2834 88.576 81.4887 88.4798C81.6994 88.3827 81.9084 88.4327 82.0627 88.6447C82.1144 88.7171 82.1352 88.7406 82.2067 88.6735C82.2693 88.6189 82.3699 88.5903 82.4402 88.6104C82.6402 88.6729 82.7401 88.5465 82.8608 88.4435C83.4055 87.9719 84.0245 87.6067 84.7009 87.3455C84.8256 87.2962 84.9015 87.223 84.9583 87.1042C85.181 86.6351 85.5768 86.5161 86.0471 86.7863C86.1562 86.5549 86.3107 86.3916 86.5961 86.4335C86.8409 86.4663 86.9786 86.6159 87.0234 86.869C87.2158 86.7316 87.3688 86.7481 87.5022 86.9365C87.5685 87.0281 87.7314 86.9123 87.7791 87.0561L87.7674 87.0527Z" fill="#192D3F"/>
<path d="M83.7505 110.359C83.814 110.31 83.8951 110.328 83.9661 110.321C84.8049 110.286 85.6094 110.09 86.3634 109.733C86.8816 109.489 87.1736 109.035 87.3916 108.54C87.8987 107.417 88.0933 106.224 88.1502 105.007C88.1934 104.058 88.2386 103.12 88.515 102.201C88.906 100.925 89.5153 99.751 90.2707 98.6493C90.8632 97.7885 91.4638 96.9426 92.0743 96.0894C92.7338 95.1678 93.0229 94.1324 93.0338 93.032C93.056 91.3368 92.4368 89.8803 91.2427 88.6615C91.0788 88.4893 90.8907 88.4628 90.6777 88.4842C90.5303 88.4994 90.3885 88.5463 90.2257 88.537C90.3359 88.3435 90.3798 88.3086 90.6378 88.165C90.5868 88.0652 90.5041 88.069 90.4153 88.1011C90.2852 88.1513 90.1496 88.1699 90.0111 88.1726C89.6981 88.1628 89.5427 87.913 89.6874 87.6318C89.7327 87.5422 89.65 87.5459 89.6193 87.5296C89.3434 87.4153 89.0674 87.301 88.7924 87.192C88.8712 87.1346 88.9541 87.1634 89.0289 87.1774C89.2207 87.225 89.425 87.2486 89.6019 87.3369C89.9808 87.5309 90.3602 87.5072 90.7534 87.4049C90.8073 87.3954 90.8612 87.3859 90.9151 87.3763C91.0067 87.3601 91.0744 87.397 91.1217 87.4757C91.1636 87.5553 91.1497 87.6339 91.0953 87.7033C91.0355 87.7737 90.9621 87.8302 90.8862 87.9035C91.4794 88.2716 92.0082 88.6837 92.4307 89.2179C93.9205 91.1022 94.1867 93.1704 93.3252 95.4003C93.1041 95.9724 92.6989 96.4465 92.3532 96.9428C91.6628 97.9406 90.9461 98.9158 90.3315 99.9654C89.4731 101.428 89.0274 102.991 88.9465 104.67C88.8987 105.75 88.8401 106.831 88.5024 107.875C88.2749 108.568 87.9924 109.233 87.3794 109.695C86.9131 110.044 86.36 110.185 85.8032 110.305C85.1225 110.448 84.4383 110.476 83.754 110.347L83.7505 110.359Z" fill="#192D3F"/>
<path d="M83.1978 110.25C83.2839 110.202 83.3513 110.207 83.3665 110.324C83.315 110.284 83.2325 110.32 83.1978 110.25Z" fill="#192D3F"/>
<path d="M90.0265 90.9596C90.2937 90.8362 90.5618 90.718 90.829 90.5945C90.9008 90.5601 90.9582 90.5391 91.0226 90.6201C91.2791 90.939 91.3074 91.4126 91.0939 91.7766C90.8706 92.1479 90.4457 92.3537 90.0118 92.2891C89.6004 92.226 89.244 91.9084 89.1435 91.5292C89.1122 91.4151 89.1235 91.3533 89.2482 91.3041C89.5074 91.1983 89.7638 91.0768 90.0158 90.9615L90.0265 90.9596ZM90.1803 91.2315C90.0054 91.3114 89.8379 91.4009 89.6548 91.4659C89.4664 91.5319 89.5092 91.6167 89.5954 91.7266C89.8084 91.9879 90.2226 92.0669 90.5219 91.9051C90.8311 91.7362 90.9888 91.3711 90.8922 91.0456C90.8656 90.9579 90.8321 90.9257 90.7353 90.9755C90.5515 91.0678 90.365 91.1444 90.1749 91.2324L90.1803 91.2315Z" fill="#192D3F"/>
<path d="M89.9324 89.7364C89.6782 89.3682 89.4312 89.0095 89.1852 88.656C88.9909 88.375 88.7957 88.0888 88.5862 87.8159C88.4928 87.6965 88.5826 87.6697 88.6541 87.6027C88.7551 87.5141 88.7959 87.5558 88.8612 87.6421C89.3096 88.2914 89.7626 88.9345 90.2155 89.5775C90.2899 89.684 90.2468 90.0995 90.1556 90.1809C90.1028 90.2283 90.037 90.2019 89.9768 90.2071C89.7601 90.2074 89.5396 90.1866 89.3726 90.3739C89.2753 90.4836 89.2466 90.3527 89.2113 90.31C89.1759 90.2673 89.0696 90.2318 89.1751 90.137C89.3511 89.9699 89.5384 89.866 89.7949 89.9022C89.9372 89.9205 89.9808 89.8529 89.9324 89.7364Z" fill="#192D3F"/>
<path d="M86.3339 89.9766C86.195 90.0392 86.0811 90.0866 85.9552 90.098C85.8681 90.108 85.7887 90.0677 85.7477 89.9934C85.7121 89.9181 85.7152 89.8414 85.7804 89.77C86.0484 89.4942 86.3101 89.214 86.5898 88.9415C86.723 88.8146 86.9277 88.9035 86.9929 89.1149C87.0334 89.2491 87.0171 89.3771 86.9217 89.4973C86.754 89.7119 86.5554 89.8775 86.3339 89.9766Z" fill="#192D3F"/>
<path d="M87.1372 89.867C87.042 90.0198 86.9192 90.0796 86.8244 90.1725C86.7628 90.2324 86.6875 90.2783 86.653 90.366C86.6195 90.4589 86.5442 90.5049 86.4423 90.4631C86.3341 90.417 86.3325 90.314 86.367 90.2263C86.4555 90.004 86.6564 89.914 86.8764 89.8696C86.9465 89.8572 87.0257 89.865 87.1363 89.8617L87.1372 89.867Z" fill="#192D3F"/>
<path d="M90.1804 91.2315C90.3651 91.1444 90.5571 91.0669 90.7408 90.9745C90.8376 90.9248 90.8702 90.9516 90.8978 91.0446C90.9934 91.3649 90.8366 91.7352 90.5274 91.9042C90.2227 92.0669 89.8139 91.987 89.6009 91.7256C89.5147 91.6158 89.4719 91.5309 89.6603 91.4649C89.8389 91.4061 90.011 91.3104 90.1858 91.2305L90.1804 91.2315Z" fill="#FEFEFE"/>
<path d="M99.8168 87.022C99.9526 86.3871 100.087 85.7736 100.221 85.1601C100.261 84.9749 100.365 84.896 100.57 84.8668C106.416 84.0729 112.253 83.2623 118.08 82.3436C122.166 81.7 126.258 81.0514 130.344 80.4078C130.505 80.381 130.664 80.3005 130.864 80.3407C130.701 80.8986 130.695 81.4725 130.581 82.0284C130.524 82.3036 130.394 82.4505 130.083 82.4994C127.223 82.9462 124.367 83.404 121.51 83.8725C116.945 84.6182 112.36 85.2659 107.784 85.9357C105.246 86.3075 102.706 86.6416 100.164 86.9917C100.059 87.0061 99.9489 87.0148 99.8161 87.0327L99.8168 87.022Z" fill="#1B2F41"/>
<path d="M131.767 85.87C131.6 86.3901 131.596 86.9426 131.5 87.4782C131.446 87.7859 131.315 87.9381 130.971 87.9955C124.751 89.0541 118.511 89.9933 112.271 90.9219C108.592 91.4694 104.9 91.957 101.212 92.4717C101.118 92.4868 101.014 92.4799 100.92 92.5003C100.764 92.5275 100.723 92.4872 100.761 92.334C100.891 91.79 101.009 91.2452 101.123 90.6946C101.171 90.4724 101.281 90.3832 101.513 90.3559C104.75 89.9504 107.969 89.4741 111.198 89.0198C116.929 88.2128 122.642 87.2919 128.357 86.398C129.488 86.2216 130.625 86.0456 131.772 85.8703L131.767 85.87Z" fill="#1A2E40"/>
<path d="M120.313 93.2968C120.292 93.8535 120.265 94.4152 120.25 94.9723C120.245 95.2082 120.15 95.3198 119.889 95.3614C116.175 96.0139 112.449 96.6065 108.712 97.1233C106.353 97.4481 103.999 97.7839 101.596 98.0359C101.638 97.4108 101.695 96.8029 101.73 96.1934C101.746 95.953 101.911 95.9533 102.077 95.9322C103.582 95.7434 105.086 95.5705 106.58 95.3649C110.196 94.8722 113.813 94.3474 117.408 93.7459C118.368 93.5849 119.337 93.446 120.307 93.2964L120.313 93.2968Z" fill="#1A2E40"/>
</g>
<path d="M100.965 229.91C97.1149 229.399 93.7907 226.766 92.484 222.891L40.4184 77.3825C39.3871 74.3337 39.0717 60.3761 40.8289 57.6777C42.5811 54.9793 45.4297 53.2621 48.6337 52.9668L123.773 46.053C128.379 45.6275 132.77 48.3409 134.457 52.6413L192.931 201.574C194.082 204.508 193.857 207.762 192.315 210.51C190.773 213.259 188.11 215.146 185.006 215.687L104.189 229.835C103.097 230.025 102.011 230.045 100.97 229.905L100.965 229.91ZM125.661 49.2871C125.135 49.217 124.6 49.207 124.064 49.2571L48.9241 56.1708C46.7063 56.3761 44.7338 57.5626 43.5223 59.4299C42.3058 61.2973 42.0204 63.5801 42.7313 65.6928L96.0235 215.787C97.1749 219.196 100.084 227.292 103.628 226.671L184.445 212.523C186.593 212.147 188.44 210.841 189.506 208.938C190.573 207.036 193.076 206.746 192.28 204.713L131.458 53.8128C130.487 51.3397 128.224 49.6275 125.661 49.2821V49.2871Z" fill="#61686E"/>
<path d="M168.054 212.271L168.012 212.07C167.959 211.813 167.707 211.647 167.45 211.7L130.877 219.241C130.62 219.294 130.455 219.546 130.508 219.803L130.549 220.004C130.602 220.261 130.854 220.427 131.111 220.374L167.684 212.833C167.941 212.78 168.107 212.528 168.054 212.271Z" fill="#172C3E"/>
<path d="M91.2625 64.301C93.4661 64.301 95.2525 62.5146 95.2525 60.311C95.2525 58.1074 93.4661 56.321 91.2625 56.321C89.0589 56.321 87.2725 58.1074 87.2725 60.311C87.2725 62.5146 89.0589 64.301 91.2625 64.301Z" fill="#61686E"/>
<path d="M145.617 100.779L65.5518 118.78L65.7417 119.625L145.807 101.624L145.617 100.779Z" fill="#C23A27"/>
<path d="M136.75 206.27C144.851 206.27 151.418 199.703 151.418 191.602C151.418 183.5 144.851 176.933 136.75 176.933C128.648 176.933 122.081 183.5 122.081 191.602C122.081 199.703 128.648 206.27 136.75 206.27Z" fill="#61686E"/>
<path d="M127.984 193.814L130.547 191.717C131.138 191.236 131.984 191.236 132.57 191.727L135.583 194.23C136.424 194.931 137.706 194.585 138.087 193.559L146.928 169.749C147.158 169.128 147.754 168.713 148.415 168.713C149.541 168.713 150.307 169.849 149.886 170.895L138.802 198.34C138.492 199.111 137.636 199.512 136.84 199.256L128.499 196.553C127.303 196.167 127.013 194.61 127.984 193.814Z" fill="#C0DDC5"/>
<path d="M35.8501 191.578C36.4408 192.018 36.1355 192.854 36.6611 193.41C36.8063 192.474 37.0216 191.608 37.1768 190.737C37.6323 188.158 37.9628 185.56 38.4334 182.987C38.9991 179.888 39.4947 176.779 40.0254 173.675C40.526 170.767 41.0266 167.858 41.5223 164.944C42.0529 161.84 42.5335 158.726 43.1343 155.637C43.4897 153.815 43.5748 151.953 44.1205 150.161C44.531 148.819 46.0229 147.813 47.4447 148.038C48.9817 148.283 50.1181 149.72 49.9729 151.222C49.5774 155.282 49.1519 159.337 48.7263 163.397C48.3459 167.032 47.9854 170.671 47.6099 174.311C47.2745 177.555 47.0192 180.809 46.6287 184.048C46.6037 184.244 46.5586 184.439 46.6788 184.624C44.2557 191.057 41.8376 197.495 39.4096 203.928C38.954 205.135 39.2494 206.421 40.3257 206.937C41.5573 207.523 42.8389 208.033 44.2307 208.144C44.1656 209.485 43.8802 210.802 43.8452 212.159C43.8201 213.105 43.1894 213.896 42.3433 214.367C41.8527 214.642 41.8326 214.937 41.9578 215.388C42.2281 216.389 42.4785 217.395 42.7388 218.397C43.1843 220.139 42.138 221.821 40.3808 222.196C39.9152 222.296 39.4546 222.407 38.9941 222.512C38.9841 222.457 38.974 222.402 38.969 222.347C38.2031 214.912 37.4271 207.483 36.6711 200.048C36.3858 197.23 36.1305 194.401 35.8651 191.583L35.8501 191.578Z" fill="#C0DDC5"/>
<path d="M31.3392 211.032C30.7635 210.316 30.8286 209.415 30.6784 208.589C29.9825 204.829 29.3317 201.065 28.6658 197.3C26.7684 186.617 24.871 175.933 22.9787 165.255C22.6883 163.623 22.4129 161.985 22.1426 160.353C21.8873 158.801 22.8735 157.44 24.4956 157.094C26.0926 156.759 27.6095 157.605 27.985 159.112C29.4018 164.729 30.7935 170.351 32.1903 175.968C32.5207 177.305 32.8361 178.646 33.1615 179.983C31.3092 179.823 30.1177 180.724 30.1827 182.311C30.4331 188.604 30.7184 194.892 30.9737 201.18C31.1089 204.464 31.214 207.748 31.3342 211.032H31.3392Z" fill="#C0DDC5"/>
<path d="M31.339 211.032C31.2189 207.748 31.1088 204.464 30.9786 201.18C30.7183 194.887 30.4379 188.599 30.1876 182.311C30.1225 180.729 31.314 179.823 33.1664 179.983C34.2377 180.404 34.7333 181.185 34.8535 182.341C35.1489 185.225 35.3441 188.118 35.7997 190.982C35.7746 191.182 35.7046 191.393 35.8698 191.568L35.8547 191.578C36.1251 194.401 36.3754 197.225 36.6608 200.043C37.4167 207.478 38.1927 214.907 38.9587 222.342C38.9637 222.397 38.9787 222.452 38.9837 222.507C39.0287 223.007 39.0788 223.508 39.1139 224.009C39.204 225.315 38.3479 226.377 37.0513 226.517C36.1902 226.612 35.3241 226.672 34.453 226.702C32.9261 226.762 31.9448 225.746 31.8947 224.224C31.7546 220.129 31.5693 216.039 31.3991 211.943C31.3991 211.888 31.3641 211.838 31.3441 211.783C31.3741 211.533 31.4692 211.278 31.309 211.037L31.334 211.022L31.339 211.032ZM37.1113 225.636C37.8823 225.526 38.3479 224.825 38.2728 224.039C38.2277 223.598 38.1376 223.163 38.0725 222.722C38.0725 222.552 38.0976 222.382 38.0775 222.216C37.2665 214.281 36.4555 206.346 35.6345 198.411C35.1188 193.41 34.5831 188.414 34.0575 183.412C34.0324 183.247 34.0124 183.087 33.9874 182.922C33.9974 182.311 34.0525 181.695 33.5418 181.22C32.9961 180.719 32.3754 180.664 31.7496 180.994C31.2439 181.265 31.0186 181.735 31.0437 182.331C31.1738 185.28 31.289 188.224 31.4141 191.172C31.7245 198.552 32.0299 205.936 32.3453 213.315C32.4504 215.753 32.5806 218.186 32.6958 220.619C32.7208 221.906 32.7208 223.193 32.7709 224.479" fill="#233646"/>
<path d="M44.2307 208.139C42.8389 208.029 41.5523 207.518 40.3257 206.932C39.2494 206.416 38.954 205.135 39.4096 203.923C41.8376 197.49 44.2557 191.052 46.6787 184.619C49.1569 178.026 51.64 171.432 54.1131 164.834C54.6388 163.432 55.7201 162.852 57.0969 163.282C58.3334 163.673 58.9392 164.884 58.5187 166.276C57.3021 170.281 56.0556 174.276 54.829 178.276C53.1519 183.728 51.4848 189.185 49.8127 194.637C48.6062 198.587 47.4097 202.537 46.1931 206.482C45.8978 207.433 45.1618 207.908 44.2357 208.139H44.2307ZM44.2457 207.157C44.8815 207.142 45.2019 206.732 45.3671 206.196C46.4835 202.572 47.5849 198.942 48.6963 195.317C50.4485 189.6 52.2107 183.883 53.9679 178.166C55.2045 174.141 56.4511 170.116 57.6776 166.086C57.983 165.084 57.6526 164.368 56.8265 164.098C55.9254 163.803 55.2896 164.153 54.8991 165.184C52.9066 170.466 50.9141 175.743 48.9366 181.024C47.9954 183.548 47.0893 186.081 46.1631 188.614C44.1606 193.886 42.148 199.157 40.1605 204.439C39.8301 205.315 40.2306 206.051 41.1217 206.381C41.8827 206.662 42.6587 206.912 43.4297 207.167C43.695 207.253 43.9703 207.343 44.2357 207.152L44.2457 207.157Z" fill="#233646"/>
<path d="M31.314 211.047C31.4742 211.288 31.3791 211.543 31.3491 211.793C31.1438 211.553 31.1939 211.303 31.314 211.047Z" fill="#C0DDC5"/>
<path d="M35.8651 191.568C35.6949 191.393 35.77 191.182 35.795 190.982C35.9752 191.157 35.9702 191.357 35.8651 191.568Z" fill="#C0DDC5"/>
<path d="M34.0528 183.417C34.5784 188.419 35.1141 193.415 35.6298 198.416C36.4508 206.351 37.2618 214.286 38.0729 222.221C38.0879 222.387 38.0729 222.557 38.0678 222.727C37.7124 222.792 37.3569 222.852 37.0015 222.922C34.6836 223.378 33.5922 222.802 32.6911 220.634C32.5709 218.201 32.4458 215.763 32.3406 213.33C32.0252 205.951 31.7198 198.567 31.4094 191.187C31.2843 188.239 31.1691 185.295 31.039 182.346C31.014 181.75 31.2392 181.28 31.7449 181.009C32.3707 180.679 32.9914 180.734 33.5371 181.235C33.5672 181.83 33.6573 182.416 33.9827 182.932C34.0077 183.097 34.0278 183.257 34.0528 183.422V183.417Z" fill="#C0DDC5"/>
<path d="M33.9876 182.927C33.6621 182.406 33.572 181.825 33.542 181.23C34.0526 181.7 33.9976 182.321 33.9876 182.927Z" fill="#F3EBF4"/>
<path d="M46.163 188.614C45.5222 194.797 44.8814 200.975 44.2405 207.157C43.9752 207.348 43.6999 207.258 43.4345 207.172C42.6636 206.917 41.8876 206.667 41.1266 206.386C40.2305 206.056 39.835 205.32 40.1654 204.444C42.1529 199.162 44.1655 193.891 46.168 188.619L46.163 188.614Z" fill="#C0DDC5"/>
</g>
<defs>
<clipPath id="clip0_29_8539">
<rect width="198.706" height="230" fill="white" transform="translate(0.147461)"/>
</clipPath>
<clipPath id="clip1_29_8539">
<rect width="60" height="28" fill="white" transform="translate(69.2451 84.8181) rotate(-10.0407)"/>
</clipPath>
</defs>
</svg>
