<?xml version="1.0" encoding="UTF-8"?>
<svg id="Capa_1" xmlns="http://www.w3.org/2000/svg" version="1.1" viewBox="0 0 65 64">
  <!-- Generator: Adobe Illustrator 29.2.1, SVG Export Plug-In . SVG Version: 2.1.0 Build 116)  -->
  <defs>
    <style>
      .st0 {
        fill: none;
        stroke: #0e202f;
        stroke-linecap: round;
        stroke-linejoin: round;
        stroke-width: 3.3px;
      }

      .st1 {
        fill: #e0e6eb;
      }
    </style>
  </defs>
  <path class="st1" d="M32.2,0h0c17.7,0,32,14.3,32,32h0c0,17.7-14.3,32-32,32h0C14.6,64,.2,49.7.2,32H.2C.2,14.3,14.6,0,32.2,0Z"/>
  <path class="st0" d="M17.2,22h30"/>
  <path class="st0" d="M25.6,22v-3.3c0-.9.4-1.7,1-2.4.6-.6,1.5-1,2.4-1h6.7c.9,0,1.7.4,2.4,1,.6.6,1,1.5,1,2.4v3.3M43.9,22v23.3c0,.9-.4,1.7-1,2.4-.6.6-1.5,1-2.4,1h-16.7c-.9,0-1.7-.4-2.4-1-.6-.6-1-1.5-1-2.4v-23.3h23.3Z"/>
  <path class="st0" d="M28.9,30.3v10"/>
  <path class="st0" d="M35.6,30.3v10"/>
</svg>