<svg width="375" height="153" viewBox="0 0 375 153" fill="none" xmlns="http://www.w3.org/2000/svg">
<path d="M265.422 89.9195C265.411 93.0374 264.253 94.3243 262.332 94.3243C260.41 94.3243 259.253 93.0337 259.242 89.9195C259.257 86.7906 260.414 85.5 262.336 85.5C264.257 85.5 265.414 86.7906 265.425 89.9195M260.319 89.9195C260.319 90.6365 260.381 91.2358 260.502 91.7101L263.846 87.2428C263.493 86.6361 262.971 86.4155 262.339 86.4155C261.134 86.4155 260.333 87.2318 260.322 89.9195M264.36 89.9195C264.36 89.118 264.286 88.4819 264.154 87.9855L260.774 92.4749C261.127 93.1551 261.674 93.4124 262.343 93.4124C263.548 93.4124 264.349 92.5741 264.364 89.9195" fill="#0E3062"/>
<path d="M265.216 102.362C265.216 104.126 264.084 105.307 262.431 105.307C260.414 105.307 259.389 103.847 259.389 101.082C259.389 98.137 260.51 96.4824 262.538 96.4824C263.937 96.4824 264.86 97.2141 265.117 98.5745L264.022 98.8172C263.827 97.8428 263.328 97.3943 262.527 97.3943C261.189 97.3943 260.51 98.5377 260.458 100.692C260.848 99.9239 261.638 99.4753 262.6 99.4753C264.195 99.4753 265.216 100.619 265.216 102.362ZM264.121 102.373C264.121 101.167 263.463 100.387 262.394 100.387C261.469 100.387 260.789 100.983 260.499 102.104C260.631 103.49 261.351 104.391 262.446 104.391C263.467 104.391 264.125 103.601 264.125 102.369" fill="#0E3062"/>
<path d="M272.714 96.155C272.001 96.155 271.421 96.7323 271.421 97.4493V110.726C271.41 110.895 271.303 111.987 270.738 113.061C269.962 114.543 268.717 115.26 266.931 115.26H262.728C263.739 113.943 264.283 112.392 264.47 111.303C264.591 110.601 264.125 109.936 263.423 109.811C262.721 109.686 262.052 110.156 261.924 110.855C261.924 110.866 261.703 112.05 261.02 113.186C260.208 114.539 259.154 115.197 257.791 115.197C257.078 115.197 256.498 115.774 256.498 116.491C256.498 117.208 257.078 117.786 257.791 117.786C261.097 117.786 261.887 121.94 261.92 122.124C262.03 122.749 262.574 123.19 263.191 123.19C263.265 123.19 263.338 123.183 263.415 123.172C264.117 123.051 264.587 122.382 264.466 121.676C264.283 120.624 263.768 119.131 262.82 117.844H266.928C270.411 117.844 272.167 115.896 273.023 114.26C273.89 112.609 273.989 111.006 274 110.829C274 110.807 274 110.785 274 110.767V97.4456C274 96.7323 273.419 96.1514 272.707 96.1514" fill="#CD0E2D"/>
<path d="M252.409 93.2396C253.103 92.7286 254.198 91.8535 255.278 90.8166C256.347 89.7835 256.714 89.0775 256.714 88.0664C256.714 87.0553 256.145 86.4486 255.171 86.4486C254.198 86.4486 253.592 87.0442 253.592 87.9708C253.592 88.1914 253.628 88.4451 253.691 88.7503L252.596 88.64C252.534 88.3973 252.512 88.1767 252.512 87.9598C252.512 86.4633 253.533 85.5 255.238 85.5C256.942 85.5 257.864 86.4118 257.864 88.0554C257.864 89.2466 257.269 90.2835 255.969 91.4895C255.311 92.0998 254.716 92.5852 253.889 93.1551H257.964V94.1404H252.42V93.2396H252.409Z" fill="#0E3062"/>
<path d="M252.409 104.226C253.103 103.715 254.198 102.84 255.278 101.803C256.347 100.77 256.714 100.064 256.714 99.0527C256.714 98.0416 256.145 97.4349 255.171 97.4349C254.198 97.4349 253.592 98.0306 253.592 98.9571C253.592 99.1777 253.628 99.4314 253.691 99.7366L252.596 99.6263C252.534 99.3836 252.512 99.163 252.512 98.9461C252.512 97.4496 253.533 96.4863 255.238 96.4863C256.942 96.4863 257.864 97.3982 257.864 99.0417C257.864 100.233 257.269 101.27 255.969 102.476C255.311 103.086 254.716 103.571 253.889 104.141H257.964V105.127H252.42V104.226H252.409Z" fill="#0E3062"/>
<path d="M190.309 111.462V103.649C190.309 103.141 190.702 102.748 191.209 102.748C191.716 102.748 192.109 103.141 192.109 103.649V117.635C192.109 121.356 189.798 123.191 186.587 123.191C182.95 123.191 180.812 121.018 180.812 116.393C180.812 111.767 182.84 109.624 186.477 109.624C188.281 109.624 189.662 110.554 190.309 111.458M190.309 113.742C190.309 113.742 189.236 111.26 186.591 111.26C183.946 111.26 182.616 112.925 182.616 116.393C182.616 119.86 183.997 121.555 186.591 121.555C188.762 121.555 190.309 120.312 190.309 117.635V113.742Z" fill="#0E3062"/>
<path d="M195.581 106.075C195.581 105.259 195.974 104.946 196.65 104.946C197.326 104.946 197.719 105.255 197.719 106.075C197.719 106.752 197.326 107.145 196.65 107.145C195.974 107.145 195.581 106.752 195.581 106.075ZM197.554 122.15C197.554 122.657 197.161 123.054 196.654 123.054C196.147 123.054 195.754 122.661 195.754 122.15V110.7C195.754 110.193 196.147 109.8 196.654 109.8C197.161 109.8 197.554 110.193 197.554 110.7V122.15Z" fill="#0E3062"/>
<path d="M210.008 123.081V121.474C209.332 122.349 208.036 123.195 206.202 123.195C202.539 123.195 200.368 121.051 200.368 116.426C200.368 111.8 202.539 109.631 206.202 109.631C209.413 109.631 211.838 111.491 211.838 115.216V123.084C211.838 126.919 209.219 128.5 206.063 128.5C203.866 128.5 202.286 127.68 201.356 126.555C201.272 126.441 201.187 126.272 201.187 126.048C201.187 125.57 201.581 125.173 202.062 125.173C202.286 125.173 202.484 125.228 202.738 125.481C203.388 126.132 204.288 126.809 206.063 126.809C208.374 126.809 210.008 125.651 210.008 123.088M210.008 115.22C210.008 112.539 208.318 111.271 206.202 111.271C203.609 111.271 202.172 112.907 202.172 116.433C202.172 119.959 203.609 121.566 206.202 121.566C208.796 121.566 210.008 119.282 210.008 119.282V115.22Z" fill="#0E3062"/>
<path d="M214.968 106.075C214.968 105.259 215.361 104.946 216.037 104.946C216.713 104.946 217.11 105.255 217.11 106.075C217.11 106.752 216.717 107.145 216.037 107.145C215.357 107.145 214.968 106.752 214.968 106.075ZM216.941 122.15C216.941 122.657 216.548 123.054 216.037 123.054C215.526 123.054 215.137 122.661 215.137 122.15V110.7C215.137 110.193 215.53 109.8 216.037 109.8C216.544 109.8 216.941 110.193 216.941 110.7V122.15Z" fill="#0E3062"/>
<path d="M221.309 107.061C221.309 106.583 221.731 106.16 222.209 106.16C222.716 106.16 223.109 106.583 223.109 107.061V110.021H224.942C225.42 110.021 225.787 110.388 225.787 110.866C225.787 111.344 225.42 111.712 224.942 111.712H223.109V119.496C223.109 120.709 223.785 121.356 224.744 121.356C225.222 121.356 225.618 121.724 225.618 122.202C225.618 122.68 225.225 123.048 224.744 123.048C222.518 123.048 221.305 121.551 221.305 119.492V111.708H220.207C219.729 111.708 219.362 111.341 219.362 110.863C219.362 110.385 219.729 110.017 220.207 110.017H221.305V107.057L221.309 107.061Z" fill="#0E3062"/>
<path d="M229.902 112.76C229.619 113.069 229.425 113.153 229.171 113.153C228.719 113.153 228.355 112.786 228.355 112.337C228.355 112.138 228.411 111.999 228.495 111.859C229.285 110.616 230.806 109.631 233.172 109.631C236.442 109.631 238.246 111.55 238.246 114.425V122.18C238.246 122.661 237.852 123.055 237.371 123.055C236.89 123.055 236.497 122.661 236.497 122.18V121.165C235.791 122.492 234.157 123.195 232.467 123.195C229.48 123.195 227.591 121.757 227.591 119.161C227.591 116.565 229.48 115.186 232.522 115.186H236.497V114.425C236.497 112.506 235.229 111.322 233.172 111.322C231.677 111.322 230.777 111.774 229.902 112.76ZM236.497 117.948V116.764H232.522C230.688 116.764 229.421 117.525 229.421 119.161C229.421 120.628 230.435 121.558 232.632 121.558C234.605 121.558 236.493 120.345 236.493 117.948" fill="#0E3062"/>
<path d="M243.429 103.649V119.753C243.429 120.882 243.797 121.36 244.557 121.36C245.009 121.36 245.402 121.728 245.402 122.206C245.402 122.684 245.009 123.051 244.557 123.051C242.669 123.051 241.625 121.922 241.625 119.753V103.649C241.625 103.171 242.048 102.748 242.526 102.748C243.033 102.748 243.426 103.171 243.426 103.649" fill="#0E3062"/>
<path d="M173.214 126.522C172.751 126.522 172.373 126.147 172.373 125.68V107.458C172.373 106.994 172.748 106.616 173.214 106.616C173.681 106.616 174.056 106.991 174.056 107.458V125.68C174.056 126.143 173.681 126.522 173.214 126.522Z" fill="#CD0E2D"/>
<path d="M99.0754 121.768C99.0203 122.22 98.6529 122.529 98.201 122.529H86.8744C86.3674 122.529 86 122.161 86 121.654C86 121.176 86.3674 120.779 86.8744 120.779H87.8884V105.299H86.8744C86.3674 105.299 86 104.932 86 104.424C86 103.946 86.3674 103.549 86.8744 103.549H97.8924C98.3994 103.549 98.7667 103.917 98.7667 104.424V106.568C98.7667 107.075 98.3994 107.443 97.8924 107.443C97.4148 107.443 97.018 107.075 97.018 106.568V105.299H89.8025V112.098H96.004C96.4816 112.098 96.8784 112.491 96.8784 112.973C96.8784 113.455 96.4853 113.848 96.004 113.848H89.8025V120.786H97.3266V119.518C97.3266 119.01 97.7197 118.643 98.201 118.643C98.708 118.643 99.0754 119.01 99.0754 119.518V121.775V121.768Z" fill="#FFCD00"/>
<path d="M102.345 112.77C102.345 115.73 109.756 114.631 109.756 119.146C109.756 121.712 107.643 122.867 104.965 122.867C102.654 122.867 100.879 121.768 100.145 120.837C100.005 120.639 99.9463 120.499 99.9463 120.301C99.9463 119.848 100.314 119.484 100.762 119.484C100.931 119.484 101.155 119.539 101.383 119.767C102.257 120.642 103.385 121.15 104.961 121.15C106.537 121.15 107.948 120.613 107.948 119.146C107.948 116.241 100.538 117.396 100.538 112.77C100.538 110.428 102.456 109.358 104.851 109.358C106.769 109.358 108.26 110.006 109.135 111.164C109.219 111.278 109.333 111.447 109.333 111.701C109.333 112.153 108.966 112.52 108.517 112.52C108.378 112.52 108.15 112.491 107.926 112.267C107.165 111.535 106.32 111.083 104.855 111.083C103.587 111.083 102.345 111.476 102.345 112.774" fill="#FFCD00"/>
<path d="M111.276 128.198C110.799 128.198 110.431 127.831 110.431 127.353C110.431 126.875 110.799 126.507 111.276 126.507H112.459V111.418H111.276C110.799 111.418 110.431 111.05 110.431 110.572C110.431 110.094 110.799 109.726 111.276 109.726H113.418C113.896 109.726 114.263 110.094 114.263 110.572V111.304C114.799 110.344 116.206 109.329 118.095 109.329C121.758 109.329 123.984 111.473 123.984 116.098C123.984 120.723 121.758 122.896 118.095 122.896C116.206 122.896 114.855 121.882 114.263 120.922V126.507H115.729C116.206 126.507 116.574 126.875 116.574 127.353C116.574 127.831 116.206 128.198 115.729 128.198H111.276ZM118.095 121.26C120.689 121.26 122.151 119.624 122.151 116.098C122.151 112.572 120.63 110.965 118.036 110.965C115.949 110.965 114.204 112.432 114.204 116.098C114.204 119.764 115.894 121.26 118.095 121.26Z" fill="#FFCD00"/>
<path d="M134.723 122.529C134.3 122.529 134.076 122.136 134.076 121.794V120.863C133.371 122.187 131.596 122.893 129.906 122.893C126.92 122.893 125.031 121.455 125.031 118.86C125.031 116.264 126.92 114.881 129.962 114.881H133.937V114.12C133.937 112.201 132.669 111.017 130.612 111.017C129.117 111.017 128.217 111.469 127.342 112.455C127.059 112.763 126.865 112.848 126.611 112.848C126.159 112.848 125.792 112.48 125.792 112.032C125.792 111.833 125.847 111.694 125.931 111.554C126.721 110.311 128.242 109.326 130.608 109.326C133.878 109.326 135.682 111.245 135.682 114.12V120.834H136.865C137.342 120.834 137.71 121.202 137.71 121.68C137.71 122.158 137.342 122.525 136.865 122.525H134.723V122.529ZM130.072 121.261C132.045 121.261 133.933 120.047 133.933 117.65V116.466H129.958C128.125 116.466 126.857 117.227 126.857 118.863C126.857 120.33 127.871 121.261 130.068 121.261" fill="#FFCD00"/>
<path d="M138.838 122.529C138.36 122.529 137.993 122.161 137.993 121.683C137.993 121.205 138.36 120.837 138.838 120.837H140.021V111.417H138.838C138.36 111.417 137.993 111.05 137.993 110.572C137.993 110.094 138.36 109.726 138.838 109.726H140.98C141.457 109.726 141.825 110.094 141.825 110.572V111.303C142.361 110.234 143.742 109.329 145.572 109.329C149.911 109.329 150.756 111.925 150.756 114.322V120.837H151.939C152.416 120.837 152.784 121.205 152.784 121.683C152.784 122.161 152.416 122.529 151.939 122.529H147.769C147.291 122.529 146.924 122.161 146.924 121.683C146.924 121.205 147.291 120.837 147.769 120.837H148.952V114.69C148.952 112.462 148.305 110.939 145.572 110.939C142.978 110.939 141.825 112.631 141.825 114.888V120.837H143.008C143.485 120.837 143.853 121.205 143.853 121.683C143.853 122.161 143.485 122.529 143.008 122.529H138.838ZM147.431 106.285C147.993 106.285 148.276 106.06 148.673 105.553C148.757 105.439 148.897 105.244 149.209 105.244C149.547 105.244 149.856 105.553 149.856 105.891C149.856 106.623 148.757 107.612 147.431 107.612C146.105 107.612 145.403 106.568 144.275 106.568C143.713 106.568 143.43 106.792 143.033 107.329C142.949 107.413 142.809 107.612 142.497 107.612C142.159 107.612 141.85 107.329 141.85 106.965C141.85 106.204 143.004 105.244 144.275 105.244C145.546 105.244 146.332 106.288 147.431 106.288" fill="#FFCD00"/>
<path d="M162.788 122.529C162.365 122.529 162.141 122.136 162.141 121.794V120.863C161.436 122.187 159.661 122.893 157.971 122.893C154.985 122.893 153.096 121.455 153.096 118.86C153.096 116.264 154.985 114.881 158.027 114.881H162.002V114.12C162.002 112.201 160.734 111.017 158.677 111.017C157.182 111.017 156.281 111.469 155.407 112.455C155.124 112.763 154.926 112.848 154.672 112.848C154.22 112.848 153.857 112.48 153.857 112.032C153.857 111.833 153.912 111.694 153.996 111.554C154.786 110.311 156.307 109.326 158.673 109.326C161.943 109.326 163.747 111.245 163.747 114.12V120.834H164.93C165.407 120.834 165.775 121.202 165.775 121.68C165.775 122.158 165.407 122.525 164.93 122.525H162.788V122.529ZM158.137 121.261C160.11 121.261 161.998 120.047 161.998 117.65V116.466H158.023C156.19 116.466 154.922 117.227 154.922 118.863C154.922 120.33 155.936 121.261 158.137 121.261Z" fill="#FFCD00"/>
<path d="M75.1215 24.5H16V64.5H75.1215V24.5Z" fill="#034EA2"/>
<path d="M44.3491 33.8256L45.5478 32.9528L46.7484 33.8256L46.2914 32.4135L47.5101 31.5427H46.0088L45.5478 30.1147L45.0887 31.5447L43.5874 31.5427L44.8061 32.4135L44.3491 33.8256Z" fill="#FFF200"/>
<path d="M38.1411 35.4872L39.3398 34.6144L40.5404 35.4872L40.0834 34.0772L41.3021 33.2044H39.7988L39.3398 31.7744L38.8807 33.2064L37.3794 33.2044L38.5961 34.0772L38.1411 35.4872Z" fill="#FFF200"/>
<path d="M34.7998 36.3096L34.3387 37.7416L32.8374 37.7396L34.0561 38.6123L33.5991 40.0224L34.7998 39.1496L35.9984 40.0224L35.5414 38.6123L36.7601 37.7396H35.2588L34.7998 36.3096Z" fill="#FFF200"/>
<path d="M33.1317 45.3273L34.3304 46.2001L33.8754 44.7901L35.0921 43.9173H33.5928L33.1317 42.4873L32.6727 43.9213L31.1714 43.9173L32.3901 44.7901L31.9331 46.2001L33.1317 45.3273Z" fill="#FFF200"/>
<path d="M35.2588 50.1121L34.7978 48.6841L34.3387 50.1141L32.8374 50.1121L34.0561 50.9849L33.5991 52.3949L34.7978 51.5221L35.9984 52.3949L35.5414 50.9849L36.7601 50.1121H35.2588Z" fill="#FFF200"/>
<path d="M39.809 54.6462L39.35 53.2202L38.891 54.6482L37.3896 54.6462L38.6064 55.519L38.1513 56.929L39.35 56.0582L40.5487 56.929L40.0937 55.519L41.3104 54.6462H39.809Z" fill="#FFF200"/>
<path d="M46.0087 56.2903L45.5497 54.8623L45.0907 56.2923L43.5894 56.2903L44.8061 57.1631L44.3511 58.5731L45.5497 57.7003L46.7484 58.5731L46.2914 57.1631L47.5101 56.2903H46.0087Z" fill="#FFF200"/>
<path d="M52.2084 54.6462L51.7494 53.2202L51.2884 54.6482L49.7891 54.6462L51.0058 55.519L50.5508 56.929L51.7494 56.0582L52.9501 56.929L52.4911 55.519L53.7098 54.6462H52.2084Z" fill="#FFF200"/>
<path d="M56.7607 50.1121L56.2997 48.6841L55.8407 50.1141L54.3394 50.1121L55.5581 50.9849L55.101 52.3949L56.2997 51.5221L57.5004 52.3949L57.0434 50.9849L58.2621 50.1121H56.7607Z" fill="#FFF200"/>
<path d="M59.9095 43.8987H58.4082L57.9472 42.4707L57.4902 43.9007L55.9868 43.8987L57.2055 44.7715L56.7505 46.1815L57.9472 45.3087L59.1478 46.1815L58.6928 44.7715L59.9095 43.8987Z" fill="#FFF200"/>
<path d="M55.101 40.0028L56.2997 39.132L57.5004 40.0028L57.0434 38.5927L58.2621 37.7219H56.7607L56.2997 36.2939L55.8407 37.7239L54.3394 37.7219L55.5581 38.5927L55.101 40.0028Z" fill="#FFF200"/>
<path d="M51.7675 31.7769L51.3085 33.2069L49.8071 33.2049L51.0238 34.0776L50.5668 35.4897L51.7695 34.6149L52.9662 35.4897L52.5111 34.0776L53.7299 33.2049H52.2265L51.7675 31.7769Z" fill="#FFF200"/>
<path d="M81.0206 34.0314V25.5952H86.8235V27.0212H82.7284V29.0184H86.2622V30.4444H82.7284V34.0294H81.0186L81.0206 34.0314Z" fill="#034EA2"/>
<path d="M88.2227 27.0911V25.5952H89.8463V27.0911H88.2227ZM88.2227 34.0294V27.92H89.8463V34.0294H88.2227Z" fill="#034EA2"/>
<path d="M97.086 34.0315H95.4624V30.9139C95.4624 30.2548 95.4284 29.8274 95.3582 29.6337C95.288 29.4399 95.1758 29.2902 95.0194 29.1823C94.8631 29.0745 94.6767 29.0205 94.4562 29.0205C94.1756 29.0205 93.923 29.0964 93.7005 29.2502C93.478 29.404 93.3237 29.6077 93.2415 29.8594C93.1593 30.111 93.1172 30.5804 93.1172 31.2634V34.0315H91.4956V27.9201H93.003V28.8168C93.5381 28.1258 94.2116 27.7803 95.0234 27.7803C95.3822 27.7803 95.709 27.8442 96.0056 27.972C96.3023 28.0998 96.5268 28.2636 96.6791 28.4633C96.8315 28.663 96.9377 28.8887 96.9958 29.1424C97.054 29.396 97.086 29.7575 97.086 30.2288V34.0255V34.0315Z" fill="#034EA2"/>
<path d="M99.9444 29.7859L98.4711 29.5203C98.6375 28.9291 98.9221 28.4917 99.325 28.2081C99.7299 27.9245 100.329 27.7827 101.127 27.7827C101.851 27.7827 102.39 27.8686 102.745 28.0384C103.099 28.2081 103.348 28.4258 103.492 28.6874C103.637 28.9511 103.709 29.4324 103.709 30.1354L103.691 32.0228C103.691 32.56 103.717 32.9555 103.769 33.2111C103.821 33.4668 103.917 33.7404 104.062 34.032H102.456C102.414 33.9241 102.362 33.7663 102.3 33.5546C102.274 33.4588 102.254 33.3949 102.241 33.3649C101.965 33.6325 101.668 33.8342 101.352 33.9681C101.035 34.1019 100.698 34.1698 100.341 34.1698C99.7099 34.1698 99.2128 34 98.8479 33.6585C98.4851 33.317 98.3027 32.8856 98.3027 32.3643C98.3027 32.0188 98.3849 31.7112 98.5513 31.4416C98.7177 31.172 98.9482 30.9643 99.2468 30.8205C99.5455 30.6767 99.9745 30.5508 100.538 30.443C101.295 30.3012 101.823 30.1694 102.115 30.0455V29.8838C102.115 29.5722 102.039 29.3525 101.885 29.2187C101.73 29.0869 101.44 29.021 101.013 29.021C100.724 29.021 100.5 29.0769 100.337 29.1907C100.175 29.3046 100.045 29.5023 99.9444 29.7859ZM102.115 31.0981C101.907 31.168 101.578 31.2499 101.127 31.3457C100.676 31.4416 100.381 31.5355 100.243 31.6273C100.031 31.7771 99.9263 31.9669 99.9263 32.1965C99.9263 32.4262 100.011 32.6179 100.181 32.7837C100.349 32.9495 100.566 33.0314 100.828 33.0314C101.121 33.0314 101.4 32.9355 101.666 32.7438C101.863 32.598 101.991 32.4202 102.053 32.2085C102.095 32.0707 102.117 31.8071 102.117 31.4196V31.0981H102.115Z" fill="#034EA2"/>
<path d="M110.887 34.0315H109.263V30.9139C109.263 30.2548 109.229 29.8274 109.159 29.6337C109.089 29.4399 108.977 29.2902 108.82 29.1823C108.664 29.0745 108.477 29.0205 108.257 29.0205C107.976 29.0205 107.724 29.0964 107.501 29.2502C107.279 29.404 107.124 29.6077 107.042 29.8594C106.96 30.111 106.918 30.5804 106.918 31.2634V34.0315H105.296V27.9201H106.804V28.8168C107.339 28.1258 108.012 27.7803 108.824 27.7803C109.183 27.7803 109.51 27.8442 109.806 27.972C110.103 28.0998 110.328 28.2636 110.48 28.4633C110.632 28.663 110.738 28.8887 110.797 29.1424C110.855 29.396 110.887 29.7575 110.887 30.2288V34.0255V34.0315Z" fill="#034EA2"/>
<path d="M117.881 29.728L116.281 30.0156C116.227 29.698 116.105 29.4584 115.914 29.2966C115.724 29.1348 115.475 29.0549 115.173 29.0549C114.768 29.0549 114.447 29.1947 114.204 29.4723C113.964 29.75 113.844 30.2153 113.844 30.8684C113.844 31.5934 113.966 32.1047 114.21 32.4042C114.455 32.7038 114.784 32.8536 115.195 32.8536C115.503 32.8536 115.754 32.7657 115.95 32.592C116.147 32.4182 116.285 32.1166 116.365 31.6912L117.959 31.9609C117.792 32.6898 117.476 33.2411 117.007 33.6126C116.538 33.984 115.908 34.1698 115.118 34.1698C114.222 34.1698 113.507 33.8882 112.974 33.325C112.44 32.7617 112.174 31.9808 112.174 30.9822C112.174 29.9836 112.44 29.1887 112.976 28.6255C113.511 28.0643 114.234 27.7827 115.146 27.7827C115.894 27.7827 116.487 27.9425 116.928 28.264C117.369 28.5836 117.686 29.0729 117.879 29.728H117.881Z" fill="#034EA2"/>
<path d="M119.109 27.0911V25.5952H120.733V27.0911H119.109ZM119.109 34.0294V27.92H120.733V34.0294H119.109Z" fill="#034EA2"/>
<path d="M123.609 29.7859L122.136 29.5203C122.303 28.9291 122.587 28.4917 122.99 28.2081C123.395 27.9245 123.994 27.7827 124.792 27.7827C125.516 27.7827 126.055 27.8686 126.41 28.0384C126.764 28.2081 127.013 28.4258 127.157 28.6874C127.302 28.9511 127.374 29.4324 127.374 30.1354L127.356 32.0228C127.356 32.56 127.382 32.9555 127.434 33.2111C127.486 33.4668 127.582 33.7404 127.727 34.032H126.121C126.079 33.9241 126.027 33.7663 125.965 33.5546C125.939 33.4588 125.919 33.3949 125.907 33.3649C125.63 33.6325 125.333 33.8342 125.017 33.9681C124.7 34.1019 124.363 34.1698 124.006 34.1698C123.375 34.1698 122.878 34 122.513 33.6585C122.15 33.317 121.968 32.8856 121.968 32.3643C121.968 32.0188 122.05 31.7112 122.216 31.4416C122.383 31.172 122.613 30.9643 122.912 30.8205C123.211 30.6767 123.639 30.5508 124.203 30.443C124.96 30.3012 125.488 30.1694 125.78 30.0455V29.8838C125.78 29.5722 125.704 29.3525 125.55 29.2187C125.395 29.0869 125.105 29.021 124.678 29.021C124.389 29.021 124.165 29.0769 124.002 29.1907C123.84 29.3046 123.71 29.5023 123.609 29.7859ZM125.78 31.0981C125.572 31.168 125.243 31.2499 124.792 31.3457C124.341 31.4416 124.046 31.5355 123.908 31.6273C123.696 31.7771 123.591 31.9669 123.591 32.1965C123.591 32.4262 123.676 32.6179 123.846 32.7837C124.014 32.9495 124.231 33.0314 124.493 33.0314C124.786 33.0314 125.065 32.9355 125.331 32.7438C125.528 32.598 125.656 32.4202 125.718 32.2085C125.76 32.0707 125.782 31.8071 125.782 31.4196V31.0981H125.78Z" fill="#034EA2"/>
<path d="M134.598 34.0314H133.09V33.1347C132.84 33.4842 132.545 33.7438 132.204 33.9136C131.864 34.0833 131.521 34.1692 131.174 34.1692C130.47 34.1692 129.865 33.8856 129.364 33.3204C128.861 32.7552 128.61 31.9663 128.61 30.9537C128.61 29.9411 128.855 29.1303 129.344 28.591C129.833 28.0518 130.45 27.7822 131.198 27.7822C131.884 27.7822 132.477 28.0658 132.976 28.633V25.5952H134.6V34.0314H134.598ZM130.266 30.8439C130.266 31.497 130.356 31.9683 130.537 32.2599C130.799 32.6813 131.164 32.893 131.633 32.893C132.006 32.893 132.325 32.7352 132.585 32.4177C132.848 32.1021 132.978 31.6288 132.978 30.9996C132.978 30.2986 132.852 29.7933 132.597 29.4838C132.343 29.1742 132.018 29.0204 131.621 29.0204C131.224 29.0204 130.913 29.1722 130.653 29.4778C130.392 29.7834 130.262 30.2387 130.262 30.8439H130.266Z" fill="#034EA2"/>
<path d="M135.822 30.8904C135.822 30.3531 135.955 29.8338 136.221 29.3305C136.488 28.8273 136.863 28.4438 137.35 28.1802C137.837 27.9145 138.38 27.7827 138.981 27.7827C139.909 27.7827 140.669 28.0823 141.262 28.6835C141.856 29.2846 142.152 30.0416 142.152 30.9583C142.152 31.875 141.854 32.6499 141.254 33.2571C140.655 33.8642 139.901 34.1698 138.993 34.1698C138.432 34.1698 137.895 34.0439 137.386 33.7903C136.877 33.5367 136.488 33.1652 136.221 32.6779C135.957 32.1885 135.822 31.5934 135.822 30.8904ZM137.486 30.9762C137.486 31.5814 137.63 32.0467 137.919 32.3683C138.208 32.6898 138.564 32.8516 138.987 32.8516C139.41 32.8516 139.765 32.6898 140.054 32.3683C140.34 32.0467 140.485 31.5774 140.485 30.9643C140.485 30.3511 140.34 29.9057 140.054 29.5842C139.767 29.2626 139.412 29.1009 138.987 29.1009C138.562 29.1009 138.208 29.2626 137.919 29.5842C137.63 29.9057 137.486 30.3711 137.486 30.9762Z" fill="#034EA2"/>
<path d="M146.661 27.9201H148.174V28.8168C148.37 28.5093 148.635 28.2616 148.97 28.0679C149.305 27.8761 149.675 27.7803 150.084 27.7803C150.796 27.7803 151.401 28.0579 151.898 28.6151C152.395 29.1723 152.644 29.9452 152.644 30.9399C152.644 31.9345 152.393 32.7533 151.894 33.3185C151.393 33.8837 150.788 34.1673 150.074 34.1673C149.735 34.1673 149.429 34.0994 149.154 33.9656C148.88 33.8318 148.589 33.6021 148.284 33.2746V36.3523H146.661V27.9201ZM148.266 30.8719C148.266 31.559 148.403 32.0663 148.675 32.3938C148.948 32.7214 149.282 32.8851 149.673 32.8851C150.064 32.8851 150.365 32.7353 150.615 32.4338C150.866 32.1322 150.99 31.6389 150.99 30.9518C150.99 30.3107 150.862 29.8354 150.603 29.5258C150.345 29.2143 150.026 29.0605 149.645 29.0605C149.264 29.0605 148.92 29.2123 148.657 29.5178C148.395 29.8234 148.264 30.2748 148.264 30.8719H148.266Z" fill="#034EA2"/>
<path d="M153.556 30.8904C153.556 30.3531 153.688 29.8338 153.955 29.3305C154.222 28.8273 154.596 28.4438 155.084 28.1802C155.571 27.9145 156.114 27.7827 156.715 27.7827C157.643 27.7827 158.403 28.0823 158.996 28.6835C159.59 29.2846 159.886 30.0416 159.886 30.9583C159.886 31.875 159.588 32.6499 158.988 33.2571C158.389 33.8642 157.635 34.1698 156.727 34.1698C156.166 34.1698 155.629 34.0439 155.12 33.7903C154.61 33.5367 154.222 33.1652 153.955 32.6779C153.69 32.1885 153.556 31.5934 153.556 30.8904ZM155.22 30.9762C155.22 31.5814 155.364 32.0467 155.653 32.3683C155.941 32.6898 156.298 32.8516 156.721 32.8516C157.144 32.8516 157.499 32.6898 157.788 32.3683C158.074 32.0467 158.219 31.5774 158.219 30.9643C158.219 30.3511 158.074 29.9057 157.788 29.5842C157.501 29.2626 157.146 29.1009 156.721 29.1009C156.296 29.1009 155.941 29.2626 155.653 29.5842C155.364 29.9057 155.22 30.3711 155.22 30.9762Z" fill="#034EA2"/>
<path d="M162.708 34.032H161.084V27.9205H162.592V28.7893C162.85 28.3799 163.081 28.1083 163.287 27.9784C163.494 27.8486 163.726 27.7827 163.989 27.7827C164.358 27.7827 164.715 27.8846 165.057 28.0883L164.554 29.4983C164.282 29.3226 164.027 29.2327 163.792 29.2327C163.558 29.2327 163.374 29.2946 163.215 29.4204C163.057 29.5442 162.933 29.7699 162.842 30.0955C162.752 30.421 162.706 31.1041 162.706 32.1446V34.032H162.708Z" fill="#034EA2"/>
<path d="M80.9985 48.172V39.7378H82.6221V48.172H80.9985Z" fill="#034EA2"/>
<path d="M85.4966 43.9251L84.0234 43.6594C84.1897 43.0683 84.4744 42.6309 84.8773 42.3473C85.2822 42.0637 85.8815 41.9219 86.6793 41.9219C87.4029 41.9219 87.9421 42.0078 88.2969 42.1775C88.6516 42.3473 88.9002 42.565 89.0445 42.8266C89.1888 43.0902 89.261 43.5716 89.261 44.2746L89.243 46.1619C89.243 46.6992 89.269 47.0946 89.3211 47.3503C89.3733 47.6059 89.4695 47.8795 89.6138 48.1711H88.0082C87.9661 48.0633 87.914 47.9055 87.8519 47.6938C87.8258 47.5979 87.8058 47.534 87.7937 47.5041C87.5171 47.7717 87.2205 47.9734 86.9038 48.1072C86.5871 48.241 86.2503 48.3089 85.8935 48.3089C85.2621 48.3089 84.765 48.1392 84.4002 47.7976C84.0374 47.4561 83.855 47.0247 83.855 46.5035C83.855 46.1579 83.9372 45.8504 84.1035 45.5808C84.2699 45.3111 84.5004 45.1034 84.7991 44.9596C85.0977 44.8158 85.5267 44.69 86.09 44.5822C86.8476 44.4403 87.3748 44.3085 87.6675 44.1847V44.0229C87.6675 43.7114 87.5913 43.4917 87.4369 43.3579C87.2826 43.226 86.992 43.1601 86.565 43.1601C86.2764 43.1601 86.0519 43.2161 85.8895 43.3299C85.7271 43.4437 85.5969 43.6415 85.4966 43.9251ZM87.6675 45.2372C87.459 45.3071 87.1303 45.389 86.6793 45.4849C86.2283 45.5808 85.9336 45.6746 85.7953 45.7665C85.5828 45.9163 85.4786 46.106 85.4786 46.3357C85.4786 46.5654 85.5628 46.7571 85.7332 46.9229C85.9015 47.0886 86.118 47.1705 86.3806 47.1705C86.6732 47.1705 86.9519 47.0747 87.2185 46.8829C87.4149 46.7371 87.5432 46.5594 87.6053 46.3477C87.6474 46.2099 87.6695 45.9462 87.6695 45.5588V45.2372H87.6675Z" fill="#034EA2"/>
<path d="M94.1475 39.7358H95.8573V44.3034C95.8573 45.0284 95.8793 45.4978 95.9214 45.7135C95.9936 46.059 96.168 46.3366 96.4446 46.5443C96.7192 46.754 97.096 46.8579 97.5731 46.8579C98.0501 46.8579 98.423 46.76 98.6695 46.5623C98.9161 46.3646 99.0644 46.1229 99.1145 45.8353C99.1646 45.5477 99.1907 45.0704 99.1907 44.4033V39.7378H100.9V44.1676C100.9 45.1802 100.854 45.8952 100.762 46.3146C100.67 46.732 100.5 47.0855 100.251 47.3731C100.002 47.6607 99.6697 47.8904 99.2548 48.0602C98.8399 48.2299 98.2967 48.3158 97.6272 48.3158C96.8194 48.3158 96.206 48.222 95.7871 48.0362C95.3702 47.8505 95.0394 47.6088 94.7969 47.3112C94.5544 47.0136 94.394 46.7021 94.3178 46.3765C94.2056 45.8932 94.1495 45.1802 94.1495 44.2355V39.7358H94.1475Z" fill="#034EA2"/>
<path d="M108.265 48.1711H106.642V45.0535C106.642 44.3944 106.608 43.967 106.537 43.7733C106.467 43.5796 106.355 43.4298 106.199 43.3219C106.042 43.2141 105.856 43.1601 105.635 43.1601C105.355 43.1601 105.102 43.236 104.88 43.3898C104.657 43.5436 104.503 43.7473 104.421 43.999C104.339 44.2506 104.296 44.72 104.296 45.403V48.1711H102.675V42.0617H104.182V42.9584C104.717 42.2674 105.391 41.9219 106.203 41.9219C106.561 41.9219 106.888 41.9858 107.185 42.1136C107.481 42.2414 107.706 42.4052 107.858 42.6049C108.011 42.8046 108.117 43.0303 108.175 43.284C108.233 43.5376 108.265 43.8991 108.265 44.3704V48.1671V48.1711Z" fill="#034EA2"/>
<path d="M109.911 41.2317V39.7358H111.534V41.2317H109.911ZM109.911 48.17V42.0606H111.534V48.17H109.911Z" fill="#034EA2"/>
<path d="M112.821 45.0297C112.821 44.4924 112.954 43.9731 113.22 43.4698C113.487 42.9665 113.862 42.5831 114.349 42.3194C114.836 42.0538 115.379 41.922 115.98 41.922C116.908 41.922 117.668 42.2216 118.261 42.8227C118.855 43.4239 119.151 44.1808 119.151 45.0976C119.151 46.0143 118.853 46.7872 118.253 47.3963C117.654 48.0035 116.9 48.3091 115.992 48.3091C115.431 48.3091 114.894 48.1832 114.385 47.9296C113.876 47.6759 113.487 47.3045 113.22 46.8171C112.956 46.3278 112.821 45.7327 112.821 45.0297ZM114.485 45.1155C114.485 45.7207 114.629 46.186 114.918 46.5076C115.207 46.8291 115.563 46.9909 115.986 46.9909C116.409 46.9909 116.764 46.8291 117.053 46.5076C117.339 46.186 117.484 45.7167 117.484 45.1035C117.484 44.4904 117.339 44.045 117.053 43.7235C116.766 43.4019 116.411 43.2402 115.986 43.2402C115.561 43.2402 115.207 43.4019 114.918 43.7235C114.629 44.045 114.485 44.5104 114.485 45.1155ZM115.167 41.3129L115.964 39.5933H117.784L116.197 41.3129H115.169H115.167Z" fill="#034EA2"/>
<path d="M125.999 48.1711H124.375V45.0535C124.375 44.3944 124.341 43.967 124.271 43.7733C124.201 43.5796 124.088 43.4298 123.932 43.3219C123.776 43.2141 123.589 43.1601 123.369 43.1601C123.088 43.1601 122.836 43.236 122.613 43.3898C122.391 43.5436 122.236 43.7473 122.154 43.999C122.072 44.2526 122.03 44.72 122.03 45.403V48.1711H120.408V42.0617H121.916V42.9584C122.451 42.2674 123.124 41.9219 123.936 41.9219C124.295 41.9219 124.622 41.9858 124.918 42.1136C125.215 42.2414 125.439 42.4052 125.592 42.6049C125.744 42.8046 125.85 43.0303 125.908 43.284C125.967 43.5376 125.999 43.8991 125.999 44.3704V48.1671V48.1711Z" fill="#034EA2"/>
<path d="M130.941 48.172V39.7378H137.217V41.1638H132.649V43.0332H136.899V44.4552H132.649V46.75H137.378V48.172H130.939H130.941Z" fill="#034EA2"/>
<path d="M142.856 48.1724V47.2577C142.634 47.5833 142.339 47.8409 141.976 48.0286C141.613 48.2164 141.229 48.3102 140.824 48.3102C140.419 48.3102 140.042 48.2204 139.715 48.0406C139.388 47.8609 139.152 47.6072 139.006 47.2817C138.859 46.9561 138.787 46.5048 138.787 45.9296V42.063H140.409V44.8711C140.409 45.7299 140.439 46.2571 140.499 46.4508C140.559 46.6446 140.667 46.7984 140.826 46.9102C140.984 47.024 141.184 47.08 141.427 47.08C141.704 47.08 141.952 47.0041 142.173 46.8523C142.393 46.7005 142.541 46.5128 142.624 46.2891C142.704 46.0654 142.744 45.5142 142.744 44.6414V42.063H144.366V48.1724H142.858H142.856Z" fill="#034EA2"/>
<path d="M147.597 48.1716H145.973V42.0621H147.48V42.9309C147.739 42.5215 147.97 42.2499 148.176 42.12C148.382 41.9902 148.615 41.9243 148.878 41.9243C149.246 41.9243 149.603 42.0262 149.946 42.2299L149.443 43.6399C149.17 43.4642 148.916 43.3743 148.681 43.3743C148.447 43.3743 148.262 43.4362 148.104 43.562C147.946 43.6859 147.821 43.9115 147.731 44.2371C147.641 44.5626 147.595 45.2457 147.595 46.2862V48.1736L147.597 48.1716Z" fill="#034EA2"/>
<path d="M150.271 45.0295C150.271 44.4923 150.403 43.973 150.669 43.4697C150.936 42.9664 151.311 42.5829 151.798 42.3193C152.285 42.0537 152.828 41.9219 153.43 41.9219C154.358 41.9219 155.117 42.2215 155.711 42.8226C156.304 43.4238 156.601 44.1807 156.601 45.0974C156.601 46.0141 156.302 46.7871 155.703 47.3962C155.103 48.0034 154.35 48.3089 153.442 48.3089C152.88 48.3089 152.343 48.1831 151.834 47.9295C151.325 47.6758 150.936 47.3043 150.669 46.817C150.405 46.3277 150.271 45.7325 150.271 45.0295ZM151.934 45.1154C151.934 45.7206 152.079 46.1859 152.367 46.5075C152.656 46.829 153.013 46.9908 153.436 46.9908C153.858 46.9908 154.213 46.829 154.502 46.5075C154.789 46.1859 154.933 45.7166 154.933 45.1034C154.933 44.4903 154.789 44.0449 154.502 43.7234C154.215 43.4018 153.86 43.24 153.436 43.24C153.011 43.24 152.656 43.4018 152.367 43.7234C152.079 44.0449 151.934 44.5103 151.934 45.1154Z" fill="#034EA2"/>
<path d="M157.823 42.0602H159.337V42.957C159.533 42.6494 159.798 42.4017 160.132 42.208C160.467 42.0163 160.838 41.9204 161.247 41.9204C161.958 41.9204 162.564 42.198 163.061 42.7552C163.558 43.3125 163.807 44.0854 163.807 45.08C163.807 46.0746 163.556 46.8934 163.057 47.4587C162.556 48.0239 161.95 48.3075 161.237 48.3075C160.898 48.3075 160.591 48.2396 160.317 48.1058C160.042 47.9719 159.752 47.7423 159.447 47.4147V50.4924H157.823V42.0582V42.0602ZM159.429 45.0121C159.429 45.6991 159.565 46.2064 159.838 46.534C160.11 46.8615 160.445 47.0253 160.836 47.0253C161.227 47.0253 161.527 46.8755 161.778 46.5739C162.029 46.2723 162.153 45.779 162.153 45.092C162.153 44.4509 162.025 43.9755 161.766 43.666C161.507 43.3544 161.189 43.2006 160.808 43.2006C160.427 43.2006 160.082 43.3524 159.82 43.658C159.557 43.9635 159.427 44.4149 159.427 45.0121H159.429Z" fill="#034EA2"/>
<path d="M168.644 46.2263L170.261 46.4959C170.053 47.0871 169.726 47.5365 169.277 47.846C168.828 48.1556 168.267 48.3094 167.593 48.3094C166.527 48.3094 165.737 47.9619 165.226 47.2688C164.821 46.7136 164.621 46.0106 164.621 45.1638C164.621 44.1512 164.885 43.3583 165.416 42.7851C165.948 42.2119 166.619 41.9243 167.431 41.9243C168.343 41.9243 169.062 42.2239 169.59 42.8251C170.117 43.4262 170.369 44.3449 170.345 45.5832H166.28C166.292 46.0625 166.423 46.436 166.673 46.7016C166.924 46.9673 167.234 47.1011 167.609 47.1011C167.864 47.1011 168.076 47.0312 168.251 46.8934C168.425 46.7556 168.555 46.5319 168.644 46.2263ZM168.736 44.5926C168.724 44.1252 168.603 43.7697 168.371 43.5261C168.138 43.2824 167.86 43.1606 167.527 43.1606C167.172 43.1606 166.88 43.2884 166.649 43.546C166.419 43.8037 166.304 44.1512 166.308 44.5926H168.734H168.736Z" fill="#034EA2"/>
<path d="M172.883 43.9251L171.41 43.6594C171.576 43.0683 171.861 42.6309 172.263 42.3473C172.668 42.0637 173.268 41.9219 174.065 41.9219C174.789 41.9219 175.328 42.0078 175.683 42.1775C176.038 42.3473 176.286 42.565 176.431 42.8266C176.575 43.0902 176.647 43.5716 176.647 44.2746L176.629 46.1619C176.629 46.6992 176.655 47.0946 176.707 47.3503C176.759 47.6059 176.856 47.8795 177 48.1711H175.394C175.352 48.0633 175.3 47.9055 175.238 47.6938C175.212 47.5979 175.192 47.534 175.18 47.5041C174.903 47.7717 174.607 47.9734 174.29 48.1072C173.973 48.241 173.637 48.3089 173.28 48.3089C172.648 48.3089 172.151 48.1392 171.786 47.7976C171.424 47.4561 171.241 47.0247 171.241 46.5035C171.241 46.1579 171.323 45.8504 171.49 45.5808C171.656 45.3111 171.887 45.1034 172.185 44.9596C172.484 44.8158 172.913 44.69 173.476 44.5822C174.234 44.4403 174.761 44.3085 175.054 44.1847V44.0229C175.054 43.7114 174.978 43.4917 174.823 43.3579C174.669 43.226 174.378 43.1601 173.951 43.1601C173.663 43.1601 173.438 43.2161 173.276 43.3299C173.113 43.4437 172.983 43.6415 172.883 43.9251ZM175.054 45.2372C174.845 45.3071 174.517 45.389 174.065 45.4849C173.614 45.5808 173.32 45.6746 173.182 45.7665C172.969 45.9163 172.865 46.106 172.865 46.3357C172.865 46.5654 172.949 46.7571 173.119 46.9229C173.288 47.0886 173.504 47.1705 173.767 47.1705C174.059 47.1705 174.338 47.0747 174.605 46.8829C174.801 46.7371 174.929 46.5594 174.992 46.3477C175.034 46.2099 175.056 45.9462 175.056 45.5588V45.2372H175.054Z" fill="#034EA2"/>
<path d="M81.0127 63.347V56.0552H82.0069L85.8515 61.7792V56.0552H86.7795V63.347H85.7853L81.9428 57.617V63.347H81.0147H81.0127Z" fill="#58595B"/>
<path d="M91.919 61.6456L92.847 61.7595C92.7007 62.3007 92.4301 62.7201 92.0332 63.0177C91.6363 63.3153 91.1312 63.4651 90.5159 63.4651C89.7401 63.4651 89.1248 63.2274 88.6717 62.7521C88.2167 62.2768 87.9902 61.6097 87.9902 60.7509C87.9902 59.8921 88.2207 59.1731 88.6798 58.6818C89.1388 58.1905 89.7341 57.9448 90.4657 57.9448C91.1974 57.9448 91.7546 58.1845 92.2036 58.6658C92.6526 59.1471 92.8771 59.8222 92.8771 60.695C92.8771 60.7489 92.8771 60.8268 92.8731 60.9346H88.9203C88.9544 61.5158 89.1187 61.9592 89.4134 62.2668C89.7101 62.5743 90.0789 62.7301 90.5219 62.7301C90.8506 62.7301 91.1332 62.6442 91.3657 62.4725C91.5983 62.3007 91.7827 62.0251 91.919 61.6476V61.6456ZM88.9684 60.1977H91.929C91.8889 59.7543 91.7767 59.4208 91.5902 59.1991C91.3036 58.8536 90.9328 58.6818 90.4778 58.6818C90.0648 58.6818 89.7181 58.8196 89.4375 59.0952C89.1568 59.3708 89.0005 59.7383 88.9704 60.1997L88.9684 60.1977Z" fill="#58595B"/>
<path d="M93.3765 63.3475L95.3128 60.6014L93.5208 58.0649H94.6433L95.4571 59.3032C95.6094 59.5389 95.7337 59.7366 95.8259 59.8944C95.9722 59.6747 96.1065 59.481 96.2308 59.3132L97.1248 58.0649H98.1972L96.3651 60.5515L98.3375 63.3475H97.235L96.1466 61.7058L95.858 61.2625L94.4649 63.3455H93.3765V63.3475Z" fill="#58595B"/>
<path d="M101.047 62.5464L101.178 63.3373C100.925 63.3892 100.699 63.4172 100.498 63.4172C100.171 63.4172 99.9188 63.3652 99.7384 63.2634C99.558 63.1615 99.4317 63.0257 99.3596 62.8579C99.2854 62.6902 99.2493 62.3387 99.2493 61.8014V58.7617H98.5898V58.0647H99.2493V56.7565L100.143 56.2192V58.0647H101.047V58.7617H100.143V61.8494C100.143 62.105 100.159 62.2688 100.191 62.3427C100.223 62.4166 100.274 62.4745 100.346 62.5164C100.418 62.5584 100.52 62.5803 100.652 62.5803C100.753 62.5803 100.883 62.5684 101.047 62.5464Z" fill="#58595B"/>
<path d="M105.465 60.4873V59.6325L108.564 59.6265V62.3327C108.087 62.7102 107.598 62.9958 107.091 63.1855C106.584 63.3752 106.066 63.4711 105.533 63.4711C104.814 63.4711 104.162 63.3173 103.575 63.0117C102.988 62.7062 102.545 62.2608 102.244 61.6816C101.945 61.1004 101.795 60.4533 101.795 59.7363C101.795 59.0193 101.943 58.3642 102.242 57.7491C102.541 57.134 102.968 56.6766 103.527 56.379C104.086 56.0814 104.729 55.9316 105.459 55.9316C105.988 55.9316 106.467 56.0175 106.894 56.1873C107.321 56.357 107.658 56.5967 107.901 56.9003C108.143 57.2039 108.327 57.6033 108.454 58.0946L107.58 58.3343C107.47 57.9628 107.333 57.6712 107.171 57.4595C107.009 57.2478 106.774 57.078 106.471 56.9502C106.169 56.8224 105.832 56.7585 105.463 56.7585C105.02 56.7585 104.637 56.8264 104.315 56.9602C103.992 57.094 103.731 57.2718 103.533 57.4895C103.334 57.7072 103.18 57.9488 103.072 58.2105C102.885 58.6618 102.793 59.1511 102.793 59.6784C102.793 60.3275 102.905 60.8727 103.13 61.3101C103.354 61.7475 103.681 62.073 104.11 62.2847C104.539 62.4964 104.996 62.6023 105.477 62.6023C105.896 62.6023 106.305 62.5224 106.706 62.3606C107.105 62.2009 107.407 62.0291 107.614 61.8454V60.4873H105.463H105.465Z" fill="#58595B"/>
<path d="M113.507 61.6456L114.435 61.7595C114.289 62.3007 114.018 62.7201 113.621 63.0177C113.224 63.3153 112.719 63.4651 112.104 63.4651C111.328 63.4651 110.713 63.2274 110.26 62.7521C109.805 62.2768 109.578 61.6097 109.578 60.7509C109.578 59.8921 109.809 59.1731 110.268 58.6818C110.727 58.1905 111.322 57.9448 112.054 57.9448C112.785 57.9448 113.342 58.1845 113.791 58.6658C114.24 59.1471 114.465 59.8222 114.465 60.695C114.465 60.7489 114.465 60.8268 114.461 60.9346H110.508C110.542 61.5158 110.707 61.9592 111.001 62.2668C111.298 62.5743 111.667 62.7301 112.11 62.7301C112.438 62.7301 112.721 62.6442 112.954 62.4725C113.186 62.3007 113.371 62.0251 113.507 61.6476V61.6456ZM110.556 60.1977H113.517C113.477 59.7543 113.365 59.4208 113.178 59.1991C112.891 58.8536 112.521 58.6818 112.066 58.6818C111.653 58.6818 111.306 58.8196 111.025 59.0952C110.745 59.3708 110.588 59.7383 110.558 60.1997L110.556 60.1977Z" fill="#58595B"/>
<path d="M115.563 63.3473V58.0647H116.373V58.8156C116.762 58.2344 117.325 57.9448 118.061 57.9448C118.38 57.9448 118.674 58.0027 118.943 58.1166C119.212 58.2304 119.412 58.3802 119.544 58.566C119.677 58.7517 119.771 58.9714 119.823 59.227C119.857 59.3928 119.873 59.6824 119.873 60.0978V63.3453H118.975V60.1318C118.975 59.7663 118.941 59.4947 118.871 59.3129C118.801 59.1332 118.676 58.9874 118.498 58.8795C118.32 58.7717 118.111 58.7177 117.873 58.7177C117.49 58.7177 117.159 58.8396 116.882 59.0812C116.604 59.3229 116.465 59.7823 116.465 60.4593V63.3433H115.567L115.563 63.3473Z" fill="#58595B"/>
<path d="M124.878 61.6456L125.806 61.7595C125.66 62.3007 125.389 62.7201 124.992 63.0177C124.595 63.3153 124.09 63.4651 123.475 63.4651C122.699 63.4651 122.084 63.2274 121.631 62.7521C121.176 62.2768 120.949 61.6097 120.949 60.7509C120.949 59.8921 121.18 59.1731 121.639 58.6818C122.098 58.1905 122.693 57.9448 123.425 57.9448C124.156 57.9448 124.714 58.1845 125.163 58.6658C125.612 59.1471 125.836 59.8222 125.836 60.695C125.836 60.7489 125.836 60.8268 125.832 60.9346H121.879C121.913 61.5158 122.078 61.9592 122.372 62.2668C122.669 62.5743 123.038 62.7301 123.481 62.7301C123.81 62.7301 124.092 62.6442 124.325 62.4725C124.557 62.3007 124.742 62.0251 124.878 61.6476V61.6456ZM121.927 60.1977H124.888C124.848 59.7543 124.736 59.4208 124.549 59.1991C124.263 58.8536 123.892 58.6818 123.437 58.6818C123.024 58.6818 122.677 58.8196 122.396 59.0952C122.116 59.3708 121.959 59.7383 121.929 60.1997L121.927 60.1977Z" fill="#58595B"/>
<path d="M126.925 63.3473V58.0647H127.733V58.8655C127.939 58.4901 128.129 58.2444 128.304 58.1246C128.478 58.0047 128.671 57.9448 128.881 57.9448C129.184 57.9448 129.493 58.0407 129.805 58.2324L129.497 59.0633C129.276 58.9334 129.058 58.8695 128.837 58.8695C128.641 58.8695 128.464 58.9275 128.308 59.0453C128.152 59.1631 128.039 59.3269 127.973 59.5346C127.873 59.8522 127.823 60.2017 127.823 60.5791V63.3453H126.925V63.3473Z" fill="#58595B"/>
<path d="M133.798 62.6942C133.465 62.9758 133.145 63.1755 132.838 63.2913C132.529 63.4072 132.2 63.4651 131.848 63.4651C131.264 63.4651 130.817 63.3233 130.505 63.0397C130.192 62.7561 130.036 62.3946 130.036 61.9532C130.036 61.6956 130.094 61.4579 130.212 61.2442C130.33 61.0305 130.485 60.8587 130.677 60.7289C130.867 60.5991 131.084 60.5012 131.323 60.4353C131.499 60.3894 131.765 60.3435 132.12 60.3015C132.846 60.2156 133.379 60.1118 133.722 59.994C133.726 59.8721 133.726 59.7942 133.726 59.7603C133.726 59.3948 133.642 59.1392 133.471 58.9894C133.243 58.7876 132.9 58.6858 132.449 58.6858C132.026 58.6858 131.713 58.7597 131.513 58.9075C131.312 59.0553 131.162 59.3169 131.066 59.6904L130.188 59.5705C130.268 59.1951 130.398 58.8935 130.583 58.6638C130.767 58.4341 131.03 58.2564 131.377 58.1306C131.723 58.0067 132.124 57.9448 132.579 57.9448C133.034 57.9448 133.399 57.9987 133.682 58.1046C133.964 58.2105 134.173 58.3443 134.305 58.504C134.437 58.6638 134.532 58.8675 134.584 59.1132C134.614 59.265 134.628 59.5406 134.628 59.938V61.1324C134.628 61.9652 134.648 62.4905 134.686 62.7122C134.724 62.9318 134.8 63.1435 134.912 63.3453H133.974C133.882 63.1595 133.822 62.9418 133.794 62.6942H133.798ZM133.724 60.695C133.397 60.8268 132.908 60.9406 132.257 61.0325C131.888 61.0864 131.625 61.1443 131.473 61.2122C131.321 61.2782 131.202 61.376 131.118 61.5038C131.034 61.6317 130.994 61.7735 130.994 61.9292C130.994 62.1689 131.084 62.3666 131.266 62.5264C131.447 62.6862 131.713 62.7661 132.062 62.7661C132.411 62.7661 132.716 62.6902 132.986 62.5404C133.255 62.3906 133.453 62.1829 133.58 61.9213C133.676 61.7195 133.724 61.42 133.724 61.0265V60.699V60.695Z" fill="#58595B"/>
<path d="M137.985 62.5464L138.116 63.3373C137.863 63.3892 137.637 63.4172 137.436 63.4172C137.109 63.4172 136.857 63.3652 136.676 63.2634C136.496 63.1615 136.37 63.0257 136.298 62.8579C136.223 62.6902 136.187 62.3387 136.187 61.8014V58.7617H135.528V58.0647H136.187V56.7565L137.081 56.2192V58.0647H137.985V58.7617H137.081V61.8494C137.081 62.105 137.097 62.2688 137.129 62.3427C137.161 62.4166 137.212 62.4745 137.284 62.5164C137.356 62.5584 137.458 62.5803 137.59 62.5803C137.691 62.5803 137.821 62.5684 137.985 62.5464Z" fill="#58595B"/>
<path d="M138.87 57.0833V56.0527H139.768V57.0833H138.87ZM138.87 63.3445V58.0619H139.768V63.3445H138.87Z" fill="#58595B"/>
<path d="M140.802 60.705C140.802 59.7263 141.074 59.0013 141.62 58.532C142.075 58.1406 142.632 57.9448 143.287 57.9448C144.017 57.9448 144.612 58.1825 145.075 58.6578C145.538 59.1332 145.769 59.7902 145.769 60.6291C145.769 61.3081 145.667 61.8434 145.462 62.2328C145.258 62.6223 144.959 62.9259 144.568 63.1396C144.177 63.3553 143.75 63.4631 143.287 63.4631C142.546 63.4631 141.944 63.2254 141.487 62.7521C141.03 62.2768 140.802 61.5957 140.802 60.703V60.705ZM141.726 60.705C141.726 61.382 141.874 61.8873 142.171 62.2248C142.467 62.5624 142.84 62.7301 143.289 62.7301C143.738 62.7301 144.107 62.5604 144.402 62.2228C144.698 61.8853 144.847 61.37 144.847 60.675C144.847 60.0219 144.698 59.5266 144.4 59.1911C144.101 58.8556 143.732 58.6858 143.289 58.6858C142.846 58.6858 142.467 58.8536 142.171 59.1891C141.874 59.5246 141.726 60.0299 141.726 60.707V60.705Z" fill="#58595B"/>
<path d="M146.821 63.3473V58.0647H147.631V58.8156C148.02 58.2344 148.583 57.9448 149.319 57.9448C149.638 57.9448 149.932 58.0027 150.201 58.1166C150.469 58.2304 150.67 58.3802 150.802 58.566C150.934 58.7517 151.029 58.9714 151.081 59.227C151.115 59.3928 151.131 59.6824 151.131 60.0978V63.3453H150.233V60.1318C150.233 59.7663 150.199 59.4947 150.129 59.3129C150.058 59.1332 149.934 58.9874 149.756 58.8795C149.577 58.7717 149.369 58.7177 149.13 58.7177C148.748 58.7177 148.417 58.8396 148.14 59.0812C147.862 59.3229 147.723 59.7823 147.723 60.4593V63.3433H146.825L146.821 63.3473Z" fill="#58595B"/>
<path d="M152.642 63.347V56.0552H157.934V56.916H153.61V59.1488H157.659V60.0036H153.61V62.4862H158.102V63.347H152.642Z" fill="#58595B"/>
<path d="M164.242 56.0547H165.21V60.2668C165.21 60.9998 165.126 61.581 164.959 62.0124C164.793 62.4438 164.492 62.7933 164.057 63.0649C163.622 63.3345 163.053 63.4703 162.348 63.4703C161.642 63.4703 161.101 63.3525 160.666 63.1168C160.231 62.8812 159.918 62.5416 159.732 62.0943C159.545 61.6489 159.453 61.0398 159.453 60.2668V56.0547H160.421V60.2628C160.421 60.896 160.479 61.3633 160.598 61.6629C160.716 61.9625 160.918 62.1941 161.207 62.3559C161.496 62.5177 161.846 62.5996 162.263 62.5996C162.975 62.5996 163.482 62.4378 163.787 62.1162C164.089 61.7947 164.242 61.1756 164.242 60.2608V56.0527V56.0547Z" fill="#58595B"/>
<path d="M248.606 33.5235H247.061V36.1325H245.552V28.8765H248.719C249.449 28.8765 250.031 29.0636 250.465 29.4377C250.9 29.8118 251.117 30.391 251.117 31.1754C251.117 32.0319 250.9 32.6374 250.465 32.9918C250.031 33.3463 249.411 33.5235 248.606 33.5235ZM249.316 32.0122C249.513 31.8383 249.612 31.5626 249.612 31.1852C249.612 30.8078 249.512 30.5387 249.311 30.3779C249.114 30.2171 248.836 30.1367 248.477 30.1367H247.061V32.2731H248.477C248.836 32.2731 249.115 32.1862 249.316 32.0122Z" fill="black" fill-opacity="0.8"/>
<path d="M252.476 28.8765H253.882V36.1325H252.476V28.8765Z" fill="black" fill-opacity="0.8"/>
<path d="M255.764 31.3477C256.135 30.8751 256.773 30.6388 257.678 30.6388C258.267 30.6388 258.789 30.7553 259.247 30.9883C259.704 31.2213 259.932 31.6611 259.932 32.3076V34.7689C259.932 34.9396 259.936 35.1463 259.942 35.3892C259.952 35.573 259.98 35.6977 260.026 35.7633C260.072 35.8289 260.141 35.8831 260.233 35.9258V36.1325H258.704C258.661 36.0242 258.632 35.9225 258.615 35.8273C258.599 35.7321 258.586 35.6238 258.576 35.5024C258.382 35.7124 258.158 35.8913 257.905 36.039C257.602 36.2129 257.26 36.2999 256.879 36.2999C256.392 36.2999 255.989 36.162 255.67 35.8864C255.354 35.6074 255.196 35.2136 255.196 34.7049C255.196 34.0453 255.451 33.5678 255.961 33.2724C256.24 33.1116 256.652 32.9968 257.194 32.9279L257.673 32.8688C257.933 32.836 258.119 32.7949 258.23 32.7457C258.431 32.6604 258.531 32.5275 258.531 32.347C258.531 32.1271 258.454 31.9761 258.299 31.8941C258.148 31.8088 257.924 31.7661 257.628 31.7661C257.296 31.7661 257.061 31.8481 256.923 32.0122C256.824 32.1337 256.758 32.2978 256.726 32.5045H255.369C255.398 32.0352 255.53 31.6496 255.764 31.3477ZM256.809 35.1184C256.941 35.2267 257.102 35.2809 257.293 35.2809C257.596 35.2809 257.873 35.1923 258.127 35.0151C258.383 34.8379 258.516 34.5146 258.526 34.0453V33.5235C258.438 33.5793 258.347 33.6252 258.255 33.6613C258.166 33.6941 258.043 33.7253 257.885 33.7549L257.569 33.8139C257.273 33.8664 257.061 33.9304 256.933 34.0059C256.716 34.1339 256.607 34.3325 256.607 34.6016C256.607 34.8411 256.675 35.0134 256.809 35.1184Z" fill="black" fill-opacity="0.8"/>
<path d="M264.02 31.8055C263.543 31.8055 263.215 32.0073 263.038 32.411C262.946 32.6243 262.9 32.8967 262.9 33.2281V36.1325H261.499V30.7766H262.855V31.5594C263.036 31.2837 263.207 31.0851 263.368 30.9637C263.658 30.7471 264.025 30.6388 264.469 30.6388C265.024 30.6388 265.478 30.7849 265.83 31.0769C266.185 31.3657 266.363 31.8465 266.363 32.5193V36.1325H264.922V32.8688C264.922 32.5865 264.885 32.37 264.809 32.219C264.671 31.9433 264.408 31.8055 264.02 31.8055Z" fill="black" fill-opacity="0.8"/>
<path d="M275.978 28.8863V36.1325H274.611V35.3892C274.411 35.7075 274.182 35.9389 273.926 36.0833C273.669 36.2277 273.35 36.2999 272.968 36.2999C272.34 36.2999 271.811 36.0472 271.38 35.5418C270.952 35.0331 270.739 34.3817 270.739 33.5875C270.739 32.6719 270.949 31.9515 271.37 31.4264C271.794 30.9014 272.36 30.6388 273.067 30.6388C273.393 30.6388 273.682 30.711 273.935 30.8554C274.189 30.9965 274.394 31.1934 274.552 31.4461V28.8863H275.978ZM272.189 33.4841C272.189 33.9797 272.288 34.3751 272.485 34.6705C272.679 34.9691 272.975 35.1184 273.373 35.1184C273.771 35.1184 274.074 34.9708 274.281 34.6754C274.488 34.38 274.592 33.9977 274.592 33.5284C274.592 32.8721 274.426 32.4028 274.093 32.1205C273.889 31.9499 273.653 31.8646 273.383 31.8646C272.972 31.8646 272.669 32.0204 272.475 32.3322C272.284 32.6407 272.189 33.0247 272.189 33.4841Z" fill="black" fill-opacity="0.8"/>
<path d="M282.167 34.5573C282.131 34.8756 281.965 35.1988 281.669 35.527C281.208 36.0488 280.563 36.3097 279.735 36.3097C279.05 36.3097 278.447 36.0899 277.924 35.6501C277.401 35.2103 277.14 34.4949 277.14 33.5038C277.14 32.5751 277.375 31.8629 277.845 31.3674C278.319 30.8718 278.932 30.624 279.685 30.624C280.133 30.624 280.535 30.7077 280.894 30.8751C281.252 31.0425 281.549 31.3067 281.782 31.6676C281.993 31.986 282.129 32.3552 282.192 32.7753C282.228 33.0214 282.243 33.3758 282.236 33.8385H278.555C278.575 34.3768 278.745 34.7542 279.064 34.9708C279.258 35.1053 279.491 35.1726 279.764 35.1726C280.054 35.1726 280.289 35.0905 280.47 34.9265C280.568 34.8379 280.656 34.7148 280.731 34.5573H282.167ZM280.776 32.9131C280.753 32.5422 280.639 32.2617 280.435 32.0713C280.235 31.8777 279.985 31.7809 279.685 31.7809C279.36 31.7809 279.106 31.8826 278.925 32.0861C278.748 32.2895 278.636 32.5652 278.59 32.9131H280.776Z" fill="black" fill-opacity="0.8"/>
<path d="M289.808 33.2872H288.239V36.1325H286.754V28.8765H290.321C290.831 28.8863 291.223 28.9487 291.496 29.0636C291.772 29.1784 292.005 29.3474 292.196 29.5706C292.354 29.7544 292.479 29.9578 292.571 30.181C292.663 30.4042 292.709 30.6585 292.709 30.944C292.709 31.2886 292.622 31.6283 292.448 31.963C292.274 32.2945 291.986 32.5291 291.584 32.667C291.92 32.8015 292.157 32.9935 292.295 33.2429C292.436 33.489 292.507 33.8664 292.507 34.3751V34.8625C292.507 35.1939 292.52 35.4187 292.546 35.5369C292.586 35.7239 292.678 35.8618 292.823 35.9504V36.1325H291.15C291.104 35.9717 291.071 35.8421 291.052 35.7436C291.012 35.5402 290.991 35.3318 290.987 35.1184L290.978 34.444C290.971 33.9813 290.886 33.6728 290.721 33.5186C290.56 33.3643 290.256 33.2872 289.808 33.2872ZM290.731 31.9679C291.034 31.8301 291.185 31.5577 291.185 31.1508C291.185 30.711 291.038 30.4157 290.746 30.2647C290.581 30.1794 290.335 30.1367 290.006 30.1367H288.239V32.0861H289.961C290.303 32.0861 290.56 32.0467 290.731 31.9679Z" fill="black" fill-opacity="0.8"/>
<path d="M298.814 34.5573C298.778 34.8756 298.612 35.1988 298.316 35.527C297.856 36.0488 297.211 36.3097 296.382 36.3097C295.698 36.3097 295.094 36.0899 294.571 35.6501C294.048 35.2103 293.787 34.4949 293.787 33.5038C293.787 32.5751 294.022 31.8629 294.492 31.3674C294.966 30.8718 295.58 30.624 296.333 30.624C296.78 30.624 297.183 30.7077 297.541 30.8751C297.9 31.0425 298.196 31.3067 298.429 31.6676C298.64 31.986 298.776 32.3552 298.839 32.7753C298.875 33.0214 298.89 33.3758 298.883 33.8385H295.203C295.223 34.3768 295.392 34.7542 295.711 34.9708C295.905 35.1053 296.139 35.1726 296.412 35.1726C296.701 35.1726 296.936 35.0905 297.117 34.9265C297.216 34.8379 297.303 34.7148 297.379 34.5573H298.814ZM297.423 32.9131C297.4 32.5422 297.287 32.2617 297.083 32.0713C296.882 31.8777 296.632 31.7809 296.333 31.7809C296.007 31.7809 295.754 31.8826 295.573 32.0861C295.395 32.2895 295.284 32.5652 295.237 32.9131H297.423Z" fill="black" fill-opacity="0.8"/>
<path d="M304.791 32.6916H303.35C303.324 32.4914 303.257 32.3109 303.148 32.1501C302.99 31.9335 302.745 31.8252 302.413 31.8252C301.939 31.8252 301.615 32.0598 301.441 32.5291C301.349 32.7785 301.303 33.11 301.303 33.5235C301.303 33.9173 301.349 34.234 301.441 34.4736C301.609 34.9199 301.925 35.1431 302.388 35.1431C302.717 35.1431 302.951 35.0544 303.089 34.8772C303.227 34.7 303.311 34.4703 303.341 34.1881H304.776C304.743 34.6147 304.589 35.0183 304.312 35.399C303.872 36.0127 303.219 36.3196 302.354 36.3196C301.489 36.3196 300.852 36.0636 300.445 35.5516C300.037 35.0397 299.833 34.3751 299.833 33.558C299.833 32.6358 300.058 31.9187 300.509 31.4067C300.959 30.8948 301.581 30.6388 302.374 30.6388C303.048 30.6388 303.599 30.7898 304.026 31.0917C304.457 31.3936 304.712 31.9269 304.791 32.6916Z" fill="black" fill-opacity="0.8"/>
<path d="M309.515 35.3744C309.501 35.3908 309.469 35.4401 309.416 35.5221C309.363 35.6041 309.301 35.6763 309.228 35.7387C309.008 35.9356 308.794 36.0702 308.587 36.1424C308.383 36.2146 308.143 36.2507 307.867 36.2507C307.071 36.2507 306.535 35.9651 306.258 35.3941C306.104 35.0791 306.027 34.6147 306.027 34.001V30.7668H307.467V34.001C307.467 34.3062 307.503 34.5359 307.576 34.6902C307.704 34.9626 307.956 35.0988 308.331 35.0988C308.811 35.0988 309.14 34.9051 309.317 34.5179C309.409 34.3078 309.455 34.0305 309.455 33.6859V30.7668H310.881V36.1325H309.515V35.3744Z" fill="black" fill-opacity="0.8"/>
<path d="M317.05 31.3428C317.485 31.8055 317.702 32.4848 317.702 33.3807C317.702 34.3259 317.488 35.0462 317.06 35.5418C316.636 36.0373 316.088 36.2851 315.417 36.2851C314.99 36.2851 314.635 36.1785 314.352 35.9651C314.197 35.847 314.046 35.6747 313.898 35.4483V38.2443H312.507V30.7668H313.853V31.5594C314.005 31.3263 314.166 31.1426 314.337 31.008C314.649 30.7684 315.021 30.6487 315.452 30.6487C316.08 30.6487 316.613 30.88 317.05 31.3428ZM316.251 33.4497C316.251 33.0362 316.156 32.6702 315.965 32.3519C315.778 32.0336 315.472 31.8744 315.047 31.8744C314.538 31.8744 314.187 32.1156 313.996 32.598C313.898 32.854 313.848 33.1789 313.848 33.5727C313.848 34.1963 314.015 34.6344 314.347 34.8871C314.544 35.0348 314.778 35.1086 315.047 35.1086C315.439 35.1086 315.736 34.9576 315.94 34.6557C316.148 34.3538 316.251 33.9518 316.251 33.4497Z" fill="black" fill-opacity="0.8"/>
<path d="M323.629 34.5573C323.593 34.8756 323.427 35.1988 323.131 35.527C322.67 36.0488 322.026 36.3097 321.197 36.3097C320.513 36.3097 319.909 36.0899 319.386 35.6501C318.863 35.2103 318.602 34.4949 318.602 33.5038C318.602 32.5751 318.837 31.8629 319.307 31.3674C319.781 30.8718 320.394 30.624 321.147 30.624C321.595 30.624 321.998 30.7077 322.356 30.8751C322.715 31.0425 323.011 31.3067 323.244 31.6676C323.455 31.986 323.591 32.3552 323.654 32.7753C323.69 33.0214 323.705 33.3758 323.698 33.8385H320.018C320.037 34.3768 320.207 34.7542 320.526 34.9708C320.72 35.1053 320.953 35.1726 321.226 35.1726C321.516 35.1726 321.751 35.0905 321.932 34.9265C322.031 34.8379 322.118 34.7148 322.193 34.5573H323.629ZM322.238 32.9131C322.215 32.5422 322.101 32.2617 321.897 32.0713C321.697 31.8777 321.447 31.7809 321.147 31.7809C320.822 31.7809 320.569 31.8826 320.388 32.0861C320.21 32.2895 320.098 32.5652 320.052 32.9131H322.238Z" fill="black" fill-opacity="0.8"/>
<path d="M327.657 32.0615C327.091 32.0615 326.711 32.2452 326.517 32.6128C326.409 32.8196 326.354 33.1379 326.354 33.5678V36.1325H324.939V30.7668H326.281V31.7021C326.498 31.3444 326.687 31.0999 326.848 30.9686C327.111 30.7488 327.453 30.6388 327.874 30.6388C327.9 30.6388 327.922 30.6405 327.938 30.6437C327.958 30.6437 327.999 30.6454 328.062 30.6487V32.0861C327.973 32.0762 327.894 32.0697 327.825 32.0664C327.756 32.0631 327.7 32.0615 327.657 32.0615Z" fill="black" fill-opacity="0.8"/>
<path d="M329.396 31.3477C329.767 30.8751 330.405 30.6388 331.31 30.6388C331.899 30.6388 332.422 30.7553 332.879 30.9883C333.336 31.2213 333.565 31.6611 333.565 32.3076V34.7689C333.565 34.9396 333.568 35.1463 333.574 35.3892C333.584 35.573 333.612 35.6977 333.658 35.7633C333.704 35.8289 333.773 35.8831 333.866 35.9258V36.1325H332.336C332.293 36.0242 332.264 35.9225 332.247 35.8273C332.231 35.7321 332.218 35.6238 332.208 35.5024C332.014 35.7124 331.79 35.8913 331.537 36.039C331.234 36.2129 330.892 36.2999 330.511 36.2999C330.024 36.2999 329.621 36.162 329.302 35.8864C328.986 35.6074 328.828 35.2136 328.828 34.7049C328.828 34.0453 329.083 33.5678 329.593 33.2724C329.873 33.1116 330.284 32.9968 330.826 32.9279L331.305 32.8688C331.565 32.836 331.751 32.7949 331.863 32.7457C332.063 32.6604 332.163 32.5275 332.163 32.347C332.163 32.1271 332.086 31.9761 331.932 31.8941C331.78 31.8088 331.557 31.7661 331.261 31.7661C330.928 31.7661 330.693 31.8481 330.555 32.0122C330.456 32.1337 330.391 32.2978 330.358 32.5045H329.001C329.031 32.0352 329.162 31.6496 329.396 31.3477ZM330.442 35.1184C330.573 35.2267 330.734 35.2809 330.925 35.2809C331.228 35.2809 331.506 35.1923 331.759 35.0151C332.015 34.8379 332.149 34.5146 332.159 34.0453V33.5235C332.07 33.5793 331.979 33.6252 331.887 33.6613C331.798 33.6941 331.675 33.7253 331.517 33.7549L331.201 33.8139C330.905 33.8664 330.693 33.9304 330.565 34.0059C330.348 34.1339 330.239 34.3325 330.239 34.6016C330.239 34.8411 330.307 35.0134 330.442 35.1184Z" fill="black" fill-opacity="0.8"/>
<path d="M339.773 32.6916H338.333C338.306 32.4914 338.239 32.3109 338.13 32.1501C337.972 31.9335 337.727 31.8252 337.395 31.8252C336.922 31.8252 336.598 32.0598 336.423 32.5291C336.331 32.7785 336.285 33.11 336.285 33.5235C336.285 33.9173 336.331 34.234 336.423 34.4736C336.591 34.9199 336.907 35.1431 337.371 35.1431C337.699 35.1431 337.933 35.0544 338.071 34.8772C338.209 34.7 338.293 34.4703 338.323 34.1881H339.758C339.726 34.6147 339.571 35.0183 339.295 35.399C338.854 36.0127 338.201 36.3196 337.336 36.3196C336.471 36.3196 335.835 36.0636 335.427 35.5516C335.019 35.0397 334.815 34.3751 334.815 33.558C334.815 32.6358 335.04 31.9187 335.491 31.4067C335.941 30.8948 336.563 30.6388 337.356 30.6388C338.03 30.6388 338.581 30.7898 339.009 31.0917C339.439 31.3936 339.694 31.9269 339.773 32.6916Z" fill="black" fill-opacity="0.8"/>
<path d="M342.494 30.7668V36.1325H341.068V30.7668H342.494ZM342.494 28.8322V30.1269H341.068V28.8322H342.494Z" fill="black" fill-opacity="0.8"/>
<path d="M348.648 31.4461C349.102 32.0139 349.329 32.685 349.329 33.4595C349.329 34.2471 349.102 34.9215 348.648 35.4827C348.194 36.0406 347.505 36.3196 346.581 36.3196C345.657 36.3196 344.968 36.0406 344.514 35.4827C344.06 34.9215 343.833 34.2471 343.833 33.4595C343.833 32.685 344.06 32.0139 344.514 31.4461C344.968 30.8784 345.657 30.5945 346.581 30.5945C347.505 30.5945 348.194 30.8784 348.648 31.4461ZM346.576 31.7809C346.165 31.7809 345.848 31.9269 345.624 32.219C345.403 32.5078 345.293 32.9213 345.293 33.4595C345.293 33.9977 345.403 34.4129 345.624 34.7049C345.848 34.997 346.165 35.1431 346.576 35.1431C346.987 35.1431 347.303 34.997 347.523 34.7049C347.744 34.4129 347.854 33.9977 347.854 33.4595C347.854 32.9213 347.744 32.5078 347.523 32.219C347.303 31.9269 346.987 31.7809 346.576 31.7809ZM345.747 30.0432L346.694 28.5713H348.263L346.764 30.0432H345.747Z" fill="black" fill-opacity="0.8"/>
<path d="M353.174 31.8055C352.697 31.8055 352.37 32.0073 352.193 32.411C352.101 32.6243 352.054 32.8967 352.054 33.2281V36.1325H350.653V30.7766H352.01V31.5594C352.191 31.2837 352.362 31.0851 352.523 30.9637C352.813 30.7471 353.179 30.6388 353.623 30.6388C354.179 30.6388 354.633 30.7849 354.985 31.0769C355.34 31.3657 355.518 31.8465 355.518 32.5193V36.1325H354.077V32.8688C354.077 32.5865 354.039 32.37 353.964 32.219C353.826 31.9433 353.563 31.8055 353.174 31.8055Z" fill="black" fill-opacity="0.8"/>
<path d="M358.48 36.6346C358.421 36.8775 358.311 37.0875 358.15 37.2647C357.975 37.4551 357.77 37.5978 357.533 37.693C357.299 37.7915 357.138 37.8407 357.049 37.8407V37.2992C357.332 37.2204 357.539 37.0892 357.671 36.9054C357.806 36.7216 357.883 36.464 357.903 36.1325H357.049V34.6656H358.569V35.9356C358.569 36.1588 358.539 36.3918 358.48 36.6346Z" fill="black" fill-opacity="0.8"/>
<path d="M250.801 39.7336V41.0185H248.625V46.9897H247.096V41.0185H244.91V39.7336H250.801Z" fill="black" fill-opacity="0.8"/>
<path d="M254.035 42.9186C253.469 42.9186 253.089 43.1024 252.895 43.4699C252.786 43.6767 252.732 43.995 252.732 44.4249V46.9897H251.316V41.6239H252.658V42.5593C252.875 42.2015 253.064 41.957 253.226 41.8258C253.489 41.6059 253.831 41.496 254.252 41.496C254.278 41.496 254.299 41.4976 254.316 41.5009C254.336 41.5009 254.377 41.5025 254.439 41.5058V42.9432C254.35 42.9334 254.271 42.9268 254.202 42.9235C254.133 42.9202 254.077 42.9186 254.035 42.9186Z" fill="black" fill-opacity="0.8"/>
<path d="M255.773 42.2048C256.145 41.7322 256.783 41.496 257.688 41.496C258.276 41.496 258.799 41.6125 259.257 41.8455C259.714 42.0785 259.942 42.5182 259.942 43.1647V45.6261C259.942 45.7967 259.946 46.0035 259.952 46.2463C259.962 46.4301 259.99 46.5548 260.036 46.6205C260.082 46.6861 260.151 46.7402 260.243 46.7829V46.9897H258.714C258.671 46.8814 258.641 46.7796 258.625 46.6845C258.609 46.5893 258.595 46.481 258.586 46.3596C258.391 46.5696 258.168 46.7484 257.915 46.8961C257.612 47.0701 257.27 47.157 256.888 47.157C256.402 47.157 255.999 47.0192 255.68 46.7435C255.364 46.4646 255.206 46.0708 255.206 45.5621C255.206 44.9024 255.461 44.4249 255.971 44.1296C256.25 43.9688 256.661 43.8539 257.204 43.785L257.683 43.7259C257.943 43.6931 258.128 43.6521 258.24 43.6029C258.441 43.5175 258.541 43.3846 258.541 43.2041C258.541 42.9842 258.464 42.8333 258.309 42.7512C258.158 42.6659 257.934 42.6232 257.638 42.6232C257.306 42.6232 257.071 42.7053 256.933 42.8694C256.834 42.9908 256.768 43.1549 256.735 43.3616H255.379C255.408 42.8924 255.54 42.5067 255.773 42.2048ZM256.819 45.9756C256.951 46.0839 257.112 46.138 257.303 46.138C257.605 46.138 257.883 46.0494 258.137 45.8722C258.393 45.695 258.526 45.3717 258.536 44.9024V44.3806C258.447 44.4364 258.357 44.4824 258.265 44.5185C258.176 44.5513 258.053 44.5825 257.895 44.612L257.579 44.6711C257.283 44.7236 257.071 44.7876 256.943 44.8631C256.726 44.9911 256.617 45.1896 256.617 45.4587C256.617 45.6983 256.684 45.8706 256.819 45.9756Z" fill="black" fill-opacity="0.8"/>
<path d="M264.029 42.6626C263.553 42.6626 263.225 42.8645 263.048 43.2681C262.956 43.4814 262.91 43.7538 262.91 44.0853V46.9897H261.508V41.6338H262.865V42.4165C263.046 42.1408 263.217 41.9423 263.378 41.8209C263.668 41.6043 264.034 41.496 264.478 41.496C265.034 41.496 265.488 41.642 265.84 41.9341C266.195 42.2229 266.373 42.7036 266.373 43.3764V46.9897H264.932V43.7259C264.932 43.4437 264.894 43.2271 264.819 43.0761C264.681 42.8005 264.418 42.6626 264.029 42.6626Z" fill="black" fill-opacity="0.8"/>
<path d="M271.684 41.8701C272.105 42.1392 272.346 42.6019 272.409 43.2583H271.003C270.983 43.0778 270.932 42.935 270.85 42.83C270.695 42.6397 270.432 42.5445 270.06 42.5445C269.755 42.5445 269.536 42.5921 269.404 42.6872C269.276 42.7824 269.212 42.894 269.212 43.022C269.212 43.1828 269.281 43.2993 269.419 43.3715C269.557 43.447 270.046 43.5766 270.884 43.7604C271.443 43.8917 271.863 44.0902 272.142 44.356C272.419 44.6251 272.557 44.9615 272.557 45.3652C272.557 45.8968 272.358 46.3317 271.96 46.6697C271.565 47.0044 270.953 47.1718 270.125 47.1718C269.279 47.1718 268.654 46.9946 268.25 46.6401C267.849 46.2824 267.648 45.8279 267.648 45.2766H269.074C269.103 45.526 269.167 45.7032 269.266 45.8082C269.44 45.9953 269.763 46.0888 270.233 46.0888C270.509 46.0888 270.728 46.0478 270.889 45.9657C271.054 45.8837 271.136 45.7606 271.136 45.5965C271.136 45.439 271.07 45.3192 270.939 45.2372C270.807 45.1551 270.319 45.014 269.473 44.8138C268.865 44.6629 268.436 44.4742 268.186 44.2477C267.936 44.0246 267.811 43.703 267.811 43.2829C267.811 42.7873 268.005 42.3623 268.393 42.0079C268.784 41.6502 269.334 41.4713 270.041 41.4713C270.712 41.4713 271.259 41.6043 271.684 41.8701Z" fill="black" fill-opacity="0.8"/>
<path d="M276.427 39.6893V40.8314C276.348 40.8215 276.215 40.815 276.027 40.8117C275.843 40.8051 275.715 40.8462 275.642 40.9348C275.573 41.0201 275.539 41.1153 275.539 41.2203V41.6732H276.461V42.6626H275.539V46.9897H274.138V42.6626H273.353V41.6732H274.123V41.3286C274.123 40.7543 274.22 40.3588 274.414 40.1422C274.618 39.8206 275.11 39.6598 275.889 39.6598C275.978 39.6598 276.059 39.6631 276.131 39.6696C276.203 39.6729 276.302 39.6795 276.427 39.6893Z" fill="black" fill-opacity="0.8"/>
<path d="M282.058 42.3033C282.512 42.871 282.739 43.5421 282.739 44.3166C282.739 45.1043 282.512 45.7787 282.058 46.3399C281.604 46.8978 280.915 47.1767 279.991 47.1767C279.067 47.1767 278.378 46.8978 277.924 46.3399C277.47 45.7787 277.243 45.1043 277.243 44.3166C277.243 43.5421 277.47 42.871 277.924 42.3033C278.378 41.7355 279.067 41.4516 279.991 41.4516C280.915 41.4516 281.604 41.7355 282.058 42.3033ZM279.986 42.638C279.575 42.638 279.258 42.7841 279.034 43.0761C278.814 43.3649 278.703 43.7784 278.703 44.3166C278.703 44.8549 278.814 45.27 279.034 45.5621C279.258 45.8542 279.575 46.0002 279.986 46.0002C280.397 46.0002 280.713 45.8542 280.933 45.5621C281.154 45.27 281.264 44.8549 281.264 44.3166C281.264 43.7784 281.154 43.3649 280.933 43.0761C280.713 42.7841 280.397 42.638 279.986 42.638Z" fill="black" fill-opacity="0.8"/>
<path d="M286.757 42.9186C286.192 42.9186 285.812 43.1024 285.618 43.4699C285.509 43.6767 285.455 43.995 285.455 44.4249V46.9897H284.039V41.6239H285.381V42.5593C285.598 42.2015 285.787 41.957 285.948 41.8258C286.211 41.6059 286.553 41.496 286.974 41.496C287.001 41.496 287.022 41.4976 287.038 41.5009C287.058 41.5009 287.099 41.5025 287.162 41.5058V42.9432C287.073 42.9334 286.994 42.9268 286.925 42.9235C286.856 42.9202 286.8 42.9186 286.757 42.9186Z" fill="black" fill-opacity="0.8"/>
<path d="M291.313 43.1007C291.195 42.8415 290.963 42.7119 290.617 42.7119C290.216 42.7119 289.947 42.8415 289.808 43.1007C289.733 43.2484 289.695 43.4683 289.695 43.7604V46.9897H288.269V41.6338H289.636V42.4165C289.81 42.1375 289.974 41.939 290.129 41.8209C290.402 41.6108 290.756 41.5058 291.19 41.5058C291.601 41.5058 291.933 41.596 292.186 41.7765C292.39 41.9439 292.545 42.1589 292.65 42.4214C292.834 42.1064 293.063 41.875 293.336 41.7273C293.625 41.5796 293.948 41.5058 294.303 41.5058C294.54 41.5058 294.773 41.5517 295.003 41.6436C295.234 41.7355 295.443 41.8963 295.63 42.1261C295.781 42.3131 295.883 42.5428 295.936 42.8152C295.969 42.9957 295.985 43.2599 295.985 43.6078L295.975 46.9897H294.535V43.5733C294.535 43.3699 294.502 43.2025 294.436 43.0712C294.311 42.8218 294.081 42.6971 293.745 42.6971C293.357 42.6971 293.089 42.8579 292.941 43.1795C292.866 43.3502 292.828 43.5553 292.828 43.7948V46.9897H291.412V43.7948C291.412 43.4765 291.379 43.2451 291.313 43.1007Z" fill="black" fill-opacity="0.8"/>
<path d="M297.788 42.2048C298.16 41.7322 298.798 41.496 299.702 41.496C300.291 41.496 300.814 41.6125 301.271 41.8455C301.728 42.0785 301.957 42.5182 301.957 43.1647V45.6261C301.957 45.7967 301.96 46.0035 301.967 46.2463C301.977 46.4301 302.005 46.5548 302.051 46.6205C302.097 46.6861 302.166 46.7402 302.258 46.7829V46.9897H300.729C300.686 46.8814 300.656 46.7796 300.64 46.6845C300.623 46.5893 300.61 46.481 300.6 46.3596C300.406 46.5696 300.183 46.7484 299.929 46.8961C299.627 47.0701 299.285 47.157 298.903 47.157C298.416 47.157 298.013 47.0192 297.694 46.7435C297.379 46.4646 297.221 46.0708 297.221 45.5621C297.221 44.9024 297.476 44.4249 297.985 44.1296C298.265 43.9688 298.676 43.8539 299.219 43.785L299.697 43.7259C299.957 43.6931 300.143 43.6521 300.255 43.6029C300.456 43.5175 300.556 43.3846 300.556 43.2041C300.556 42.9842 300.479 42.8333 300.324 42.7512C300.173 42.6659 299.949 42.6232 299.653 42.6232C299.321 42.6232 299.086 42.7053 298.948 42.8694C298.849 42.9908 298.783 43.1549 298.75 43.3616H297.393C297.423 42.8924 297.555 42.5067 297.788 42.2048ZM298.834 45.9756C298.966 46.0839 299.127 46.138 299.318 46.138C299.62 46.138 299.898 46.0494 300.151 45.8722C300.408 45.695 300.541 45.3717 300.551 44.9024V44.3806C300.462 44.4364 300.372 44.4824 300.28 44.5185C300.191 44.5513 300.067 44.5825 299.91 44.612L299.594 44.6711C299.298 44.7236 299.086 44.7876 298.957 44.8631C298.74 44.9911 298.632 45.1896 298.632 45.4587C298.632 45.6983 298.699 45.8706 298.834 45.9756Z" fill="black" fill-opacity="0.8"/>
<path d="M308.166 43.5487H306.725C306.699 43.3485 306.631 43.168 306.523 43.0072C306.365 42.7906 306.12 42.6823 305.788 42.6823C305.314 42.6823 304.99 42.917 304.816 43.3863C304.724 43.6357 304.678 43.9671 304.678 44.3806C304.678 44.7745 304.724 45.0911 304.816 45.3307C304.983 45.777 305.299 46.0002 305.763 46.0002C306.092 46.0002 306.325 45.9116 306.464 45.7344C306.602 45.5572 306.686 45.3274 306.715 45.0452H308.151C308.118 45.4718 307.963 45.8755 307.687 46.2562C307.246 46.8699 306.593 47.1767 305.728 47.1767C304.863 47.1767 304.227 46.9207 303.819 46.4088C303.411 45.8968 303.207 45.2323 303.207 44.4151C303.207 43.4929 303.433 42.7758 303.883 42.2639C304.334 41.7519 304.955 41.496 305.748 41.496C306.422 41.496 306.973 41.6469 307.401 41.9488C307.832 42.2508 308.087 42.7841 308.166 43.5487Z" fill="black" fill-opacity="0.8"/>
<path d="M310.886 41.6239V46.9897H309.46V41.6239H310.886ZM310.886 39.6893V40.984H309.46V39.6893H310.886Z" fill="black" fill-opacity="0.8"/>
<path d="M317.041 42.3033C317.494 42.871 317.721 43.5421 317.721 44.3166C317.721 45.1043 317.494 45.7787 317.041 46.3399C316.587 46.8978 315.898 47.1767 314.973 47.1767C314.049 47.1767 313.36 46.8978 312.906 46.3399C312.452 45.7787 312.225 45.1043 312.225 44.3166C312.225 43.5421 312.452 42.871 312.906 42.3033C313.36 41.7355 314.049 41.4516 314.973 41.4516C315.898 41.4516 316.587 41.7355 317.041 42.3033ZM314.968 42.638C314.557 42.638 314.24 42.7841 314.016 43.0761C313.796 43.3649 313.686 43.7784 313.686 44.3166C313.686 44.8549 313.796 45.27 314.016 45.5621C314.24 45.8542 314.557 46.0002 314.968 46.0002C315.38 46.0002 315.695 45.8542 315.916 45.5621C316.136 45.27 316.246 44.8549 316.246 44.3166C316.246 43.7784 316.136 43.3649 315.916 43.0761C315.695 42.7841 315.38 42.638 314.968 42.638ZM314.14 40.9003L315.087 39.4284H316.656L315.156 40.9003H314.14Z" fill="black" fill-opacity="0.8"/>
<path d="M321.567 42.6626C321.09 42.6626 320.763 42.8645 320.585 43.2681C320.493 43.4814 320.447 43.7538 320.447 44.0853V46.9897H319.046V41.6338H320.402V42.4165C320.583 42.1408 320.754 41.9423 320.916 41.8209C321.205 41.6043 321.572 41.496 322.016 41.496C322.572 41.496 323.025 41.642 323.377 41.9341C323.733 42.2229 323.91 42.7036 323.91 43.3764V46.9897H322.47V43.7259C322.47 43.4437 322.432 43.2271 322.356 43.0761C322.218 42.8005 321.955 42.6626 321.567 42.6626Z" fill="black" fill-opacity="0.8"/>
<path d="M247.589 56.4389L248.699 52.4811H250.194L248.349 57.7582C247.994 58.7755 247.713 59.4056 247.505 59.6485C247.298 59.8946 246.884 60.0177 246.262 60.0177C246.137 60.0177 246.037 60.0161 245.961 60.0128C245.885 60.0128 245.772 60.0079 245.621 59.998V58.8756L245.798 58.8855C245.936 58.892 246.068 58.8871 246.193 58.8707C246.318 58.8543 246.423 58.8166 246.509 58.7575C246.591 58.7017 246.667 58.5852 246.736 58.408C246.808 58.2308 246.838 58.1225 246.825 58.0831L244.851 52.4811H246.415L247.589 56.4389Z" fill="black" fill-opacity="0.8"/>
<path d="M257.648 55.0015H256.079V57.8468H254.594V50.5908H258.161C258.671 50.6006 259.062 50.663 259.335 50.7778C259.612 50.8927 259.845 51.0617 260.036 51.2849C260.194 51.4687 260.319 51.6721 260.411 51.8953C260.503 52.1185 260.549 52.3728 260.549 52.6583C260.549 53.0029 260.462 53.3426 260.288 53.6773C260.113 54.0088 259.826 54.2434 259.424 54.3812C259.76 54.5158 259.997 54.7078 260.135 54.9572C260.276 55.2033 260.347 55.5807 260.347 56.0894V56.5767C260.347 56.9082 260.36 57.133 260.386 57.2512C260.426 57.4382 260.518 57.5761 260.663 57.6647V57.8468H258.99C258.944 57.686 258.911 57.5564 258.891 57.4579C258.852 57.2544 258.831 57.046 258.827 56.8327L258.817 56.1583C258.811 55.6956 258.725 55.3871 258.561 55.2329C258.4 55.0786 258.095 55.0015 257.648 55.0015ZM258.571 53.6822C258.873 53.5444 259.025 53.272 259.025 52.8651C259.025 52.4253 258.878 52.1299 258.586 51.979C258.421 51.8936 258.174 51.851 257.846 51.851H256.079V53.8004H257.801C258.143 53.8004 258.4 53.761 258.571 53.6822Z" fill="black" fill-opacity="0.8"/>
<path d="M266.654 56.2715C266.618 56.5899 266.452 56.9131 266.156 57.2413C265.695 57.7631 265.051 58.024 264.222 58.024C263.538 58.024 262.934 57.8041 262.411 57.3644C261.888 56.9246 261.627 56.2092 261.627 55.2181C261.627 54.2893 261.862 53.5772 262.332 53.0817C262.806 52.5861 263.419 52.3383 264.173 52.3383C264.62 52.3383 265.023 52.422 265.381 52.5894C265.74 52.7568 266.036 53.0209 266.269 53.3819C266.48 53.7003 266.616 54.0695 266.679 54.4895C266.715 54.7357 266.73 55.0901 266.723 55.5528H263.043C263.062 56.091 263.232 56.4685 263.551 56.685C263.745 56.8196 263.978 56.8869 264.251 56.8869C264.541 56.8869 264.776 56.8048 264.957 56.6407C265.056 56.5521 265.143 56.4291 265.218 56.2715H266.654ZM265.263 54.6274C265.24 54.2565 265.126 53.9759 264.922 53.7856C264.722 53.592 264.472 53.4952 264.173 53.4952C263.847 53.4952 263.594 53.5969 263.413 53.8004C263.235 54.0038 263.123 54.2795 263.077 54.6274H265.263Z" fill="black" fill-opacity="0.8"/>
<path d="M271.684 52.7272C272.105 52.9963 272.346 53.4591 272.409 54.1154H271.003C270.983 53.9349 270.932 53.7922 270.85 53.6871C270.695 53.4968 270.432 53.4016 270.06 53.4016C269.755 53.4016 269.536 53.4492 269.404 53.5444C269.276 53.6396 269.212 53.7511 269.212 53.8791C269.212 54.0399 269.281 54.1564 269.419 54.2286C269.557 54.3041 270.046 54.4337 270.884 54.6175C271.443 54.7488 271.863 54.9473 272.142 55.2132C272.419 55.4823 272.557 55.8187 272.557 56.2223C272.557 56.754 272.358 57.1888 271.96 57.5268C271.565 57.8616 270.953 58.0289 270.125 58.0289C269.279 58.0289 268.654 57.8517 268.25 57.4973C267.849 57.1396 267.648 56.685 267.648 56.1337H269.074C269.103 56.3831 269.167 56.5603 269.266 56.6654C269.44 56.8524 269.763 56.9459 270.233 56.9459C270.509 56.9459 270.728 56.9049 270.889 56.8229C271.054 56.7408 271.136 56.6178 271.136 56.4537C271.136 56.2962 271.07 56.1764 270.939 56.0943C270.807 56.0123 270.319 55.8712 269.473 55.671C268.865 55.52 268.436 55.3313 268.186 55.1049C267.936 54.8817 267.811 54.5601 267.811 54.14C267.811 53.6445 268.005 53.2195 268.393 52.8651C268.784 52.5073 269.334 52.3285 270.041 52.3285C270.712 52.3285 271.259 52.4614 271.684 52.7272Z" fill="black" fill-opacity="0.8"/>
<path d="M275.351 52.4811V57.8468H273.926V52.4811H275.351ZM275.351 50.5465V51.8411H273.926V50.5465H275.351Z" fill="black" fill-opacity="0.8"/>
<path d="M277.051 50.5908H278.457V57.8468H277.051V50.5908Z" fill="black" fill-opacity="0.8"/>
<path d="M281.582 52.4811V57.8468H280.156V52.4811H281.582ZM281.582 50.5465V51.8411H280.156V50.5465H281.582Z" fill="black" fill-opacity="0.8"/>
<path d="M287.855 56.2715C287.818 56.5899 287.652 56.9131 287.356 57.2413C286.896 57.7631 286.251 58.024 285.422 58.024C284.738 58.024 284.135 57.8041 283.612 57.3644C283.089 56.9246 282.827 56.2092 282.827 55.2181C282.827 54.2893 283.063 53.5772 283.533 53.0817C284.006 52.5861 284.62 52.3383 285.373 52.3383C285.82 52.3383 286.223 52.422 286.582 52.5894C286.94 52.7568 287.236 53.0209 287.47 53.3819C287.68 53.7003 287.817 54.0695 287.879 54.4895C287.916 54.7357 287.93 55.0901 287.924 55.5528H284.243C284.263 56.091 284.432 56.4685 284.751 56.685C284.946 56.8196 285.179 56.8869 285.452 56.8869C285.741 56.8869 285.977 56.8048 286.158 56.6407C286.256 56.5521 286.343 56.4291 286.419 56.2715H287.855ZM286.463 54.6274C286.44 54.2565 286.327 53.9759 286.123 53.7856C285.922 53.592 285.672 53.4952 285.373 53.4952C285.047 53.4952 284.794 53.5969 284.613 53.8004C284.436 54.0038 284.324 54.2795 284.278 54.6274H286.463Z" fill="black" fill-opacity="0.8"/>
<path d="M291.71 53.5198C291.233 53.5198 290.906 53.7216 290.728 54.1253C290.636 54.3386 290.59 54.611 290.59 54.9424V57.8468H289.189V52.4909H290.546V53.2736C290.727 52.998 290.898 52.7994 291.059 52.678C291.348 52.4614 291.715 52.3531 292.159 52.3531C292.715 52.3531 293.169 52.4991 293.521 52.7912C293.876 53.08 294.053 53.5608 294.053 54.2336V57.8468H292.613V54.5831C292.613 54.3008 292.575 54.0842 292.499 53.9333C292.361 53.6576 292.098 53.5198 291.71 53.5198Z" fill="black" fill-opacity="0.8"/>
<path d="M300.311 54.4059H298.871C298.844 54.2057 298.777 54.0252 298.668 53.8644C298.511 53.6478 298.266 53.5395 297.933 53.5395C297.46 53.5395 297.136 53.7741 296.961 54.2434C296.869 54.4928 296.823 54.8243 296.823 55.2378C296.823 55.6316 296.869 55.9483 296.961 56.1879C297.129 56.6342 297.445 56.8573 297.909 56.8573C298.238 56.8573 298.471 56.7687 298.609 56.5915C298.747 56.4143 298.831 56.1846 298.861 55.9023H300.297C300.264 56.329 300.109 56.7326 299.833 57.1133C299.392 57.727 298.739 58.0339 297.874 58.0339C297.009 58.0339 296.373 57.7779 295.965 57.2659C295.557 56.754 295.353 56.0894 295.353 55.2722C295.353 54.3501 295.578 53.633 296.029 53.121C296.48 52.6091 297.101 52.3531 297.894 52.3531C298.568 52.3531 299.119 52.5041 299.547 52.806C299.978 53.1079 300.232 53.6412 300.311 54.4059Z" fill="black" fill-opacity="0.8"/>
<path d="M303.032 52.4811V57.8468H301.606V52.4811H303.032ZM303.032 50.5465V51.8411H301.606V50.5465H303.032Z" fill="black" fill-opacity="0.8"/>
<path d="M304.904 53.062C305.276 52.5894 305.914 52.3531 306.818 52.3531C307.407 52.3531 307.93 52.4696 308.387 52.7026C308.844 52.9356 309.073 53.3754 309.073 54.0219V56.4832C309.073 56.6539 309.076 56.8606 309.083 57.1035C309.093 57.2873 309.12 57.412 309.167 57.4776C309.213 57.5432 309.282 57.5974 309.374 57.64V57.8468H307.844C307.802 57.7385 307.772 57.6368 307.756 57.5416C307.739 57.4464 307.726 57.3381 307.716 57.2167C307.522 57.4267 307.298 57.6056 307.045 57.7533C306.742 57.9272 306.4 58.0142 306.019 58.0142C305.532 58.0142 305.129 57.8763 304.81 57.6007C304.494 57.3217 304.337 56.9279 304.337 56.4192C304.337 55.7596 304.591 55.2821 305.101 54.9867C305.381 54.8259 305.792 54.7111 306.335 54.6421L306.813 54.5831C307.073 54.5502 307.259 54.5092 307.371 54.46C307.571 54.3747 307.672 54.2418 307.672 54.0613C307.672 53.8414 307.594 53.6904 307.44 53.6084C307.288 53.5231 307.065 53.4804 306.769 53.4804C306.437 53.4804 306.201 53.5624 306.063 53.7265C305.965 53.8479 305.899 54.012 305.866 54.2188H304.509C304.539 53.7495 304.67 53.3639 304.904 53.062ZM305.95 56.8327C306.081 56.941 306.243 56.9952 306.433 56.9952C306.736 56.9952 307.014 56.9066 307.267 56.7294C307.524 56.5521 307.657 56.2289 307.667 55.7596V55.2378C307.578 55.2936 307.487 55.3395 307.395 55.3756C307.307 55.4084 307.183 55.4396 307.025 55.4691L306.71 55.5282C306.414 55.5807 306.201 55.6447 306.073 55.7202C305.856 55.8482 305.748 56.0467 305.748 56.3158C305.748 56.5554 305.815 56.7277 305.95 56.8327Z" fill="black" fill-opacity="0.8"/>
<path d="M227.088 33.8575H221.288V59.0102H214.419V33.8575H208.59V27.6021H227.088V33.8575Z" fill="#CE132E"/>
<path d="M233.132 49.6373C231.574 50.1259 229.967 50.4355 228.338 50.5525L226.591 50.5938L232.545 58.9689H241.022L234.09 49.3345L233.132 49.6373Z" fill="#CE132E"/>
<path d="M211.057 54.661L210.728 52.8511L209.708 54.5853L207.556 54.4614L209.051 55.7208L208.024 57.5169L209.974 56.519L211.902 57.7371L211.301 55.9134L213.097 54.778L211.057 54.661Z" fill="#FFCC00"/>
<path d="M205.404 48.4469L205.096 46.8159L204.153 48.3781L202.147 48.2611L203.538 49.3966L202.308 51L204.397 50.1123L205.914 51.2065L205.641 49.5755L207.311 48.557L205.404 48.4469Z" fill="#FFCC00"/>
<path d="M204.935 41.6958L204.656 40.3057L203.81 41.627L202 41.5237L203.258 42.5009L202.154 43.8566L204.041 43.1134L205.403 44.0424L205.152 42.6523L206.654 41.7921L204.935 41.6958Z" fill="#FFCC00"/>
<path d="M208.373 36.4727L208.122 35.3716L207.388 36.4107L205.815 36.3213L206.913 37.0989L205.962 38.1656L207.597 37.5875L208.785 38.3238L208.562 37.2296L209.869 36.5552L208.373 36.4727Z" fill="#FFCC00"/>
<path d="M236.774 30.6577C235.669 29.7012 234.335 28.9511 232.755 28.4349C231.05 27.8798 229.382 27.616 227.752 27.6436C227.752 29.7287 227.766 31.7863 227.752 33.8853C228.863 33.9954 230.058 34.2913 231.127 35.0965C232.196 35.9016 232.727 37.0853 232.727 38.6474V38.7369C232.727 40.0857 232.217 41.2143 231.197 42.1296C230.177 43.0448 228.744 43.499 226.892 43.499L221.917 43.5059C221.93 45.5704 221.917 47.5937 221.917 49.6513H226.655C228.534 49.6513 230.295 49.4173 231.945 48.9562C233.587 48.4952 235.027 47.7932 236.249 46.8642C237.479 45.9352 238.444 44.7859 239.143 43.4027C239.841 42.0263 240.198 40.4229 240.198 38.5924V38.5029C240.198 36.8995 239.904 35.4268 239.31 34.0917C238.716 32.7567 237.878 31.6143 236.774 30.6577Z" fill="#FFCC00"/>
</svg>
