<svg width="64" height="64" viewBox="0 0 64 64" fill="none" xmlns="http://www.w3.org/2000/svg">
<rect width="64" height="64" rx="32" fill="#F4F4F4"/>
<path d="M29.1503 18.4334L15.0336 42.0001C14.7426 42.5041 14.5886 43.0756 14.5869 43.6576C14.5853 44.2397 14.7361 44.812 15.0243 45.3176C15.3125 45.8233 15.7282 46.2447 16.2298 46.5398C16.7314 46.835 17.3016 46.9937 17.8836 47.0001H46.1169C46.6989 46.9937 47.2691 46.835 47.7708 46.5398C48.2724 46.2447 48.688 45.8233 48.9762 45.3176C49.2645 44.812 49.4153 44.2397 49.4136 43.6576C49.412 43.0756 49.258 42.5041 48.9669 42.0001L34.8503 18.4334C34.5532 17.9436 34.1348 17.5386 33.6356 17.2576C33.1364 16.9765 32.5732 16.8289 32.0003 16.8289C31.4274 16.8289 30.8642 16.9765 30.365 17.2576C29.8657 17.5386 29.4474 17.9436 29.1503 18.4334V18.4334Z" stroke="#A6301E" stroke-width="3.33" stroke-linecap="round" stroke-linejoin="round"/>
<path d="M32 27V33.6667" stroke="#A6301E" stroke-width="3.33" stroke-linecap="round" stroke-linejoin="round"/>
<path d="M32 40.3333H32.0167" stroke="#A6301E" stroke-width="3.33" stroke-linecap="round" stroke-linejoin="round"/>
</svg>
