<svg width="24" height="24" viewBox="0 0 24 24" fill="none" xmlns="http://www.w3.org/2000/svg">
<g clip-path="url(#clip0_3_1072)">
<path d="M6.49999 3.66797C5.9751 3.66797 4.95082 3.86118 4.57967 4.20499C4.20851 4.54881 4 5.01512 4 5.50135V20.168C4 20.6542 4.20851 21.1205 4.57967 21.4643C4.95082 21.8082 5.45422 22.0013 5.97911 22.0013H17.8538C18.3787 22.0013 18.882 21.8082 19.2532 21.4643C19.6244 21.1205 19.5493 19.7098 19.5493 19.2235" stroke="#A6301E" stroke-width="1.5" stroke-linecap="round" stroke-linejoin="round"/>
<path d="M15.4589 2H8.51443C8.05398 2 7.6124 2.18145 7.28681 2.50443C6.96123 2.8274 6.77832 3.26546 6.77832 3.72222V17.5C6.77832 17.9567 6.96123 18.3948 7.28681 18.7178C7.6124 19.0407 8.05398 19.2222 8.51443 19.2222H18.9311C19.3915 19.2222 19.8331 19.0407 20.1587 18.7178C20.4843 18.3948 20.6672 17.9567 20.6672 17.5V7.16665L15.4589 2Z" stroke="#A6301E" stroke-width="1.5" stroke-linecap="round" stroke-linejoin="round"/>
<path d="M15.1104 2.55664V7.00107H20.1103" stroke="#A6301E" stroke-width="1.5" stroke-linecap="round" stroke-linejoin="round"/>
</g>
<defs>
<clipPath id="clip0_3_1072">
<rect width="24" height="24" fill="white"/>
</clipPath>
</defs>
</svg>
